<?xml version="1.0" encoding="UTF-8" standalone="no"?>
<!DOCTYPE svg PUBLIC "-//W3C//DTD SVG 1.1//EN" "http://www.w3.org/Graphics/SVG/1.1/DTD/svg11.dtd">
<svg width="8.5in" height="11in" xmlns="http://www.w3.org/2000/svg">
	<circle cx="0.25in" cy="0.25in" r="0.25in" style="fill:rgb(200,200,255);"/>
	<circle cx="1.0in" cy="0.25in" r="0.25in" style="fill:rgb(200,200,255);"/>
	<circle cx="1.75in" cy="0.25in" r="0.25in" style="fill:rgb(200,200,255);"/>
	<circle cx="2.5in" cy="0.25in" r="0.25in" style="fill:rgb(200,200,255);"/>
	<circle cx="3.25in" cy="0.25in" r="0.25in" style="fill:rgb(200,200,255);"/>
	<circle cx="4.0in" cy="0.25in" r="0.25in" style="fill:rgb(200,200,255);"/>
	<circle cx="4.75in" cy="0.25in" r="0.25in" style="fill:rgb(200,200,255);"/>
	<circle cx="5.5in" cy="0.25in" r="0.25in" style="fill:rgb(200,200,255);"/>
	<circle cx="6.25in" cy="0.25in" r="0.25in" style="fill:rgb(200,200,255);"/>
	<circle cx="7.0in" cy="0.25in" r="0.25in" style="fill:rgb(200,200,255);"/>
	<circle cx="7.75in" cy="0.25in" r="0.25in" style="fill:rgb(200,200,255);"/>
	<circle cx="8.5in" cy="0.25in" r="0.25in" style="fill:rgb(200,200,255);"/>
	<circle cx="0.25in" cy="1.0in" r="0.25in" style="fill:rgb(200,200,255);"/>
	<circle cx="1.0in" cy="1.0in" r="0.25in" style="fill:rgb(200,200,255);"/>
	<circle cx="1.75in" cy="1.0in" r="0.25in" style="fill:rgb(200,200,255);"/>
	<circle cx="2.5in" cy="1.0in" r="0.25in" style="fill:rgb(200,200,255);"/>
	<circle cx="3.25in" cy="1.0in" r="0.25in" style="fill:rgb(200,200,255);"/>
	<circle cx="4.0in" cy="1.0in" r="0.25in" style="fill:rgb(200,200,255);"/>
	<circle cx="4.75in" cy="1.0in" r="0.25in" style="fill:rgb(200,200,255);"/>
	<circle cx="5.5in" cy="1.0in" r="0.25in" style="fill:rgb(200,200,255);"/>
	<circle cx="6.25in" cy="1.0in" r="0.25in" style="fill:rgb(200,200,255);"/>
	<circle cx="7.0in" cy="1.0in" r="0.25in" style="fill:rgb(200,200,255);"/>
	<circle cx="7.75in" cy="1.0in" r="0.25in" style="fill:rgb(200,200,255);"/>
	<circle cx="8.5in" cy="1.0in" r="0.25in" style="fill:rgb(200,200,255);"/>
	<circle cx="0.25in" cy="1.75in" r="0.25in" style="fill:rgb(200,200,255);"/>
	<circle cx="1.0in" cy="1.75in" r="0.25in" style="fill:rgb(200,200,255);"/>
	<circle cx="1.75in" cy="1.75in" r="0.25in" style="fill:rgb(200,200,255);"/>
	<circle cx="2.5in" cy="1.75in" r="0.25in" style="fill:rgb(200,200,255);"/>
	<circle cx="3.25in" cy="1.75in" r="0.25in" style="fill:rgb(200,200,255);"/>
	<circle cx="4.0in" cy="1.75in" r="0.25in" style="fill:rgb(200,200,255);"/>
	<circle cx="4.75in" cy="1.75in" r="0.25in" style="fill:rgb(200,200,255);"/>
	<circle cx="5.5in" cy="1.75in" r="0.25in" style="fill:rgb(200,200,255);"/>
	<circle cx="6.25in" cy="1.75in" r="0.25in" style="fill:rgb(200,200,255);"/>
	<circle cx="7.0in" cy="1.75in" r="0.25in" style="fill:rgb(200,200,255);"/>
	<circle cx="7.75in" cy="1.75in" r="0.25in" style="fill:rgb(200,200,255);"/>
	<circle cx="8.5in" cy="1.75in" r="0.25in" style="fill:rgb(200,200,255);"/>
	<circle cx="0.25in" cy="2.5in" r="0.25in" style="fill:rgb(200,200,255);"/>
	<circle cx="1.0in" cy="2.5in" r="0.25in" style="fill:rgb(200,200,255);"/>
	<circle cx="1.75in" cy="2.5in" r="0.25in" style="fill:rgb(200,200,255);"/>
	<circle cx="2.5in" cy="2.5in" r="0.25in" style="fill:rgb(200,200,255);"/>
	<circle cx="3.25in" cy="2.5in" r="0.25in" style="fill:rgb(200,200,255);"/>
	<circle cx="4.0in" cy="2.5in" r="0.25in" style="fill:rgb(200,200,255);"/>
	<circle cx="4.75in" cy="2.5in" r="0.25in" style="fill:rgb(200,200,255);"/>
	<circle cx="5.5in" cy="2.5in" r="0.25in" style="fill:rgb(200,200,255);"/>
	<circle cx="6.25in" cy="2.5in" r="0.25in" style="fill:rgb(200,200,255);"/>
	<circle cx="7.0in" cy="2.5in" r="0.25in" style="fill:rgb(200,200,255);"/>
	<circle cx="7.75in" cy="2.5in" r="0.25in" style="fill:rgb(200,200,255);"/>
	<circle cx="8.5in" cy="2.5in" r="0.25in" style="fill:rgb(200,200,255);"/>
	<circle cx="0.25in" cy="3.25in" r="0.25in" style="fill:rgb(200,200,255);"/>
	<circle cx="1.0in" cy="3.25in" r="0.25in" style="fill:rgb(200,200,255);"/>
	<circle cx="1.75in" cy="3.25in" r="0.25in" style="fill:rgb(200,200,255);"/>
	<circle cx="2.5in" cy="3.25in" r="0.25in" style="fill:rgb(200,200,255);"/>
	<circle cx="3.25in" cy="3.25in" r="0.25in" style="fill:rgb(200,200,255);"/>
	<circle cx="4.0in" cy="3.25in" r="0.25in" style="fill:rgb(200,200,255);"/>
	<circle cx="4.75in" cy="3.25in" r="0.25in" style="fill:rgb(200,200,255);"/>
	<circle cx="5.5in" cy="3.25in" r="0.25in" style="fill:rgb(200,200,255);"/>
	<circle cx="6.25in" cy="3.25in" r="0.25in" style="fill:rgb(200,200,255);"/>
	<circle cx="7.0in" cy="3.25in" r="0.25in" style="fill:rgb(200,200,255);"/>
	<circle cx="7.75in" cy="3.25in" r="0.25in" style="fill:rgb(200,200,255);"/>
	<circle cx="8.5in" cy="3.25in" r="0.25in" style="fill:rgb(200,200,255);"/>
	<circle cx="0.25in" cy="4.0in" r="0.25in" style="fill:rgb(200,200,255);"/>
	<circle cx="1.0in" cy="4.0in" r="0.25in" style="fill:rgb(200,200,255);"/>
	<circle cx="1.75in" cy="4.0in" r="0.25in" style="fill:rgb(200,200,255);"/>
	<circle cx="2.5in" cy="4.0in" r="0.25in" style="fill:rgb(200,200,255);"/>
	<circle cx="3.25in" cy="4.0in" r="0.25in" style="fill:rgb(200,200,255);"/>
	<circle cx="4.0in" cy="4.0in" r="0.25in" style="fill:rgb(200,200,255);"/>
	<circle cx="4.75in" cy="4.0in" r="0.25in" style="fill:rgb(200,200,255);"/>
	<circle cx="5.5in" cy="4.0in" r="0.25in" style="fill:rgb(200,200,255);"/>
	<circle cx="6.25in" cy="4.0in" r="0.25in" style="fill:rgb(200,200,255);"/>
	<circle cx="7.0in" cy="4.0in" r="0.25in" style="fill:rgb(200,200,255);"/>
	<circle cx="7.75in" cy="4.0in" r="0.25in" style="fill:rgb(200,200,255);"/>
	<circle cx="8.5in" cy="4.0in" r="0.25in" style="fill:rgb(200,200,255);"/>
	<circle cx="0.25in" cy="4.75in" r="0.25in" style="fill:rgb(200,200,255);"/>
	<circle cx="1.0in" cy="4.75in" r="0.25in" style="fill:rgb(200,200,255);"/>
	<circle cx="1.75in" cy="4.75in" r="0.25in" style="fill:rgb(200,200,255);"/>
	<circle cx="2.5in" cy="4.75in" r="0.25in" style="fill:rgb(200,200,255);"/>
	<circle cx="3.25in" cy="4.75in" r="0.25in" style="fill:rgb(200,200,255);"/>
	<circle cx="4.0in" cy="4.75in" r="0.25in" style="fill:rgb(200,200,255);"/>
	<circle cx="4.75in" cy="4.75in" r="0.25in" style="fill:rgb(200,200,255);"/>
	<circle cx="5.5in" cy="4.75in" r="0.25in" style="fill:rgb(200,200,255);"/>
	<circle cx="6.25in" cy="4.75in" r="0.25in" style="fill:rgb(200,200,255);"/>
	<circle cx="7.0in" cy="4.75in" r="0.25in" style="fill:rgb(200,200,255);"/>
	<circle cx="7.75in" cy="4.75in" r="0.25in" style="fill:rgb(200,200,255);"/>
	<circle cx="8.5in" cy="4.75in" r="0.25in" style="fill:rgb(200,200,255);"/>
	<circle cx="0.25in" cy="5.5in" r="0.25in" style="fill:rgb(200,200,255);"/>
	<circle cx="1.0in" cy="5.5in" r="0.25in" style="fill:rgb(200,200,255);"/>
	<circle cx="1.75in" cy="5.5in" r="0.25in" style="fill:rgb(200,200,255);"/>
	<circle cx="2.5in" cy="5.5in" r="0.25in" style="fill:rgb(200,200,255);"/>
	<circle cx="3.25in" cy="5.5in" r="0.25in" style="fill:rgb(200,200,255);"/>
	<circle cx="4.0in" cy="5.5in" r="0.25in" style="fill:rgb(200,200,255);"/>
	<circle cx="4.75in" cy="5.5in" r="0.25in" style="fill:rgb(200,200,255);"/>
	<circle cx="5.5in" cy="5.5in" r="0.25in" style="fill:rgb(200,200,255);"/>
	<circle cx="6.25in" cy="5.5in" r="0.25in" style="fill:rgb(200,200,255);"/>
	<circle cx="7.0in" cy="5.5in" r="0.25in" style="fill:rgb(200,200,255);"/>
	<circle cx="7.75in" cy="5.5in" r="0.25in" style="fill:rgb(200,200,255);"/>
	<circle cx="8.5in" cy="5.5in" r="0.25in" style="fill:rgb(200,200,255);"/>
	<circle cx="0.25in" cy="6.25in" r="0.25in" style="fill:rgb(200,200,255);"/>
	<circle cx="1.0in" cy="6.25in" r="0.25in" style="fill:rgb(200,200,255);"/>
	<circle cx="1.75in" cy="6.25in" r="0.25in" style="fill:rgb(200,200,255);"/>
	<circle cx="2.5in" cy="6.25in" r="0.25in" style="fill:rgb(200,200,255);"/>
	<circle cx="3.25in" cy="6.25in" r="0.25in" style="fill:rgb(200,200,255);"/>
	<circle cx="4.0in" cy="6.25in" r="0.25in" style="fill:rgb(200,200,255);"/>
	<circle cx="4.75in" cy="6.25in" r="0.25in" style="fill:rgb(200,200,255);"/>
	<circle cx="5.5in" cy="6.25in" r="0.25in" style="fill:rgb(200,200,255);"/>
	<circle cx="6.25in" cy="6.25in" r="0.25in" style="fill:rgb(200,200,255);"/>
	<circle cx="7.0in" cy="6.25in" r="0.25in" style="fill:rgb(200,200,255);"/>
	<circle cx="7.75in" cy="6.25in" r="0.25in" style="fill:rgb(200,200,255);"/>
	<circle cx="8.5in" cy="6.25in" r="0.25in" style="fill:rgb(200,200,255);"/>
	<circle cx="0.25in" cy="7.0in" r="0.25in" style="fill:rgb(200,200,255);"/>
	<circle cx="1.0in" cy="7.0in" r="0.25in" style="fill:rgb(200,200,255);"/>
	<circle cx="1.75in" cy="7.0in" r="0.25in" style="fill:rgb(200,200,255);"/>
	<circle cx="2.5in" cy="7.0in" r="0.25in" style="fill:rgb(200,200,255);"/>
	<circle cx="3.25in" cy="7.0in" r="0.25in" style="fill:rgb(200,200,255);"/>
	<circle cx="4.0in" cy="7.0in" r="0.25in" style="fill:rgb(200,200,255);"/>
	<circle cx="4.75in" cy="7.0in" r="0.25in" style="fill:rgb(200,200,255);"/>
	<circle cx="5.5in" cy="7.0in" r="0.25in" style="fill:rgb(200,200,255);"/>
	<circle cx="6.25in" cy="7.0in" r="0.25in" style="fill:rgb(200,200,255);"/>
	<circle cx="7.0in" cy="7.0in" r="0.25in" style="fill:rgb(200,200,255);"/>
	<circle cx="7.75in" cy="7.0in" r="0.25in" style="fill:rgb(200,200,255);"/>
	<circle cx="8.5in" cy="7.0in" r="0.25in" style="fill:rgb(200,200,255);"/>
	<circle cx="0.25in" cy="7.75in" r="0.25in" style="fill:rgb(200,200,255);"/>
	<circle cx="1.0in" cy="7.75in" r="0.25in" style="fill:rgb(200,200,255);"/>
	<circle cx="1.75in" cy="7.75in" r="0.25in" style="fill:rgb(200,200,255);"/>
	<circle cx="2.5in" cy="7.75in" r="0.25in" style="fill:rgb(200,200,255);"/>
	<circle cx="3.25in" cy="7.75in" r="0.25in" style="fill:rgb(200,200,255);"/>
	<circle cx="4.0in" cy="7.75in" r="0.25in" style="fill:rgb(200,200,255);"/>
	<circle cx="4.75in" cy="7.75in" r="0.25in" style="fill:rgb(200,200,255);"/>
	<circle cx="5.5in" cy="7.75in" r="0.25in" style="fill:rgb(200,200,255);"/>
	<circle cx="6.25in" cy="7.75in" r="0.25in" style="fill:rgb(200,200,255);"/>
	<circle cx="7.0in" cy="7.75in" r="0.25in" style="fill:rgb(200,200,255);"/>
	<circle cx="7.75in" cy="7.75in" r="0.25in" style="fill:rgb(200,200,255);"/>
	<circle cx="8.5in" cy="7.75in" r="0.25in" style="fill:rgb(200,200,255);"/>
	<circle cx="0.25in" cy="8.5in" r="0.25in" style="fill:rgb(200,200,255);"/>
	<circle cx="1.0in" cy="8.5in" r="0.25in" style="fill:rgb(200,200,255);"/>
	<circle cx="1.75in" cy="8.5in" r="0.25in" style="fill:rgb(200,200,255);"/>
	<circle cx="2.5in" cy="8.5in" r="0.25in" style="fill:rgb(200,200,255);"/>
	<circle cx="3.25in" cy="8.5in" r="0.25in" style="fill:rgb(200,200,255);"/>
	<circle cx="4.0in" cy="8.5in" r="0.25in" style="fill:rgb(200,200,255);"/>
	<circle cx="4.75in" cy="8.5in" r="0.25in" style="fill:rgb(200,200,255);"/>
	<circle cx="5.5in" cy="8.5in" r="0.25in" style="fill:rgb(200,200,255);"/>
	<circle cx="6.25in" cy="8.5in" r="0.25in" style="fill:rgb(200,200,255);"/>
	<circle cx="7.0in" cy="8.5in" r="0.25in" style="fill:rgb(200,200,255);"/>
	<circle cx="7.75in" cy="8.5in" r="0.25in" style="fill:rgb(200,200,255);"/>
	<circle cx="8.5in" cy="8.5in" r="0.25in" style="fill:rgb(200,200,255);"/>
	<circle cx="0.25in" cy="9.25in" r="0.25in" style="fill:rgb(200,200,255);"/>
	<circle cx="1.0in" cy="9.25in" r="0.25in" style="fill:rgb(200,200,255);"/>
	<circle cx="1.75in" cy="9.25in" r="0.25in" style="fill:rgb(200,200,255);"/>
	<circle cx="2.5in" cy="9.25in" r="0.25in" style="fill:rgb(200,200,255);"/>
	<circle cx="3.25in" cy="9.25in" r="0.25in" style="fill:rgb(200,200,255);"/>
	<circle cx="4.0in" cy="9.25in" r="0.25in" style="fill:rgb(200,200,255);"/>
	<circle cx="4.75in" cy="9.25in" r="0.25in" style="fill:rgb(200,200,255);"/>
	<circle cx="5.5in" cy="9.25in" r="0.25in" style="fill:rgb(200,200,255);"/>
	<circle cx="6.25in" cy="9.25in" r="0.25in" style="fill:rgb(200,200,255);"/>
	<circle cx="7.0in" cy="9.25in" r="0.25in" style="fill:rgb(200,200,255);"/>
	<circle cx="7.75in" cy="9.25in" r="0.25in" style="fill:rgb(200,200,255);"/>
	<circle cx="8.5in" cy="9.25in" r="0.25in" style="fill:rgb(200,200,255);"/>
	<circle cx="0.25in" cy="10.0in" r="0.25in" style="fill:rgb(200,200,255);"/>
	<circle cx="1.0in" cy="10.0in" r="0.25in" style="fill:rgb(200,200,255);"/>
	<circle cx="1.75in" cy="10.0in" r="0.25in" style="fill:rgb(200,200,255);"/>
	<circle cx="2.5in" cy="10.0in" r="0.25in" style="fill:rgb(200,200,255);"/>
	<circle cx="3.25in" cy="10.0in" r="0.25in" style="fill:rgb(200,200,255);"/>
	<circle cx="4.0in" cy="10.0in" r="0.25in" style="fill:rgb(200,200,255);"/>
	<circle cx="4.75in" cy="10.0in" r="0.25in" style="fill:rgb(200,200,255);"/>
	<circle cx="5.5in" cy="10.0in" r="0.25in" style="fill:rgb(200,200,255);"/>
	<circle cx="6.25in" cy="10.0in" r="0.25in" style="fill:rgb(200,200,255);"/>
	<circle cx="7.0in" cy="10.0in" r="0.25in" style="fill:rgb(200,200,255);"/>
	<circle cx="7.75in" cy="10.0in" r="0.25in" style="fill:rgb(200,200,255);"/>
	<circle cx="8.5in" cy="10.0in" r="0.25in" style="fill:rgb(200,200,255);"/>
	<circle cx="0.25in" cy="10.75in" r="0.25in" style="fill:rgb(200,200,255);"/>
	<circle cx="1.0in" cy="10.75in" r="0.25in" style="fill:rgb(200,200,255);"/>
	<circle cx="1.75in" cy="10.75in" r="0.25in" style="fill:rgb(200,200,255);"/>
	<circle cx="2.5in" cy="10.75in" r="0.25in" style="fill:rgb(200,200,255);"/>
	<circle cx="3.25in" cy="10.75in" r="0.25in" style="fill:rgb(200,200,255);"/>
	<circle cx="4.0in" cy="10.75in" r="0.25in" style="fill:rgb(200,200,255);"/>
	<circle cx="4.75in" cy="10.75in" r="0.25in" style="fill:rgb(200,200,255);"/>
	<circle cx="5.5in" cy="10.75in" r="0.25in" style="fill:rgb(200,200,255);"/>
	<circle cx="6.25in" cy="10.75in" r="0.25in" style="fill:rgb(200,200,255);"/>
	<circle cx="7.0in" cy="10.75in" r="0.25in" style="fill:rgb(200,200,255);"/>
	<circle cx="7.75in" cy="10.75in" r="0.25in" style="fill:rgb(200,200,255);"/>
	<circle cx="8.5in" cy="10.75in" r="0.25in" style="fill:rgb(200,200,255);"/>
	<circle cx="0.25in" cy="11.5in" r="0.25in" style="fill:rgb(200,200,255);"/>
	<circle cx="1.0in" cy="11.5in" r="0.25in" style="fill:rgb(200,200,255);"/>
	<circle cx="1.75in" cy="11.5in" r="0.25in" style="fill:rgb(200,200,255);"/>
	<circle cx="2.5in" cy="11.5in" r="0.25in" style="fill:rgb(200,200,255);"/>
	<circle cx="3.25in" cy="11.5in" r="0.25in" style="fill:rgb(200,200,255);"/>
	<circle cx="4.0in" cy="11.5in" r="0.25in" style="fill:rgb(200,200,255);"/>
	<circle cx="4.75in" cy="11.5in" r="0.25in" style="fill:rgb(200,200,255);"/>
	<circle cx="5.5in" cy="11.5in" r="0.25in" style="fill:rgb(200,200,255);"/>
	<circle cx="6.25in" cy="11.5in" r="0.25in" style="fill:rgb(200,200,255);"/>
	<circle cx="7.0in" cy="11.5in" r="0.25in" style="fill:rgb(200,200,255);"/>
	<circle cx="7.75in" cy="11.5in" r="0.25in" style="fill:rgb(200,200,255);"/>
	<circle cx="8.5in" cy="11.5in" r="0.25in" style="fill:rgb(200,200,255);"/>
	<circle cx="0.25in" cy="12.25in" r="0.25in" style="fill:rgb(200,200,255);"/>
	<circle cx="1.0in" cy="12.25in" r="0.25in" style="fill:rgb(200,200,255);"/>
	<circle cx="1.75in" cy="12.25in" r="0.25in" style="fill:rgb(200,200,255);"/>
	<circle cx="2.5in" cy="12.25in" r="0.25in" style="fill:rgb(200,200,255);"/>
	<circle cx="3.25in" cy="12.25in" r="0.25in" style="fill:rgb(200,200,255);"/>
	<circle cx="4.0in" cy="12.25in" r="0.25in" style="fill:rgb(200,200,255);"/>
	<circle cx="4.75in" cy="12.25in" r="0.25in" style="fill:rgb(200,200,255);"/>
	<circle cx="5.5in" cy="12.25in" r="0.25in" style="fill:rgb(200,200,255);"/>
	<circle cx="6.25in" cy="12.25in" r="0.25in" style="fill:rgb(200,200,255);"/>
	<circle cx="7.0in" cy="12.25in" r="0.25in" style="fill:rgb(200,200,255);"/>
	<circle cx="7.75in" cy="12.25in" r="0.25in" style="fill:rgb(200,200,255);"/>
	<circle cx="8.5in" cy="12.25in" r="0.25in" style="fill:rgb(200,200,255);"/>
	<circle cx="0.25in" cy="13.0in" r="0.25in" style="fill:rgb(200,200,255);"/>
	<circle cx="1.0in" cy="13.0in" r="0.25in" style="fill:rgb(200,200,255);"/>
	<circle cx="1.75in" cy="13.0in" r="0.25in" style="fill:rgb(200,200,255);"/>
	<circle cx="2.5in" cy="13.0in" r="0.25in" style="fill:rgb(200,200,255);"/>
	<circle cx="3.25in" cy="13.0in" r="0.25in" style="fill:rgb(200,200,255);"/>
	<circle cx="4.0in" cy="13.0in" r="0.25in" style="fill:rgb(200,200,255);"/>
	<circle cx="4.75in" cy="13.0in" r="0.25in" style="fill:rgb(200,200,255);"/>
	<circle cx="5.5in" cy="13.0in" r="0.25in" style="fill:rgb(200,200,255);"/>
	<circle cx="6.25in" cy="13.0in" r="0.25in" style="fill:rgb(200,200,255);"/>
	<circle cx="7.0in" cy="13.0in" r="0.25in" style="fill:rgb(200,200,255);"/>
	<circle cx="7.75in" cy="13.0in" r="0.25in" style="fill:rgb(200,200,255);"/>
	<circle cx="8.5in" cy="13.0in" r="0.25in" style="fill:rgb(200,200,255);"/>
	<circle cx="0.25in" cy="13.75in" r="0.25in" style="fill:rgb(200,200,255);"/>
	<circle cx="1.0in" cy="13.75in" r="0.25in" style="fill:rgb(200,200,255);"/>
	<circle cx="1.75in" cy="13.75in" r="0.25in" style="fill:rgb(200,200,255);"/>
	<circle cx="2.5in" cy="13.75in" r="0.25in" style="fill:rgb(200,200,255);"/>
	<circle cx="3.25in" cy="13.75in" r="0.25in" style="fill:rgb(200,200,255);"/>
	<circle cx="4.0in" cy="13.75in" r="0.25in" style="fill:rgb(200,200,255);"/>
	<circle cx="4.75in" cy="13.75in" r="0.25in" style="fill:rgb(200,200,255);"/>
	<circle cx="5.5in" cy="13.75in" r="0.25in" style="fill:rgb(200,200,255);"/>
	<circle cx="6.25in" cy="13.75in" r="0.25in" style="fill:rgb(200,200,255);"/>
	<circle cx="7.0in" cy="13.75in" r="0.25in" style="fill:rgb(200,200,255);"/>
	<circle cx="7.75in" cy="13.75in" r="0.25in" style="fill:rgb(200,200,255);"/>
	<circle cx="8.5in" cy="13.75in" r="0.25in" style="fill:rgb(200,200,255);"/>
	<circle cx="0.25in" cy="14.5in" r="0.25in" style="fill:rgb(200,200,255);"/>
	<circle cx="1.0in" cy="14.5in" r="0.25in" style="fill:rgb(200,200,255);"/>
	<circle cx="1.75in" cy="14.5in" r="0.25in" style="fill:rgb(200,200,255);"/>
	<circle cx="2.5in" cy="14.5in" r="0.25in" style="fill:rgb(200,200,255);"/>
	<circle cx="3.25in" cy="14.5in" r="0.25in" style="fill:rgb(200,200,255);"/>
	<circle cx="4.0in" cy="14.5in" r="0.25in" style="fill:rgb(200,200,255);"/>
	<circle cx="4.75in" cy="14.5in" r="0.25in" style="fill:rgb(200,200,255);"/>
	<circle cx="5.5in" cy="14.5in" r="0.25in" style="fill:rgb(200,200,255);"/>
	<circle cx="6.25in" cy="14.5in" r="0.25in" style="fill:rgb(200,200,255);"/>
	<circle cx="7.0in" cy="14.5in" r="0.25in" style="fill:rgb(200,200,255);"/>
	<circle cx="7.75in" cy="14.5in" r="0.25in" style="fill:rgb(200,200,255);"/>
	<circle cx="8.5in" cy="14.5in" r="0.25in" style="fill:rgb(200,200,255);"/>
</svg>