<?xml version="1.0" encoding="UTF-8" standalone="no"?>
<!DOCTYPE svg PUBLIC "-//W3C//DTD SVG 1.1//EN" "http://www.w3.org/Graphics/SVG/1.1/DTD/svg11.dtd">
<svg width="8.5in" height="11in"  xmlns="http://www.w3.org/2000/svg">
	<circle cx="0.3333333333333333in" cy="0.3333333333333333in" r="0.3333333333333333in" style="stroke: rgb(200,200,200); fill: none;"/>
	<circle cx="0.6666666666666666in" cy="0.3333333333333333in" r="0.3333333333333333in" style="stroke: rgb(200,200,200); fill: none;"/>
	<circle cx="1.0in" cy="0.3333333333333333in" r="0.3333333333333333in" style="stroke: rgb(200,200,200); fill: none;"/>
	<circle cx="1.3333333333333333in" cy="0.3333333333333333in" r="0.3333333333333333in" style="stroke: rgb(200,200,200); fill: none;"/>
	<circle cx="1.6666666666666665in" cy="0.3333333333333333in" r="0.3333333333333333in" style="stroke: rgb(200,200,200); fill: none;"/>
	<circle cx="2.0in" cy="0.3333333333333333in" r="0.3333333333333333in" style="stroke: rgb(200,200,200); fill: none;"/>
	<circle cx="2.333333333333333in" cy="0.3333333333333333in" r="0.3333333333333333in" style="stroke: rgb(200,200,200); fill: none;"/>
	<circle cx="2.6666666666666665in" cy="0.3333333333333333in" r="0.3333333333333333in" style="stroke: rgb(200,200,200); fill: none;"/>
	<circle cx="3.0in" cy="0.3333333333333333in" r="0.3333333333333333in" style="stroke: rgb(200,200,200); fill: none;"/>
	<circle cx="3.333333333333333in" cy="0.3333333333333333in" r="0.3333333333333333in" style="stroke: rgb(200,200,200); fill: none;"/>
	<circle cx="3.6666666666666665in" cy="0.3333333333333333in" r="0.3333333333333333in" style="stroke: rgb(200,200,200); fill: none;"/>
	<circle cx="4.0in" cy="0.3333333333333333in" r="0.3333333333333333in" style="stroke: rgb(200,200,200); fill: none;"/>
	<circle cx="4.333333333333333in" cy="0.3333333333333333in" r="0.3333333333333333in" style="stroke: rgb(200,200,200); fill: none;"/>
	<circle cx="4.666666666666666in" cy="0.3333333333333333in" r="0.3333333333333333in" style="stroke: rgb(200,200,200); fill: none;"/>
	<circle cx="5.0in" cy="0.3333333333333333in" r="0.3333333333333333in" style="stroke: rgb(200,200,200); fill: none;"/>
	<circle cx="5.333333333333333in" cy="0.3333333333333333in" r="0.3333333333333333in" style="stroke: rgb(200,200,200); fill: none;"/>
	<circle cx="5.666666666666666in" cy="0.3333333333333333in" r="0.3333333333333333in" style="stroke: rgb(200,200,200); fill: none;"/>
	<circle cx="6.0in" cy="0.3333333333333333in" r="0.3333333333333333in" style="stroke: rgb(200,200,200); fill: none;"/>
	<circle cx="6.333333333333333in" cy="0.3333333333333333in" r="0.3333333333333333in" style="stroke: rgb(200,200,200); fill: none;"/>
	<circle cx="6.666666666666666in" cy="0.3333333333333333in" r="0.3333333333333333in" style="stroke: rgb(200,200,200); fill: none;"/>
	<circle cx="7.0in" cy="0.3333333333333333in" r="0.3333333333333333in" style="stroke: rgb(200,200,200); fill: none;"/>
	<circle cx="7.333333333333333in" cy="0.3333333333333333in" r="0.3333333333333333in" style="stroke: rgb(200,200,200); fill: none;"/>
	<circle cx="7.666666666666666in" cy="0.3333333333333333in" r="0.3333333333333333in" style="stroke: rgb(200,200,200); fill: none;"/>
	<circle cx="8.0in" cy="0.3333333333333333in" r="0.3333333333333333in" style="stroke: rgb(200,200,200); fill: none;"/>
	<circle cx="0.3333333333333333in" cy="0.6666666666666666in" r="0.3333333333333333in" style="stroke: rgb(200,200,200); fill: none;"/>
	<circle cx="0.6666666666666666in" cy="0.6666666666666666in" r="0.3333333333333333in" style="stroke: rgb(200,200,200); fill: none;"/>
	<circle cx="1.0in" cy="0.6666666666666666in" r="0.3333333333333333in" style="stroke: rgb(200,200,200); fill: none;"/>
	<circle cx="1.3333333333333333in" cy="0.6666666666666666in" r="0.3333333333333333in" style="stroke: rgb(200,200,200); fill: none;"/>
	<circle cx="1.6666666666666665in" cy="0.6666666666666666in" r="0.3333333333333333in" style="stroke: rgb(200,200,200); fill: none;"/>
	<circle cx="2.0in" cy="0.6666666666666666in" r="0.3333333333333333in" style="stroke: rgb(200,200,200); fill: none;"/>
	<circle cx="2.333333333333333in" cy="0.6666666666666666in" r="0.3333333333333333in" style="stroke: rgb(200,200,200); fill: none;"/>
	<circle cx="2.6666666666666665in" cy="0.6666666666666666in" r="0.3333333333333333in" style="stroke: rgb(200,200,200); fill: none;"/>
	<circle cx="3.0in" cy="0.6666666666666666in" r="0.3333333333333333in" style="stroke: rgb(200,200,200); fill: none;"/>
	<circle cx="3.333333333333333in" cy="0.6666666666666666in" r="0.3333333333333333in" style="stroke: rgb(200,200,200); fill: none;"/>
	<circle cx="3.6666666666666665in" cy="0.6666666666666666in" r="0.3333333333333333in" style="stroke: rgb(200,200,200); fill: none;"/>
	<circle cx="4.0in" cy="0.6666666666666666in" r="0.3333333333333333in" style="stroke: rgb(200,200,200); fill: none;"/>
	<circle cx="4.333333333333333in" cy="0.6666666666666666in" r="0.3333333333333333in" style="stroke: rgb(200,200,200); fill: none;"/>
	<circle cx="4.666666666666666in" cy="0.6666666666666666in" r="0.3333333333333333in" style="stroke: rgb(200,200,200); fill: none;"/>
	<circle cx="5.0in" cy="0.6666666666666666in" r="0.3333333333333333in" style="stroke: rgb(200,200,200); fill: none;"/>
	<circle cx="5.333333333333333in" cy="0.6666666666666666in" r="0.3333333333333333in" style="stroke: rgb(200,200,200); fill: none;"/>
	<circle cx="5.666666666666666in" cy="0.6666666666666666in" r="0.3333333333333333in" style="stroke: rgb(200,200,200); fill: none;"/>
	<circle cx="6.0in" cy="0.6666666666666666in" r="0.3333333333333333in" style="stroke: rgb(200,200,200); fill: none;"/>
	<circle cx="6.333333333333333in" cy="0.6666666666666666in" r="0.3333333333333333in" style="stroke: rgb(200,200,200); fill: none;"/>
	<circle cx="6.666666666666666in" cy="0.6666666666666666in" r="0.3333333333333333in" style="stroke: rgb(200,200,200); fill: none;"/>
	<circle cx="7.0in" cy="0.6666666666666666in" r="0.3333333333333333in" style="stroke: rgb(200,200,200); fill: none;"/>
	<circle cx="7.333333333333333in" cy="0.6666666666666666in" r="0.3333333333333333in" style="stroke: rgb(200,200,200); fill: none;"/>
	<circle cx="7.666666666666666in" cy="0.6666666666666666in" r="0.3333333333333333in" style="stroke: rgb(200,200,200); fill: none;"/>
	<circle cx="8.0in" cy="0.6666666666666666in" r="0.3333333333333333in" style="stroke: rgb(200,200,200); fill: none;"/>
	<circle cx="0.3333333333333333in" cy="1.0in" r="0.3333333333333333in" style="stroke: rgb(200,200,200); fill: none;"/>
	<circle cx="0.6666666666666666in" cy="1.0in" r="0.3333333333333333in" style="stroke: rgb(200,200,200); fill: none;"/>
	<circle cx="1.0in" cy="1.0in" r="0.3333333333333333in" style="stroke: rgb(200,200,200); fill: none;"/>
	<circle cx="1.3333333333333333in" cy="1.0in" r="0.3333333333333333in" style="stroke: rgb(200,200,200); fill: none;"/>
	<circle cx="1.6666666666666665in" cy="1.0in" r="0.3333333333333333in" style="stroke: rgb(200,200,200); fill: none;"/>
	<circle cx="2.0in" cy="1.0in" r="0.3333333333333333in" style="stroke: rgb(200,200,200); fill: none;"/>
	<circle cx="2.333333333333333in" cy="1.0in" r="0.3333333333333333in" style="stroke: rgb(200,200,200); fill: none;"/>
	<circle cx="2.6666666666666665in" cy="1.0in" r="0.3333333333333333in" style="stroke: rgb(200,200,200); fill: none;"/>
	<circle cx="3.0in" cy="1.0in" r="0.3333333333333333in" style="stroke: rgb(200,200,200); fill: none;"/>
	<circle cx="3.333333333333333in" cy="1.0in" r="0.3333333333333333in" style="stroke: rgb(200,200,200); fill: none;"/>
	<circle cx="3.6666666666666665in" cy="1.0in" r="0.3333333333333333in" style="stroke: rgb(200,200,200); fill: none;"/>
	<circle cx="4.0in" cy="1.0in" r="0.3333333333333333in" style="stroke: rgb(200,200,200); fill: none;"/>
	<circle cx="4.333333333333333in" cy="1.0in" r="0.3333333333333333in" style="stroke: rgb(200,200,200); fill: none;"/>
	<circle cx="4.666666666666666in" cy="1.0in" r="0.3333333333333333in" style="stroke: rgb(200,200,200); fill: none;"/>
	<circle cx="5.0in" cy="1.0in" r="0.3333333333333333in" style="stroke: rgb(200,200,200); fill: none;"/>
	<circle cx="5.333333333333333in" cy="1.0in" r="0.3333333333333333in" style="stroke: rgb(200,200,200); fill: none;"/>
	<circle cx="5.666666666666666in" cy="1.0in" r="0.3333333333333333in" style="stroke: rgb(200,200,200); fill: none;"/>
	<circle cx="6.0in" cy="1.0in" r="0.3333333333333333in" style="stroke: rgb(200,200,200); fill: none;"/>
	<circle cx="6.333333333333333in" cy="1.0in" r="0.3333333333333333in" style="stroke: rgb(200,200,200); fill: none;"/>
	<circle cx="6.666666666666666in" cy="1.0in" r="0.3333333333333333in" style="stroke: rgb(200,200,200); fill: none;"/>
	<circle cx="7.0in" cy="1.0in" r="0.3333333333333333in" style="stroke: rgb(200,200,200); fill: none;"/>
	<circle cx="7.333333333333333in" cy="1.0in" r="0.3333333333333333in" style="stroke: rgb(200,200,200); fill: none;"/>
	<circle cx="7.666666666666666in" cy="1.0in" r="0.3333333333333333in" style="stroke: rgb(200,200,200); fill: none;"/>
	<circle cx="8.0in" cy="1.0in" r="0.3333333333333333in" style="stroke: rgb(200,200,200); fill: none;"/>
	<circle cx="0.3333333333333333in" cy="1.3333333333333333in" r="0.3333333333333333in" style="stroke: rgb(200,200,200); fill: none;"/>
	<circle cx="0.6666666666666666in" cy="1.3333333333333333in" r="0.3333333333333333in" style="stroke: rgb(200,200,200); fill: none;"/>
	<circle cx="1.0in" cy="1.3333333333333333in" r="0.3333333333333333in" style="stroke: rgb(200,200,200); fill: none;"/>
	<circle cx="1.3333333333333333in" cy="1.3333333333333333in" r="0.3333333333333333in" style="stroke: rgb(200,200,200); fill: none;"/>
	<circle cx="1.6666666666666665in" cy="1.3333333333333333in" r="0.3333333333333333in" style="stroke: rgb(200,200,200); fill: none;"/>
	<circle cx="2.0in" cy="1.3333333333333333in" r="0.3333333333333333in" style="stroke: rgb(200,200,200); fill: none;"/>
	<circle cx="2.333333333333333in" cy="1.3333333333333333in" r="0.3333333333333333in" style="stroke: rgb(200,200,200); fill: none;"/>
	<circle cx="2.6666666666666665in" cy="1.3333333333333333in" r="0.3333333333333333in" style="stroke: rgb(200,200,200); fill: none;"/>
	<circle cx="3.0in" cy="1.3333333333333333in" r="0.3333333333333333in" style="stroke: rgb(200,200,200); fill: none;"/>
	<circle cx="3.333333333333333in" cy="1.3333333333333333in" r="0.3333333333333333in" style="stroke: rgb(200,200,200); fill: none;"/>
	<circle cx="3.6666666666666665in" cy="1.3333333333333333in" r="0.3333333333333333in" style="stroke: rgb(200,200,200); fill: none;"/>
	<circle cx="4.0in" cy="1.3333333333333333in" r="0.3333333333333333in" style="stroke: rgb(200,200,200); fill: none;"/>
	<circle cx="4.333333333333333in" cy="1.3333333333333333in" r="0.3333333333333333in" style="stroke: rgb(200,200,200); fill: none;"/>
	<circle cx="4.666666666666666in" cy="1.3333333333333333in" r="0.3333333333333333in" style="stroke: rgb(200,200,200); fill: none;"/>
	<circle cx="5.0in" cy="1.3333333333333333in" r="0.3333333333333333in" style="stroke: rgb(200,200,200); fill: none;"/>
	<circle cx="5.333333333333333in" cy="1.3333333333333333in" r="0.3333333333333333in" style="stroke: rgb(200,200,200); fill: none;"/>
	<circle cx="5.666666666666666in" cy="1.3333333333333333in" r="0.3333333333333333in" style="stroke: rgb(200,200,200); fill: none;"/>
	<circle cx="6.0in" cy="1.3333333333333333in" r="0.3333333333333333in" style="stroke: rgb(200,200,200); fill: none;"/>
	<circle cx="6.333333333333333in" cy="1.3333333333333333in" r="0.3333333333333333in" style="stroke: rgb(200,200,200); fill: none;"/>
	<circle cx="6.666666666666666in" cy="1.3333333333333333in" r="0.3333333333333333in" style="stroke: rgb(200,200,200); fill: none;"/>
	<circle cx="7.0in" cy="1.3333333333333333in" r="0.3333333333333333in" style="stroke: rgb(200,200,200); fill: none;"/>
	<circle cx="7.333333333333333in" cy="1.3333333333333333in" r="0.3333333333333333in" style="stroke: rgb(200,200,200); fill: none;"/>
	<circle cx="7.666666666666666in" cy="1.3333333333333333in" r="0.3333333333333333in" style="stroke: rgb(200,200,200); fill: none;"/>
	<circle cx="8.0in" cy="1.3333333333333333in" r="0.3333333333333333in" style="stroke: rgb(200,200,200); fill: none;"/>
	<circle cx="0.3333333333333333in" cy="1.6666666666666665in" r="0.3333333333333333in" style="stroke: rgb(200,200,200); fill: none;"/>
	<circle cx="0.6666666666666666in" cy="1.6666666666666665in" r="0.3333333333333333in" style="stroke: rgb(200,200,200); fill: none;"/>
	<circle cx="1.0in" cy="1.6666666666666665in" r="0.3333333333333333in" style="stroke: rgb(200,200,200); fill: none;"/>
	<circle cx="1.3333333333333333in" cy="1.6666666666666665in" r="0.3333333333333333in" style="stroke: rgb(200,200,200); fill: none;"/>
	<circle cx="1.6666666666666665in" cy="1.6666666666666665in" r="0.3333333333333333in" style="stroke: rgb(200,200,200); fill: none;"/>
	<circle cx="2.0in" cy="1.6666666666666665in" r="0.3333333333333333in" style="stroke: rgb(200,200,200); fill: none;"/>
	<circle cx="2.333333333333333in" cy="1.6666666666666665in" r="0.3333333333333333in" style="stroke: rgb(200,200,200); fill: none;"/>
	<circle cx="2.6666666666666665in" cy="1.6666666666666665in" r="0.3333333333333333in" style="stroke: rgb(200,200,200); fill: none;"/>
	<circle cx="3.0in" cy="1.6666666666666665in" r="0.3333333333333333in" style="stroke: rgb(200,200,200); fill: none;"/>
	<circle cx="3.333333333333333in" cy="1.6666666666666665in" r="0.3333333333333333in" style="stroke: rgb(200,200,200); fill: none;"/>
	<circle cx="3.6666666666666665in" cy="1.6666666666666665in" r="0.3333333333333333in" style="stroke: rgb(200,200,200); fill: none;"/>
	<circle cx="4.0in" cy="1.6666666666666665in" r="0.3333333333333333in" style="stroke: rgb(200,200,200); fill: none;"/>
	<circle cx="4.333333333333333in" cy="1.6666666666666665in" r="0.3333333333333333in" style="stroke: rgb(200,200,200); fill: none;"/>
	<circle cx="4.666666666666666in" cy="1.6666666666666665in" r="0.3333333333333333in" style="stroke: rgb(200,200,200); fill: none;"/>
	<circle cx="5.0in" cy="1.6666666666666665in" r="0.3333333333333333in" style="stroke: rgb(200,200,200); fill: none;"/>
	<circle cx="5.333333333333333in" cy="1.6666666666666665in" r="0.3333333333333333in" style="stroke: rgb(200,200,200); fill: none;"/>
	<circle cx="5.666666666666666in" cy="1.6666666666666665in" r="0.3333333333333333in" style="stroke: rgb(200,200,200); fill: none;"/>
	<circle cx="6.0in" cy="1.6666666666666665in" r="0.3333333333333333in" style="stroke: rgb(200,200,200); fill: none;"/>
	<circle cx="6.333333333333333in" cy="1.6666666666666665in" r="0.3333333333333333in" style="stroke: rgb(200,200,200); fill: none;"/>
	<circle cx="6.666666666666666in" cy="1.6666666666666665in" r="0.3333333333333333in" style="stroke: rgb(200,200,200); fill: none;"/>
	<circle cx="7.0in" cy="1.6666666666666665in" r="0.3333333333333333in" style="stroke: rgb(200,200,200); fill: none;"/>
	<circle cx="7.333333333333333in" cy="1.6666666666666665in" r="0.3333333333333333in" style="stroke: rgb(200,200,200); fill: none;"/>
	<circle cx="7.666666666666666in" cy="1.6666666666666665in" r="0.3333333333333333in" style="stroke: rgb(200,200,200); fill: none;"/>
	<circle cx="8.0in" cy="1.6666666666666665in" r="0.3333333333333333in" style="stroke: rgb(200,200,200); fill: none;"/>
	<circle cx="0.3333333333333333in" cy="2.0in" r="0.3333333333333333in" style="stroke: rgb(200,200,200); fill: none;"/>
	<circle cx="0.6666666666666666in" cy="2.0in" r="0.3333333333333333in" style="stroke: rgb(200,200,200); fill: none;"/>
	<circle cx="1.0in" cy="2.0in" r="0.3333333333333333in" style="stroke: rgb(200,200,200); fill: none;"/>
	<circle cx="1.3333333333333333in" cy="2.0in" r="0.3333333333333333in" style="stroke: rgb(200,200,200); fill: none;"/>
	<circle cx="1.6666666666666665in" cy="2.0in" r="0.3333333333333333in" style="stroke: rgb(200,200,200); fill: none;"/>
	<circle cx="2.0in" cy="2.0in" r="0.3333333333333333in" style="stroke: rgb(200,200,200); fill: none;"/>
	<circle cx="2.333333333333333in" cy="2.0in" r="0.3333333333333333in" style="stroke: rgb(200,200,200); fill: none;"/>
	<circle cx="2.6666666666666665in" cy="2.0in" r="0.3333333333333333in" style="stroke: rgb(200,200,200); fill: none;"/>
	<circle cx="3.0in" cy="2.0in" r="0.3333333333333333in" style="stroke: rgb(200,200,200); fill: none;"/>
	<circle cx="3.333333333333333in" cy="2.0in" r="0.3333333333333333in" style="stroke: rgb(200,200,200); fill: none;"/>
	<circle cx="3.6666666666666665in" cy="2.0in" r="0.3333333333333333in" style="stroke: rgb(200,200,200); fill: none;"/>
	<circle cx="4.0in" cy="2.0in" r="0.3333333333333333in" style="stroke: rgb(200,200,200); fill: none;"/>
	<circle cx="4.333333333333333in" cy="2.0in" r="0.3333333333333333in" style="stroke: rgb(200,200,200); fill: none;"/>
	<circle cx="4.666666666666666in" cy="2.0in" r="0.3333333333333333in" style="stroke: rgb(200,200,200); fill: none;"/>
	<circle cx="5.0in" cy="2.0in" r="0.3333333333333333in" style="stroke: rgb(200,200,200); fill: none;"/>
	<circle cx="5.333333333333333in" cy="2.0in" r="0.3333333333333333in" style="stroke: rgb(200,200,200); fill: none;"/>
	<circle cx="5.666666666666666in" cy="2.0in" r="0.3333333333333333in" style="stroke: rgb(200,200,200); fill: none;"/>
	<circle cx="6.0in" cy="2.0in" r="0.3333333333333333in" style="stroke: rgb(200,200,200); fill: none;"/>
	<circle cx="6.333333333333333in" cy="2.0in" r="0.3333333333333333in" style="stroke: rgb(200,200,200); fill: none;"/>
	<circle cx="6.666666666666666in" cy="2.0in" r="0.3333333333333333in" style="stroke: rgb(200,200,200); fill: none;"/>
	<circle cx="7.0in" cy="2.0in" r="0.3333333333333333in" style="stroke: rgb(200,200,200); fill: none;"/>
	<circle cx="7.333333333333333in" cy="2.0in" r="0.3333333333333333in" style="stroke: rgb(200,200,200); fill: none;"/>
	<circle cx="7.666666666666666in" cy="2.0in" r="0.3333333333333333in" style="stroke: rgb(200,200,200); fill: none;"/>
	<circle cx="8.0in" cy="2.0in" r="0.3333333333333333in" style="stroke: rgb(200,200,200); fill: none;"/>
	<circle cx="0.3333333333333333in" cy="2.333333333333333in" r="0.3333333333333333in" style="stroke: rgb(200,200,200); fill: none;"/>
	<circle cx="0.6666666666666666in" cy="2.333333333333333in" r="0.3333333333333333in" style="stroke: rgb(200,200,200); fill: none;"/>
	<circle cx="1.0in" cy="2.333333333333333in" r="0.3333333333333333in" style="stroke: rgb(200,200,200); fill: none;"/>
	<circle cx="1.3333333333333333in" cy="2.333333333333333in" r="0.3333333333333333in" style="stroke: rgb(200,200,200); fill: none;"/>
	<circle cx="1.6666666666666665in" cy="2.333333333333333in" r="0.3333333333333333in" style="stroke: rgb(200,200,200); fill: none;"/>
	<circle cx="2.0in" cy="2.333333333333333in" r="0.3333333333333333in" style="stroke: rgb(200,200,200); fill: none;"/>
	<circle cx="2.333333333333333in" cy="2.333333333333333in" r="0.3333333333333333in" style="stroke: rgb(200,200,200); fill: none;"/>
	<circle cx="2.6666666666666665in" cy="2.333333333333333in" r="0.3333333333333333in" style="stroke: rgb(200,200,200); fill: none;"/>
	<circle cx="3.0in" cy="2.333333333333333in" r="0.3333333333333333in" style="stroke: rgb(200,200,200); fill: none;"/>
	<circle cx="3.333333333333333in" cy="2.333333333333333in" r="0.3333333333333333in" style="stroke: rgb(200,200,200); fill: none;"/>
	<circle cx="3.6666666666666665in" cy="2.333333333333333in" r="0.3333333333333333in" style="stroke: rgb(200,200,200); fill: none;"/>
	<circle cx="4.0in" cy="2.333333333333333in" r="0.3333333333333333in" style="stroke: rgb(200,200,200); fill: none;"/>
	<circle cx="4.333333333333333in" cy="2.333333333333333in" r="0.3333333333333333in" style="stroke: rgb(200,200,200); fill: none;"/>
	<circle cx="4.666666666666666in" cy="2.333333333333333in" r="0.3333333333333333in" style="stroke: rgb(200,200,200); fill: none;"/>
	<circle cx="5.0in" cy="2.333333333333333in" r="0.3333333333333333in" style="stroke: rgb(200,200,200); fill: none;"/>
	<circle cx="5.333333333333333in" cy="2.333333333333333in" r="0.3333333333333333in" style="stroke: rgb(200,200,200); fill: none;"/>
	<circle cx="5.666666666666666in" cy="2.333333333333333in" r="0.3333333333333333in" style="stroke: rgb(200,200,200); fill: none;"/>
	<circle cx="6.0in" cy="2.333333333333333in" r="0.3333333333333333in" style="stroke: rgb(200,200,200); fill: none;"/>
	<circle cx="6.333333333333333in" cy="2.333333333333333in" r="0.3333333333333333in" style="stroke: rgb(200,200,200); fill: none;"/>
	<circle cx="6.666666666666666in" cy="2.333333333333333in" r="0.3333333333333333in" style="stroke: rgb(200,200,200); fill: none;"/>
	<circle cx="7.0in" cy="2.333333333333333in" r="0.3333333333333333in" style="stroke: rgb(200,200,200); fill: none;"/>
	<circle cx="7.333333333333333in" cy="2.333333333333333in" r="0.3333333333333333in" style="stroke: rgb(200,200,200); fill: none;"/>
	<circle cx="7.666666666666666in" cy="2.333333333333333in" r="0.3333333333333333in" style="stroke: rgb(200,200,200); fill: none;"/>
	<circle cx="8.0in" cy="2.333333333333333in" r="0.3333333333333333in" style="stroke: rgb(200,200,200); fill: none;"/>
	<circle cx="0.3333333333333333in" cy="2.6666666666666665in" r="0.3333333333333333in" style="stroke: rgb(200,200,200); fill: none;"/>
	<circle cx="0.6666666666666666in" cy="2.6666666666666665in" r="0.3333333333333333in" style="stroke: rgb(200,200,200); fill: none;"/>
	<circle cx="1.0in" cy="2.6666666666666665in" r="0.3333333333333333in" style="stroke: rgb(200,200,200); fill: none;"/>
	<circle cx="1.3333333333333333in" cy="2.6666666666666665in" r="0.3333333333333333in" style="stroke: rgb(200,200,200); fill: none;"/>
	<circle cx="1.6666666666666665in" cy="2.6666666666666665in" r="0.3333333333333333in" style="stroke: rgb(200,200,200); fill: none;"/>
	<circle cx="2.0in" cy="2.6666666666666665in" r="0.3333333333333333in" style="stroke: rgb(200,200,200); fill: none;"/>
	<circle cx="2.333333333333333in" cy="2.6666666666666665in" r="0.3333333333333333in" style="stroke: rgb(200,200,200); fill: none;"/>
	<circle cx="2.6666666666666665in" cy="2.6666666666666665in" r="0.3333333333333333in" style="stroke: rgb(200,200,200); fill: none;"/>
	<circle cx="3.0in" cy="2.6666666666666665in" r="0.3333333333333333in" style="stroke: rgb(200,200,200); fill: none;"/>
	<circle cx="3.333333333333333in" cy="2.6666666666666665in" r="0.3333333333333333in" style="stroke: rgb(200,200,200); fill: none;"/>
	<circle cx="3.6666666666666665in" cy="2.6666666666666665in" r="0.3333333333333333in" style="stroke: rgb(200,200,200); fill: none;"/>
	<circle cx="4.0in" cy="2.6666666666666665in" r="0.3333333333333333in" style="stroke: rgb(200,200,200); fill: none;"/>
	<circle cx="4.333333333333333in" cy="2.6666666666666665in" r="0.3333333333333333in" style="stroke: rgb(200,200,200); fill: none;"/>
	<circle cx="4.666666666666666in" cy="2.6666666666666665in" r="0.3333333333333333in" style="stroke: rgb(200,200,200); fill: none;"/>
	<circle cx="5.0in" cy="2.6666666666666665in" r="0.3333333333333333in" style="stroke: rgb(200,200,200); fill: none;"/>
	<circle cx="5.333333333333333in" cy="2.6666666666666665in" r="0.3333333333333333in" style="stroke: rgb(200,200,200); fill: none;"/>
	<circle cx="5.666666666666666in" cy="2.6666666666666665in" r="0.3333333333333333in" style="stroke: rgb(200,200,200); fill: none;"/>
	<circle cx="6.0in" cy="2.6666666666666665in" r="0.3333333333333333in" style="stroke: rgb(200,200,200); fill: none;"/>
	<circle cx="6.333333333333333in" cy="2.6666666666666665in" r="0.3333333333333333in" style="stroke: rgb(200,200,200); fill: none;"/>
	<circle cx="6.666666666666666in" cy="2.6666666666666665in" r="0.3333333333333333in" style="stroke: rgb(200,200,200); fill: none;"/>
	<circle cx="7.0in" cy="2.6666666666666665in" r="0.3333333333333333in" style="stroke: rgb(200,200,200); fill: none;"/>
	<circle cx="7.333333333333333in" cy="2.6666666666666665in" r="0.3333333333333333in" style="stroke: rgb(200,200,200); fill: none;"/>
	<circle cx="7.666666666666666in" cy="2.6666666666666665in" r="0.3333333333333333in" style="stroke: rgb(200,200,200); fill: none;"/>
	<circle cx="8.0in" cy="2.6666666666666665in" r="0.3333333333333333in" style="stroke: rgb(200,200,200); fill: none;"/>
	<circle cx="0.3333333333333333in" cy="3.0in" r="0.3333333333333333in" style="stroke: rgb(200,200,200); fill: none;"/>
	<circle cx="0.6666666666666666in" cy="3.0in" r="0.3333333333333333in" style="stroke: rgb(200,200,200); fill: none;"/>
	<circle cx="1.0in" cy="3.0in" r="0.3333333333333333in" style="stroke: rgb(200,200,200); fill: none;"/>
	<circle cx="1.3333333333333333in" cy="3.0in" r="0.3333333333333333in" style="stroke: rgb(200,200,200); fill: none;"/>
	<circle cx="1.6666666666666665in" cy="3.0in" r="0.3333333333333333in" style="stroke: rgb(200,200,200); fill: none;"/>
	<circle cx="2.0in" cy="3.0in" r="0.3333333333333333in" style="stroke: rgb(200,200,200); fill: none;"/>
	<circle cx="2.333333333333333in" cy="3.0in" r="0.3333333333333333in" style="stroke: rgb(200,200,200); fill: none;"/>
	<circle cx="2.6666666666666665in" cy="3.0in" r="0.3333333333333333in" style="stroke: rgb(200,200,200); fill: none;"/>
	<circle cx="3.0in" cy="3.0in" r="0.3333333333333333in" style="stroke: rgb(200,200,200); fill: none;"/>
	<circle cx="3.333333333333333in" cy="3.0in" r="0.3333333333333333in" style="stroke: rgb(200,200,200); fill: none;"/>
	<circle cx="3.6666666666666665in" cy="3.0in" r="0.3333333333333333in" style="stroke: rgb(200,200,200); fill: none;"/>
	<circle cx="4.0in" cy="3.0in" r="0.3333333333333333in" style="stroke: rgb(200,200,200); fill: none;"/>
	<circle cx="4.333333333333333in" cy="3.0in" r="0.3333333333333333in" style="stroke: rgb(200,200,200); fill: none;"/>
	<circle cx="4.666666666666666in" cy="3.0in" r="0.3333333333333333in" style="stroke: rgb(200,200,200); fill: none;"/>
	<circle cx="5.0in" cy="3.0in" r="0.3333333333333333in" style="stroke: rgb(200,200,200); fill: none;"/>
	<circle cx="5.333333333333333in" cy="3.0in" r="0.3333333333333333in" style="stroke: rgb(200,200,200); fill: none;"/>
	<circle cx="5.666666666666666in" cy="3.0in" r="0.3333333333333333in" style="stroke: rgb(200,200,200); fill: none;"/>
	<circle cx="6.0in" cy="3.0in" r="0.3333333333333333in" style="stroke: rgb(200,200,200); fill: none;"/>
	<circle cx="6.333333333333333in" cy="3.0in" r="0.3333333333333333in" style="stroke: rgb(200,200,200); fill: none;"/>
	<circle cx="6.666666666666666in" cy="3.0in" r="0.3333333333333333in" style="stroke: rgb(200,200,200); fill: none;"/>
	<circle cx="7.0in" cy="3.0in" r="0.3333333333333333in" style="stroke: rgb(200,200,200); fill: none;"/>
	<circle cx="7.333333333333333in" cy="3.0in" r="0.3333333333333333in" style="stroke: rgb(200,200,200); fill: none;"/>
	<circle cx="7.666666666666666in" cy="3.0in" r="0.3333333333333333in" style="stroke: rgb(200,200,200); fill: none;"/>
	<circle cx="8.0in" cy="3.0in" r="0.3333333333333333in" style="stroke: rgb(200,200,200); fill: none;"/>
	<circle cx="0.3333333333333333in" cy="3.333333333333333in" r="0.3333333333333333in" style="stroke: rgb(200,200,200); fill: none;"/>
	<circle cx="0.6666666666666666in" cy="3.333333333333333in" r="0.3333333333333333in" style="stroke: rgb(200,200,200); fill: none;"/>
	<circle cx="1.0in" cy="3.333333333333333in" r="0.3333333333333333in" style="stroke: rgb(200,200,200); fill: none;"/>
	<circle cx="1.3333333333333333in" cy="3.333333333333333in" r="0.3333333333333333in" style="stroke: rgb(200,200,200); fill: none;"/>
	<circle cx="1.6666666666666665in" cy="3.333333333333333in" r="0.3333333333333333in" style="stroke: rgb(200,200,200); fill: none;"/>
	<circle cx="2.0in" cy="3.333333333333333in" r="0.3333333333333333in" style="stroke: rgb(200,200,200); fill: none;"/>
	<circle cx="2.333333333333333in" cy="3.333333333333333in" r="0.3333333333333333in" style="stroke: rgb(200,200,200); fill: none;"/>
	<circle cx="2.6666666666666665in" cy="3.333333333333333in" r="0.3333333333333333in" style="stroke: rgb(200,200,200); fill: none;"/>
	<circle cx="3.0in" cy="3.333333333333333in" r="0.3333333333333333in" style="stroke: rgb(200,200,200); fill: none;"/>
	<circle cx="3.333333333333333in" cy="3.333333333333333in" r="0.3333333333333333in" style="stroke: rgb(200,200,200); fill: none;"/>
	<circle cx="3.6666666666666665in" cy="3.333333333333333in" r="0.3333333333333333in" style="stroke: rgb(200,200,200); fill: none;"/>
	<circle cx="4.0in" cy="3.333333333333333in" r="0.3333333333333333in" style="stroke: rgb(200,200,200); fill: none;"/>
	<circle cx="4.333333333333333in" cy="3.333333333333333in" r="0.3333333333333333in" style="stroke: rgb(200,200,200); fill: none;"/>
	<circle cx="4.666666666666666in" cy="3.333333333333333in" r="0.3333333333333333in" style="stroke: rgb(200,200,200); fill: none;"/>
	<circle cx="5.0in" cy="3.333333333333333in" r="0.3333333333333333in" style="stroke: rgb(200,200,200); fill: none;"/>
	<circle cx="5.333333333333333in" cy="3.333333333333333in" r="0.3333333333333333in" style="stroke: rgb(200,200,200); fill: none;"/>
	<circle cx="5.666666666666666in" cy="3.333333333333333in" r="0.3333333333333333in" style="stroke: rgb(200,200,200); fill: none;"/>
	<circle cx="6.0in" cy="3.333333333333333in" r="0.3333333333333333in" style="stroke: rgb(200,200,200); fill: none;"/>
	<circle cx="6.333333333333333in" cy="3.333333333333333in" r="0.3333333333333333in" style="stroke: rgb(200,200,200); fill: none;"/>
	<circle cx="6.666666666666666in" cy="3.333333333333333in" r="0.3333333333333333in" style="stroke: rgb(200,200,200); fill: none;"/>
	<circle cx="7.0in" cy="3.333333333333333in" r="0.3333333333333333in" style="stroke: rgb(200,200,200); fill: none;"/>
	<circle cx="7.333333333333333in" cy="3.333333333333333in" r="0.3333333333333333in" style="stroke: rgb(200,200,200); fill: none;"/>
	<circle cx="7.666666666666666in" cy="3.333333333333333in" r="0.3333333333333333in" style="stroke: rgb(200,200,200); fill: none;"/>
	<circle cx="8.0in" cy="3.333333333333333in" r="0.3333333333333333in" style="stroke: rgb(200,200,200); fill: none;"/>
	<circle cx="0.3333333333333333in" cy="3.6666666666666665in" r="0.3333333333333333in" style="stroke: rgb(200,200,200); fill: none;"/>
	<circle cx="0.6666666666666666in" cy="3.6666666666666665in" r="0.3333333333333333in" style="stroke: rgb(200,200,200); fill: none;"/>
	<circle cx="1.0in" cy="3.6666666666666665in" r="0.3333333333333333in" style="stroke: rgb(200,200,200); fill: none;"/>
	<circle cx="1.3333333333333333in" cy="3.6666666666666665in" r="0.3333333333333333in" style="stroke: rgb(200,200,200); fill: none;"/>
	<circle cx="1.6666666666666665in" cy="3.6666666666666665in" r="0.3333333333333333in" style="stroke: rgb(200,200,200); fill: none;"/>
	<circle cx="2.0in" cy="3.6666666666666665in" r="0.3333333333333333in" style="stroke: rgb(200,200,200); fill: none;"/>
	<circle cx="2.333333333333333in" cy="3.6666666666666665in" r="0.3333333333333333in" style="stroke: rgb(200,200,200); fill: none;"/>
	<circle cx="2.6666666666666665in" cy="3.6666666666666665in" r="0.3333333333333333in" style="stroke: rgb(200,200,200); fill: none;"/>
	<circle cx="3.0in" cy="3.6666666666666665in" r="0.3333333333333333in" style="stroke: rgb(200,200,200); fill: none;"/>
	<circle cx="3.333333333333333in" cy="3.6666666666666665in" r="0.3333333333333333in" style="stroke: rgb(200,200,200); fill: none;"/>
	<circle cx="3.6666666666666665in" cy="3.6666666666666665in" r="0.3333333333333333in" style="stroke: rgb(200,200,200); fill: none;"/>
	<circle cx="4.0in" cy="3.6666666666666665in" r="0.3333333333333333in" style="stroke: rgb(200,200,200); fill: none;"/>
	<circle cx="4.333333333333333in" cy="3.6666666666666665in" r="0.3333333333333333in" style="stroke: rgb(200,200,200); fill: none;"/>
	<circle cx="4.666666666666666in" cy="3.6666666666666665in" r="0.3333333333333333in" style="stroke: rgb(200,200,200); fill: none;"/>
	<circle cx="5.0in" cy="3.6666666666666665in" r="0.3333333333333333in" style="stroke: rgb(200,200,200); fill: none;"/>
	<circle cx="5.333333333333333in" cy="3.6666666666666665in" r="0.3333333333333333in" style="stroke: rgb(200,200,200); fill: none;"/>
	<circle cx="5.666666666666666in" cy="3.6666666666666665in" r="0.3333333333333333in" style="stroke: rgb(200,200,200); fill: none;"/>
	<circle cx="6.0in" cy="3.6666666666666665in" r="0.3333333333333333in" style="stroke: rgb(200,200,200); fill: none;"/>
	<circle cx="6.333333333333333in" cy="3.6666666666666665in" r="0.3333333333333333in" style="stroke: rgb(200,200,200); fill: none;"/>
	<circle cx="6.666666666666666in" cy="3.6666666666666665in" r="0.3333333333333333in" style="stroke: rgb(200,200,200); fill: none;"/>
	<circle cx="7.0in" cy="3.6666666666666665in" r="0.3333333333333333in" style="stroke: rgb(200,200,200); fill: none;"/>
	<circle cx="7.333333333333333in" cy="3.6666666666666665in" r="0.3333333333333333in" style="stroke: rgb(200,200,200); fill: none;"/>
	<circle cx="7.666666666666666in" cy="3.6666666666666665in" r="0.3333333333333333in" style="stroke: rgb(200,200,200); fill: none;"/>
	<circle cx="8.0in" cy="3.6666666666666665in" r="0.3333333333333333in" style="stroke: rgb(200,200,200); fill: none;"/>
	<circle cx="0.3333333333333333in" cy="4.0in" r="0.3333333333333333in" style="stroke: rgb(200,200,200); fill: none;"/>
	<circle cx="0.6666666666666666in" cy="4.0in" r="0.3333333333333333in" style="stroke: rgb(200,200,200); fill: none;"/>
	<circle cx="1.0in" cy="4.0in" r="0.3333333333333333in" style="stroke: rgb(200,200,200); fill: none;"/>
	<circle cx="1.3333333333333333in" cy="4.0in" r="0.3333333333333333in" style="stroke: rgb(200,200,200); fill: none;"/>
	<circle cx="1.6666666666666665in" cy="4.0in" r="0.3333333333333333in" style="stroke: rgb(200,200,200); fill: none;"/>
	<circle cx="2.0in" cy="4.0in" r="0.3333333333333333in" style="stroke: rgb(200,200,200); fill: none;"/>
	<circle cx="2.333333333333333in" cy="4.0in" r="0.3333333333333333in" style="stroke: rgb(200,200,200); fill: none;"/>
	<circle cx="2.6666666666666665in" cy="4.0in" r="0.3333333333333333in" style="stroke: rgb(200,200,200); fill: none;"/>
	<circle cx="3.0in" cy="4.0in" r="0.3333333333333333in" style="stroke: rgb(200,200,200); fill: none;"/>
	<circle cx="3.333333333333333in" cy="4.0in" r="0.3333333333333333in" style="stroke: rgb(200,200,200); fill: none;"/>
	<circle cx="3.6666666666666665in" cy="4.0in" r="0.3333333333333333in" style="stroke: rgb(200,200,200); fill: none;"/>
	<circle cx="4.0in" cy="4.0in" r="0.3333333333333333in" style="stroke: rgb(200,200,200); fill: none;"/>
	<circle cx="4.333333333333333in" cy="4.0in" r="0.3333333333333333in" style="stroke: rgb(200,200,200); fill: none;"/>
	<circle cx="4.666666666666666in" cy="4.0in" r="0.3333333333333333in" style="stroke: rgb(200,200,200); fill: none;"/>
	<circle cx="5.0in" cy="4.0in" r="0.3333333333333333in" style="stroke: rgb(200,200,200); fill: none;"/>
	<circle cx="5.333333333333333in" cy="4.0in" r="0.3333333333333333in" style="stroke: rgb(200,200,200); fill: none;"/>
	<circle cx="5.666666666666666in" cy="4.0in" r="0.3333333333333333in" style="stroke: rgb(200,200,200); fill: none;"/>
	<circle cx="6.0in" cy="4.0in" r="0.3333333333333333in" style="stroke: rgb(200,200,200); fill: none;"/>
	<circle cx="6.333333333333333in" cy="4.0in" r="0.3333333333333333in" style="stroke: rgb(200,200,200); fill: none;"/>
	<circle cx="6.666666666666666in" cy="4.0in" r="0.3333333333333333in" style="stroke: rgb(200,200,200); fill: none;"/>
	<circle cx="7.0in" cy="4.0in" r="0.3333333333333333in" style="stroke: rgb(200,200,200); fill: none;"/>
	<circle cx="7.333333333333333in" cy="4.0in" r="0.3333333333333333in" style="stroke: rgb(200,200,200); fill: none;"/>
	<circle cx="7.666666666666666in" cy="4.0in" r="0.3333333333333333in" style="stroke: rgb(200,200,200); fill: none;"/>
	<circle cx="8.0in" cy="4.0in" r="0.3333333333333333in" style="stroke: rgb(200,200,200); fill: none;"/>
	<circle cx="0.3333333333333333in" cy="4.333333333333333in" r="0.3333333333333333in" style="stroke: rgb(200,200,200); fill: none;"/>
	<circle cx="0.6666666666666666in" cy="4.333333333333333in" r="0.3333333333333333in" style="stroke: rgb(200,200,200); fill: none;"/>
	<circle cx="1.0in" cy="4.333333333333333in" r="0.3333333333333333in" style="stroke: rgb(200,200,200); fill: none;"/>
	<circle cx="1.3333333333333333in" cy="4.333333333333333in" r="0.3333333333333333in" style="stroke: rgb(200,200,200); fill: none;"/>
	<circle cx="1.6666666666666665in" cy="4.333333333333333in" r="0.3333333333333333in" style="stroke: rgb(200,200,200); fill: none;"/>
	<circle cx="2.0in" cy="4.333333333333333in" r="0.3333333333333333in" style="stroke: rgb(200,200,200); fill: none;"/>
	<circle cx="2.333333333333333in" cy="4.333333333333333in" r="0.3333333333333333in" style="stroke: rgb(200,200,200); fill: none;"/>
	<circle cx="2.6666666666666665in" cy="4.333333333333333in" r="0.3333333333333333in" style="stroke: rgb(200,200,200); fill: none;"/>
	<circle cx="3.0in" cy="4.333333333333333in" r="0.3333333333333333in" style="stroke: rgb(200,200,200); fill: none;"/>
	<circle cx="3.333333333333333in" cy="4.333333333333333in" r="0.3333333333333333in" style="stroke: rgb(200,200,200); fill: none;"/>
	<circle cx="3.6666666666666665in" cy="4.333333333333333in" r="0.3333333333333333in" style="stroke: rgb(200,200,200); fill: none;"/>
	<circle cx="4.0in" cy="4.333333333333333in" r="0.3333333333333333in" style="stroke: rgb(200,200,200); fill: none;"/>
	<circle cx="4.333333333333333in" cy="4.333333333333333in" r="0.3333333333333333in" style="stroke: rgb(200,200,200); fill: none;"/>
	<circle cx="4.666666666666666in" cy="4.333333333333333in" r="0.3333333333333333in" style="stroke: rgb(200,200,200); fill: none;"/>
	<circle cx="5.0in" cy="4.333333333333333in" r="0.3333333333333333in" style="stroke: rgb(200,200,200); fill: none;"/>
	<circle cx="5.333333333333333in" cy="4.333333333333333in" r="0.3333333333333333in" style="stroke: rgb(200,200,200); fill: none;"/>
	<circle cx="5.666666666666666in" cy="4.333333333333333in" r="0.3333333333333333in" style="stroke: rgb(200,200,200); fill: none;"/>
	<circle cx="6.0in" cy="4.333333333333333in" r="0.3333333333333333in" style="stroke: rgb(200,200,200); fill: none;"/>
	<circle cx="6.333333333333333in" cy="4.333333333333333in" r="0.3333333333333333in" style="stroke: rgb(200,200,200); fill: none;"/>
	<circle cx="6.666666666666666in" cy="4.333333333333333in" r="0.3333333333333333in" style="stroke: rgb(200,200,200); fill: none;"/>
	<circle cx="7.0in" cy="4.333333333333333in" r="0.3333333333333333in" style="stroke: rgb(200,200,200); fill: none;"/>
	<circle cx="7.333333333333333in" cy="4.333333333333333in" r="0.3333333333333333in" style="stroke: rgb(200,200,200); fill: none;"/>
	<circle cx="7.666666666666666in" cy="4.333333333333333in" r="0.3333333333333333in" style="stroke: rgb(200,200,200); fill: none;"/>
	<circle cx="8.0in" cy="4.333333333333333in" r="0.3333333333333333in" style="stroke: rgb(200,200,200); fill: none;"/>
	<circle cx="0.3333333333333333in" cy="4.666666666666666in" r="0.3333333333333333in" style="stroke: rgb(200,200,200); fill: none;"/>
	<circle cx="0.6666666666666666in" cy="4.666666666666666in" r="0.3333333333333333in" style="stroke: rgb(200,200,200); fill: none;"/>
	<circle cx="1.0in" cy="4.666666666666666in" r="0.3333333333333333in" style="stroke: rgb(200,200,200); fill: none;"/>
	<circle cx="1.3333333333333333in" cy="4.666666666666666in" r="0.3333333333333333in" style="stroke: rgb(200,200,200); fill: none;"/>
	<circle cx="1.6666666666666665in" cy="4.666666666666666in" r="0.3333333333333333in" style="stroke: rgb(200,200,200); fill: none;"/>
	<circle cx="2.0in" cy="4.666666666666666in" r="0.3333333333333333in" style="stroke: rgb(200,200,200); fill: none;"/>
	<circle cx="2.333333333333333in" cy="4.666666666666666in" r="0.3333333333333333in" style="stroke: rgb(200,200,200); fill: none;"/>
	<circle cx="2.6666666666666665in" cy="4.666666666666666in" r="0.3333333333333333in" style="stroke: rgb(200,200,200); fill: none;"/>
	<circle cx="3.0in" cy="4.666666666666666in" r="0.3333333333333333in" style="stroke: rgb(200,200,200); fill: none;"/>
	<circle cx="3.333333333333333in" cy="4.666666666666666in" r="0.3333333333333333in" style="stroke: rgb(200,200,200); fill: none;"/>
	<circle cx="3.6666666666666665in" cy="4.666666666666666in" r="0.3333333333333333in" style="stroke: rgb(200,200,200); fill: none;"/>
	<circle cx="4.0in" cy="4.666666666666666in" r="0.3333333333333333in" style="stroke: rgb(200,200,200); fill: none;"/>
	<circle cx="4.333333333333333in" cy="4.666666666666666in" r="0.3333333333333333in" style="stroke: rgb(200,200,200); fill: none;"/>
	<circle cx="4.666666666666666in" cy="4.666666666666666in" r="0.3333333333333333in" style="stroke: rgb(200,200,200); fill: none;"/>
	<circle cx="5.0in" cy="4.666666666666666in" r="0.3333333333333333in" style="stroke: rgb(200,200,200); fill: none;"/>
	<circle cx="5.333333333333333in" cy="4.666666666666666in" r="0.3333333333333333in" style="stroke: rgb(200,200,200); fill: none;"/>
	<circle cx="5.666666666666666in" cy="4.666666666666666in" r="0.3333333333333333in" style="stroke: rgb(200,200,200); fill: none;"/>
	<circle cx="6.0in" cy="4.666666666666666in" r="0.3333333333333333in" style="stroke: rgb(200,200,200); fill: none;"/>
	<circle cx="6.333333333333333in" cy="4.666666666666666in" r="0.3333333333333333in" style="stroke: rgb(200,200,200); fill: none;"/>
	<circle cx="6.666666666666666in" cy="4.666666666666666in" r="0.3333333333333333in" style="stroke: rgb(200,200,200); fill: none;"/>
	<circle cx="7.0in" cy="4.666666666666666in" r="0.3333333333333333in" style="stroke: rgb(200,200,200); fill: none;"/>
	<circle cx="7.333333333333333in" cy="4.666666666666666in" r="0.3333333333333333in" style="stroke: rgb(200,200,200); fill: none;"/>
	<circle cx="7.666666666666666in" cy="4.666666666666666in" r="0.3333333333333333in" style="stroke: rgb(200,200,200); fill: none;"/>
	<circle cx="8.0in" cy="4.666666666666666in" r="0.3333333333333333in" style="stroke: rgb(200,200,200); fill: none;"/>
	<circle cx="0.3333333333333333in" cy="5.0in" r="0.3333333333333333in" style="stroke: rgb(200,200,200); fill: none;"/>
	<circle cx="0.6666666666666666in" cy="5.0in" r="0.3333333333333333in" style="stroke: rgb(200,200,200); fill: none;"/>
	<circle cx="1.0in" cy="5.0in" r="0.3333333333333333in" style="stroke: rgb(200,200,200); fill: none;"/>
	<circle cx="1.3333333333333333in" cy="5.0in" r="0.3333333333333333in" style="stroke: rgb(200,200,200); fill: none;"/>
	<circle cx="1.6666666666666665in" cy="5.0in" r="0.3333333333333333in" style="stroke: rgb(200,200,200); fill: none;"/>
	<circle cx="2.0in" cy="5.0in" r="0.3333333333333333in" style="stroke: rgb(200,200,200); fill: none;"/>
	<circle cx="2.333333333333333in" cy="5.0in" r="0.3333333333333333in" style="stroke: rgb(200,200,200); fill: none;"/>
	<circle cx="2.6666666666666665in" cy="5.0in" r="0.3333333333333333in" style="stroke: rgb(200,200,200); fill: none;"/>
	<circle cx="3.0in" cy="5.0in" r="0.3333333333333333in" style="stroke: rgb(200,200,200); fill: none;"/>
	<circle cx="3.333333333333333in" cy="5.0in" r="0.3333333333333333in" style="stroke: rgb(200,200,200); fill: none;"/>
	<circle cx="3.6666666666666665in" cy="5.0in" r="0.3333333333333333in" style="stroke: rgb(200,200,200); fill: none;"/>
	<circle cx="4.0in" cy="5.0in" r="0.3333333333333333in" style="stroke: rgb(200,200,200); fill: none;"/>
	<circle cx="4.333333333333333in" cy="5.0in" r="0.3333333333333333in" style="stroke: rgb(200,200,200); fill: none;"/>
	<circle cx="4.666666666666666in" cy="5.0in" r="0.3333333333333333in" style="stroke: rgb(200,200,200); fill: none;"/>
	<circle cx="5.0in" cy="5.0in" r="0.3333333333333333in" style="stroke: rgb(200,200,200); fill: none;"/>
	<circle cx="5.333333333333333in" cy="5.0in" r="0.3333333333333333in" style="stroke: rgb(200,200,200); fill: none;"/>
	<circle cx="5.666666666666666in" cy="5.0in" r="0.3333333333333333in" style="stroke: rgb(200,200,200); fill: none;"/>
	<circle cx="6.0in" cy="5.0in" r="0.3333333333333333in" style="stroke: rgb(200,200,200); fill: none;"/>
	<circle cx="6.333333333333333in" cy="5.0in" r="0.3333333333333333in" style="stroke: rgb(200,200,200); fill: none;"/>
	<circle cx="6.666666666666666in" cy="5.0in" r="0.3333333333333333in" style="stroke: rgb(200,200,200); fill: none;"/>
	<circle cx="7.0in" cy="5.0in" r="0.3333333333333333in" style="stroke: rgb(200,200,200); fill: none;"/>
	<circle cx="7.333333333333333in" cy="5.0in" r="0.3333333333333333in" style="stroke: rgb(200,200,200); fill: none;"/>
	<circle cx="7.666666666666666in" cy="5.0in" r="0.3333333333333333in" style="stroke: rgb(200,200,200); fill: none;"/>
	<circle cx="8.0in" cy="5.0in" r="0.3333333333333333in" style="stroke: rgb(200,200,200); fill: none;"/>
	<circle cx="0.3333333333333333in" cy="5.333333333333333in" r="0.3333333333333333in" style="stroke: rgb(200,200,200); fill: none;"/>
	<circle cx="0.6666666666666666in" cy="5.333333333333333in" r="0.3333333333333333in" style="stroke: rgb(200,200,200); fill: none;"/>
	<circle cx="1.0in" cy="5.333333333333333in" r="0.3333333333333333in" style="stroke: rgb(200,200,200); fill: none;"/>
	<circle cx="1.3333333333333333in" cy="5.333333333333333in" r="0.3333333333333333in" style="stroke: rgb(200,200,200); fill: none;"/>
	<circle cx="1.6666666666666665in" cy="5.333333333333333in" r="0.3333333333333333in" style="stroke: rgb(200,200,200); fill: none;"/>
	<circle cx="2.0in" cy="5.333333333333333in" r="0.3333333333333333in" style="stroke: rgb(200,200,200); fill: none;"/>
	<circle cx="2.333333333333333in" cy="5.333333333333333in" r="0.3333333333333333in" style="stroke: rgb(200,200,200); fill: none;"/>
	<circle cx="2.6666666666666665in" cy="5.333333333333333in" r="0.3333333333333333in" style="stroke: rgb(200,200,200); fill: none;"/>
	<circle cx="3.0in" cy="5.333333333333333in" r="0.3333333333333333in" style="stroke: rgb(200,200,200); fill: none;"/>
	<circle cx="3.333333333333333in" cy="5.333333333333333in" r="0.3333333333333333in" style="stroke: rgb(200,200,200); fill: none;"/>
	<circle cx="3.6666666666666665in" cy="5.333333333333333in" r="0.3333333333333333in" style="stroke: rgb(200,200,200); fill: none;"/>
	<circle cx="4.0in" cy="5.333333333333333in" r="0.3333333333333333in" style="stroke: rgb(200,200,200); fill: none;"/>
	<circle cx="4.333333333333333in" cy="5.333333333333333in" r="0.3333333333333333in" style="stroke: rgb(200,200,200); fill: none;"/>
	<circle cx="4.666666666666666in" cy="5.333333333333333in" r="0.3333333333333333in" style="stroke: rgb(200,200,200); fill: none;"/>
	<circle cx="5.0in" cy="5.333333333333333in" r="0.3333333333333333in" style="stroke: rgb(200,200,200); fill: none;"/>
	<circle cx="5.333333333333333in" cy="5.333333333333333in" r="0.3333333333333333in" style="stroke: rgb(200,200,200); fill: none;"/>
	<circle cx="5.666666666666666in" cy="5.333333333333333in" r="0.3333333333333333in" style="stroke: rgb(200,200,200); fill: none;"/>
	<circle cx="6.0in" cy="5.333333333333333in" r="0.3333333333333333in" style="stroke: rgb(200,200,200); fill: none;"/>
	<circle cx="6.333333333333333in" cy="5.333333333333333in" r="0.3333333333333333in" style="stroke: rgb(200,200,200); fill: none;"/>
	<circle cx="6.666666666666666in" cy="5.333333333333333in" r="0.3333333333333333in" style="stroke: rgb(200,200,200); fill: none;"/>
	<circle cx="7.0in" cy="5.333333333333333in" r="0.3333333333333333in" style="stroke: rgb(200,200,200); fill: none;"/>
	<circle cx="7.333333333333333in" cy="5.333333333333333in" r="0.3333333333333333in" style="stroke: rgb(200,200,200); fill: none;"/>
	<circle cx="7.666666666666666in" cy="5.333333333333333in" r="0.3333333333333333in" style="stroke: rgb(200,200,200); fill: none;"/>
	<circle cx="8.0in" cy="5.333333333333333in" r="0.3333333333333333in" style="stroke: rgb(200,200,200); fill: none;"/>
	<circle cx="0.3333333333333333in" cy="5.666666666666666in" r="0.3333333333333333in" style="stroke: rgb(200,200,200); fill: none;"/>
	<circle cx="0.6666666666666666in" cy="5.666666666666666in" r="0.3333333333333333in" style="stroke: rgb(200,200,200); fill: none;"/>
	<circle cx="1.0in" cy="5.666666666666666in" r="0.3333333333333333in" style="stroke: rgb(200,200,200); fill: none;"/>
	<circle cx="1.3333333333333333in" cy="5.666666666666666in" r="0.3333333333333333in" style="stroke: rgb(200,200,200); fill: none;"/>
	<circle cx="1.6666666666666665in" cy="5.666666666666666in" r="0.3333333333333333in" style="stroke: rgb(200,200,200); fill: none;"/>
	<circle cx="2.0in" cy="5.666666666666666in" r="0.3333333333333333in" style="stroke: rgb(200,200,200); fill: none;"/>
	<circle cx="2.333333333333333in" cy="5.666666666666666in" r="0.3333333333333333in" style="stroke: rgb(200,200,200); fill: none;"/>
	<circle cx="2.6666666666666665in" cy="5.666666666666666in" r="0.3333333333333333in" style="stroke: rgb(200,200,200); fill: none;"/>
	<circle cx="3.0in" cy="5.666666666666666in" r="0.3333333333333333in" style="stroke: rgb(200,200,200); fill: none;"/>
	<circle cx="3.333333333333333in" cy="5.666666666666666in" r="0.3333333333333333in" style="stroke: rgb(200,200,200); fill: none;"/>
	<circle cx="3.6666666666666665in" cy="5.666666666666666in" r="0.3333333333333333in" style="stroke: rgb(200,200,200); fill: none;"/>
	<circle cx="4.0in" cy="5.666666666666666in" r="0.3333333333333333in" style="stroke: rgb(200,200,200); fill: none;"/>
	<circle cx="4.333333333333333in" cy="5.666666666666666in" r="0.3333333333333333in" style="stroke: rgb(200,200,200); fill: none;"/>
	<circle cx="4.666666666666666in" cy="5.666666666666666in" r="0.3333333333333333in" style="stroke: rgb(200,200,200); fill: none;"/>
	<circle cx="5.0in" cy="5.666666666666666in" r="0.3333333333333333in" style="stroke: rgb(200,200,200); fill: none;"/>
	<circle cx="5.333333333333333in" cy="5.666666666666666in" r="0.3333333333333333in" style="stroke: rgb(200,200,200); fill: none;"/>
	<circle cx="5.666666666666666in" cy="5.666666666666666in" r="0.3333333333333333in" style="stroke: rgb(200,200,200); fill: none;"/>
	<circle cx="6.0in" cy="5.666666666666666in" r="0.3333333333333333in" style="stroke: rgb(200,200,200); fill: none;"/>
	<circle cx="6.333333333333333in" cy="5.666666666666666in" r="0.3333333333333333in" style="stroke: rgb(200,200,200); fill: none;"/>
	<circle cx="6.666666666666666in" cy="5.666666666666666in" r="0.3333333333333333in" style="stroke: rgb(200,200,200); fill: none;"/>
	<circle cx="7.0in" cy="5.666666666666666in" r="0.3333333333333333in" style="stroke: rgb(200,200,200); fill: none;"/>
	<circle cx="7.333333333333333in" cy="5.666666666666666in" r="0.3333333333333333in" style="stroke: rgb(200,200,200); fill: none;"/>
	<circle cx="7.666666666666666in" cy="5.666666666666666in" r="0.3333333333333333in" style="stroke: rgb(200,200,200); fill: none;"/>
	<circle cx="8.0in" cy="5.666666666666666in" r="0.3333333333333333in" style="stroke: rgb(200,200,200); fill: none;"/>
	<circle cx="0.3333333333333333in" cy="6.0in" r="0.3333333333333333in" style="stroke: rgb(200,200,200); fill: none;"/>
	<circle cx="0.6666666666666666in" cy="6.0in" r="0.3333333333333333in" style="stroke: rgb(200,200,200); fill: none;"/>
	<circle cx="1.0in" cy="6.0in" r="0.3333333333333333in" style="stroke: rgb(200,200,200); fill: none;"/>
	<circle cx="1.3333333333333333in" cy="6.0in" r="0.3333333333333333in" style="stroke: rgb(200,200,200); fill: none;"/>
	<circle cx="1.6666666666666665in" cy="6.0in" r="0.3333333333333333in" style="stroke: rgb(200,200,200); fill: none;"/>
	<circle cx="2.0in" cy="6.0in" r="0.3333333333333333in" style="stroke: rgb(200,200,200); fill: none;"/>
	<circle cx="2.333333333333333in" cy="6.0in" r="0.3333333333333333in" style="stroke: rgb(200,200,200); fill: none;"/>
	<circle cx="2.6666666666666665in" cy="6.0in" r="0.3333333333333333in" style="stroke: rgb(200,200,200); fill: none;"/>
	<circle cx="3.0in" cy="6.0in" r="0.3333333333333333in" style="stroke: rgb(200,200,200); fill: none;"/>
	<circle cx="3.333333333333333in" cy="6.0in" r="0.3333333333333333in" style="stroke: rgb(200,200,200); fill: none;"/>
	<circle cx="3.6666666666666665in" cy="6.0in" r="0.3333333333333333in" style="stroke: rgb(200,200,200); fill: none;"/>
	<circle cx="4.0in" cy="6.0in" r="0.3333333333333333in" style="stroke: rgb(200,200,200); fill: none;"/>
	<circle cx="4.333333333333333in" cy="6.0in" r="0.3333333333333333in" style="stroke: rgb(200,200,200); fill: none;"/>
	<circle cx="4.666666666666666in" cy="6.0in" r="0.3333333333333333in" style="stroke: rgb(200,200,200); fill: none;"/>
	<circle cx="5.0in" cy="6.0in" r="0.3333333333333333in" style="stroke: rgb(200,200,200); fill: none;"/>
	<circle cx="5.333333333333333in" cy="6.0in" r="0.3333333333333333in" style="stroke: rgb(200,200,200); fill: none;"/>
	<circle cx="5.666666666666666in" cy="6.0in" r="0.3333333333333333in" style="stroke: rgb(200,200,200); fill: none;"/>
	<circle cx="6.0in" cy="6.0in" r="0.3333333333333333in" style="stroke: rgb(200,200,200); fill: none;"/>
	<circle cx="6.333333333333333in" cy="6.0in" r="0.3333333333333333in" style="stroke: rgb(200,200,200); fill: none;"/>
	<circle cx="6.666666666666666in" cy="6.0in" r="0.3333333333333333in" style="stroke: rgb(200,200,200); fill: none;"/>
	<circle cx="7.0in" cy="6.0in" r="0.3333333333333333in" style="stroke: rgb(200,200,200); fill: none;"/>
	<circle cx="7.333333333333333in" cy="6.0in" r="0.3333333333333333in" style="stroke: rgb(200,200,200); fill: none;"/>
	<circle cx="7.666666666666666in" cy="6.0in" r="0.3333333333333333in" style="stroke: rgb(200,200,200); fill: none;"/>
	<circle cx="8.0in" cy="6.0in" r="0.3333333333333333in" style="stroke: rgb(200,200,200); fill: none;"/>
	<circle cx="0.3333333333333333in" cy="6.333333333333333in" r="0.3333333333333333in" style="stroke: rgb(200,200,200); fill: none;"/>
	<circle cx="0.6666666666666666in" cy="6.333333333333333in" r="0.3333333333333333in" style="stroke: rgb(200,200,200); fill: none;"/>
	<circle cx="1.0in" cy="6.333333333333333in" r="0.3333333333333333in" style="stroke: rgb(200,200,200); fill: none;"/>
	<circle cx="1.3333333333333333in" cy="6.333333333333333in" r="0.3333333333333333in" style="stroke: rgb(200,200,200); fill: none;"/>
	<circle cx="1.6666666666666665in" cy="6.333333333333333in" r="0.3333333333333333in" style="stroke: rgb(200,200,200); fill: none;"/>
	<circle cx="2.0in" cy="6.333333333333333in" r="0.3333333333333333in" style="stroke: rgb(200,200,200); fill: none;"/>
	<circle cx="2.333333333333333in" cy="6.333333333333333in" r="0.3333333333333333in" style="stroke: rgb(200,200,200); fill: none;"/>
	<circle cx="2.6666666666666665in" cy="6.333333333333333in" r="0.3333333333333333in" style="stroke: rgb(200,200,200); fill: none;"/>
	<circle cx="3.0in" cy="6.333333333333333in" r="0.3333333333333333in" style="stroke: rgb(200,200,200); fill: none;"/>
	<circle cx="3.333333333333333in" cy="6.333333333333333in" r="0.3333333333333333in" style="stroke: rgb(200,200,200); fill: none;"/>
	<circle cx="3.6666666666666665in" cy="6.333333333333333in" r="0.3333333333333333in" style="stroke: rgb(200,200,200); fill: none;"/>
	<circle cx="4.0in" cy="6.333333333333333in" r="0.3333333333333333in" style="stroke: rgb(200,200,200); fill: none;"/>
	<circle cx="4.333333333333333in" cy="6.333333333333333in" r="0.3333333333333333in" style="stroke: rgb(200,200,200); fill: none;"/>
	<circle cx="4.666666666666666in" cy="6.333333333333333in" r="0.3333333333333333in" style="stroke: rgb(200,200,200); fill: none;"/>
	<circle cx="5.0in" cy="6.333333333333333in" r="0.3333333333333333in" style="stroke: rgb(200,200,200); fill: none;"/>
	<circle cx="5.333333333333333in" cy="6.333333333333333in" r="0.3333333333333333in" style="stroke: rgb(200,200,200); fill: none;"/>
	<circle cx="5.666666666666666in" cy="6.333333333333333in" r="0.3333333333333333in" style="stroke: rgb(200,200,200); fill: none;"/>
	<circle cx="6.0in" cy="6.333333333333333in" r="0.3333333333333333in" style="stroke: rgb(200,200,200); fill: none;"/>
	<circle cx="6.333333333333333in" cy="6.333333333333333in" r="0.3333333333333333in" style="stroke: rgb(200,200,200); fill: none;"/>
	<circle cx="6.666666666666666in" cy="6.333333333333333in" r="0.3333333333333333in" style="stroke: rgb(200,200,200); fill: none;"/>
	<circle cx="7.0in" cy="6.333333333333333in" r="0.3333333333333333in" style="stroke: rgb(200,200,200); fill: none;"/>
	<circle cx="7.333333333333333in" cy="6.333333333333333in" r="0.3333333333333333in" style="stroke: rgb(200,200,200); fill: none;"/>
	<circle cx="7.666666666666666in" cy="6.333333333333333in" r="0.3333333333333333in" style="stroke: rgb(200,200,200); fill: none;"/>
	<circle cx="8.0in" cy="6.333333333333333in" r="0.3333333333333333in" style="stroke: rgb(200,200,200); fill: none;"/>
	<circle cx="0.3333333333333333in" cy="6.666666666666666in" r="0.3333333333333333in" style="stroke: rgb(200,200,200); fill: none;"/>
	<circle cx="0.6666666666666666in" cy="6.666666666666666in" r="0.3333333333333333in" style="stroke: rgb(200,200,200); fill: none;"/>
	<circle cx="1.0in" cy="6.666666666666666in" r="0.3333333333333333in" style="stroke: rgb(200,200,200); fill: none;"/>
	<circle cx="1.3333333333333333in" cy="6.666666666666666in" r="0.3333333333333333in" style="stroke: rgb(200,200,200); fill: none;"/>
	<circle cx="1.6666666666666665in" cy="6.666666666666666in" r="0.3333333333333333in" style="stroke: rgb(200,200,200); fill: none;"/>
	<circle cx="2.0in" cy="6.666666666666666in" r="0.3333333333333333in" style="stroke: rgb(200,200,200); fill: none;"/>
	<circle cx="2.333333333333333in" cy="6.666666666666666in" r="0.3333333333333333in" style="stroke: rgb(200,200,200); fill: none;"/>
	<circle cx="2.6666666666666665in" cy="6.666666666666666in" r="0.3333333333333333in" style="stroke: rgb(200,200,200); fill: none;"/>
	<circle cx="3.0in" cy="6.666666666666666in" r="0.3333333333333333in" style="stroke: rgb(200,200,200); fill: none;"/>
	<circle cx="3.333333333333333in" cy="6.666666666666666in" r="0.3333333333333333in" style="stroke: rgb(200,200,200); fill: none;"/>
	<circle cx="3.6666666666666665in" cy="6.666666666666666in" r="0.3333333333333333in" style="stroke: rgb(200,200,200); fill: none;"/>
	<circle cx="4.0in" cy="6.666666666666666in" r="0.3333333333333333in" style="stroke: rgb(200,200,200); fill: none;"/>
	<circle cx="4.333333333333333in" cy="6.666666666666666in" r="0.3333333333333333in" style="stroke: rgb(200,200,200); fill: none;"/>
	<circle cx="4.666666666666666in" cy="6.666666666666666in" r="0.3333333333333333in" style="stroke: rgb(200,200,200); fill: none;"/>
	<circle cx="5.0in" cy="6.666666666666666in" r="0.3333333333333333in" style="stroke: rgb(200,200,200); fill: none;"/>
	<circle cx="5.333333333333333in" cy="6.666666666666666in" r="0.3333333333333333in" style="stroke: rgb(200,200,200); fill: none;"/>
	<circle cx="5.666666666666666in" cy="6.666666666666666in" r="0.3333333333333333in" style="stroke: rgb(200,200,200); fill: none;"/>
	<circle cx="6.0in" cy="6.666666666666666in" r="0.3333333333333333in" style="stroke: rgb(200,200,200); fill: none;"/>
	<circle cx="6.333333333333333in" cy="6.666666666666666in" r="0.3333333333333333in" style="stroke: rgb(200,200,200); fill: none;"/>
	<circle cx="6.666666666666666in" cy="6.666666666666666in" r="0.3333333333333333in" style="stroke: rgb(200,200,200); fill: none;"/>
	<circle cx="7.0in" cy="6.666666666666666in" r="0.3333333333333333in" style="stroke: rgb(200,200,200); fill: none;"/>
	<circle cx="7.333333333333333in" cy="6.666666666666666in" r="0.3333333333333333in" style="stroke: rgb(200,200,200); fill: none;"/>
	<circle cx="7.666666666666666in" cy="6.666666666666666in" r="0.3333333333333333in" style="stroke: rgb(200,200,200); fill: none;"/>
	<circle cx="8.0in" cy="6.666666666666666in" r="0.3333333333333333in" style="stroke: rgb(200,200,200); fill: none;"/>
	<circle cx="0.3333333333333333in" cy="7.0in" r="0.3333333333333333in" style="stroke: rgb(200,200,200); fill: none;"/>
	<circle cx="0.6666666666666666in" cy="7.0in" r="0.3333333333333333in" style="stroke: rgb(200,200,200); fill: none;"/>
	<circle cx="1.0in" cy="7.0in" r="0.3333333333333333in" style="stroke: rgb(200,200,200); fill: none;"/>
	<circle cx="1.3333333333333333in" cy="7.0in" r="0.3333333333333333in" style="stroke: rgb(200,200,200); fill: none;"/>
	<circle cx="1.6666666666666665in" cy="7.0in" r="0.3333333333333333in" style="stroke: rgb(200,200,200); fill: none;"/>
	<circle cx="2.0in" cy="7.0in" r="0.3333333333333333in" style="stroke: rgb(200,200,200); fill: none;"/>
	<circle cx="2.333333333333333in" cy="7.0in" r="0.3333333333333333in" style="stroke: rgb(200,200,200); fill: none;"/>
	<circle cx="2.6666666666666665in" cy="7.0in" r="0.3333333333333333in" style="stroke: rgb(200,200,200); fill: none;"/>
	<circle cx="3.0in" cy="7.0in" r="0.3333333333333333in" style="stroke: rgb(200,200,200); fill: none;"/>
	<circle cx="3.333333333333333in" cy="7.0in" r="0.3333333333333333in" style="stroke: rgb(200,200,200); fill: none;"/>
	<circle cx="3.6666666666666665in" cy="7.0in" r="0.3333333333333333in" style="stroke: rgb(200,200,200); fill: none;"/>
	<circle cx="4.0in" cy="7.0in" r="0.3333333333333333in" style="stroke: rgb(200,200,200); fill: none;"/>
	<circle cx="4.333333333333333in" cy="7.0in" r="0.3333333333333333in" style="stroke: rgb(200,200,200); fill: none;"/>
	<circle cx="4.666666666666666in" cy="7.0in" r="0.3333333333333333in" style="stroke: rgb(200,200,200); fill: none;"/>
	<circle cx="5.0in" cy="7.0in" r="0.3333333333333333in" style="stroke: rgb(200,200,200); fill: none;"/>
	<circle cx="5.333333333333333in" cy="7.0in" r="0.3333333333333333in" style="stroke: rgb(200,200,200); fill: none;"/>
	<circle cx="5.666666666666666in" cy="7.0in" r="0.3333333333333333in" style="stroke: rgb(200,200,200); fill: none;"/>
	<circle cx="6.0in" cy="7.0in" r="0.3333333333333333in" style="stroke: rgb(200,200,200); fill: none;"/>
	<circle cx="6.333333333333333in" cy="7.0in" r="0.3333333333333333in" style="stroke: rgb(200,200,200); fill: none;"/>
	<circle cx="6.666666666666666in" cy="7.0in" r="0.3333333333333333in" style="stroke: rgb(200,200,200); fill: none;"/>
	<circle cx="7.0in" cy="7.0in" r="0.3333333333333333in" style="stroke: rgb(200,200,200); fill: none;"/>
	<circle cx="7.333333333333333in" cy="7.0in" r="0.3333333333333333in" style="stroke: rgb(200,200,200); fill: none;"/>
	<circle cx="7.666666666666666in" cy="7.0in" r="0.3333333333333333in" style="stroke: rgb(200,200,200); fill: none;"/>
	<circle cx="8.0in" cy="7.0in" r="0.3333333333333333in" style="stroke: rgb(200,200,200); fill: none;"/>
	<circle cx="0.3333333333333333in" cy="7.333333333333333in" r="0.3333333333333333in" style="stroke: rgb(200,200,200); fill: none;"/>
	<circle cx="0.6666666666666666in" cy="7.333333333333333in" r="0.3333333333333333in" style="stroke: rgb(200,200,200); fill: none;"/>
	<circle cx="1.0in" cy="7.333333333333333in" r="0.3333333333333333in" style="stroke: rgb(200,200,200); fill: none;"/>
	<circle cx="1.3333333333333333in" cy="7.333333333333333in" r="0.3333333333333333in" style="stroke: rgb(200,200,200); fill: none;"/>
	<circle cx="1.6666666666666665in" cy="7.333333333333333in" r="0.3333333333333333in" style="stroke: rgb(200,200,200); fill: none;"/>
	<circle cx="2.0in" cy="7.333333333333333in" r="0.3333333333333333in" style="stroke: rgb(200,200,200); fill: none;"/>
	<circle cx="2.333333333333333in" cy="7.333333333333333in" r="0.3333333333333333in" style="stroke: rgb(200,200,200); fill: none;"/>
	<circle cx="2.6666666666666665in" cy="7.333333333333333in" r="0.3333333333333333in" style="stroke: rgb(200,200,200); fill: none;"/>
	<circle cx="3.0in" cy="7.333333333333333in" r="0.3333333333333333in" style="stroke: rgb(200,200,200); fill: none;"/>
	<circle cx="3.333333333333333in" cy="7.333333333333333in" r="0.3333333333333333in" style="stroke: rgb(200,200,200); fill: none;"/>
	<circle cx="3.6666666666666665in" cy="7.333333333333333in" r="0.3333333333333333in" style="stroke: rgb(200,200,200); fill: none;"/>
	<circle cx="4.0in" cy="7.333333333333333in" r="0.3333333333333333in" style="stroke: rgb(200,200,200); fill: none;"/>
	<circle cx="4.333333333333333in" cy="7.333333333333333in" r="0.3333333333333333in" style="stroke: rgb(200,200,200); fill: none;"/>
	<circle cx="4.666666666666666in" cy="7.333333333333333in" r="0.3333333333333333in" style="stroke: rgb(200,200,200); fill: none;"/>
	<circle cx="5.0in" cy="7.333333333333333in" r="0.3333333333333333in" style="stroke: rgb(200,200,200); fill: none;"/>
	<circle cx="5.333333333333333in" cy="7.333333333333333in" r="0.3333333333333333in" style="stroke: rgb(200,200,200); fill: none;"/>
	<circle cx="5.666666666666666in" cy="7.333333333333333in" r="0.3333333333333333in" style="stroke: rgb(200,200,200); fill: none;"/>
	<circle cx="6.0in" cy="7.333333333333333in" r="0.3333333333333333in" style="stroke: rgb(200,200,200); fill: none;"/>
	<circle cx="6.333333333333333in" cy="7.333333333333333in" r="0.3333333333333333in" style="stroke: rgb(200,200,200); fill: none;"/>
	<circle cx="6.666666666666666in" cy="7.333333333333333in" r="0.3333333333333333in" style="stroke: rgb(200,200,200); fill: none;"/>
	<circle cx="7.0in" cy="7.333333333333333in" r="0.3333333333333333in" style="stroke: rgb(200,200,200); fill: none;"/>
	<circle cx="7.333333333333333in" cy="7.333333333333333in" r="0.3333333333333333in" style="stroke: rgb(200,200,200); fill: none;"/>
	<circle cx="7.666666666666666in" cy="7.333333333333333in" r="0.3333333333333333in" style="stroke: rgb(200,200,200); fill: none;"/>
	<circle cx="8.0in" cy="7.333333333333333in" r="0.3333333333333333in" style="stroke: rgb(200,200,200); fill: none;"/>
	<circle cx="0.3333333333333333in" cy="7.666666666666666in" r="0.3333333333333333in" style="stroke: rgb(200,200,200); fill: none;"/>
	<circle cx="0.6666666666666666in" cy="7.666666666666666in" r="0.3333333333333333in" style="stroke: rgb(200,200,200); fill: none;"/>
	<circle cx="1.0in" cy="7.666666666666666in" r="0.3333333333333333in" style="stroke: rgb(200,200,200); fill: none;"/>
	<circle cx="1.3333333333333333in" cy="7.666666666666666in" r="0.3333333333333333in" style="stroke: rgb(200,200,200); fill: none;"/>
	<circle cx="1.6666666666666665in" cy="7.666666666666666in" r="0.3333333333333333in" style="stroke: rgb(200,200,200); fill: none;"/>
	<circle cx="2.0in" cy="7.666666666666666in" r="0.3333333333333333in" style="stroke: rgb(200,200,200); fill: none;"/>
	<circle cx="2.333333333333333in" cy="7.666666666666666in" r="0.3333333333333333in" style="stroke: rgb(200,200,200); fill: none;"/>
	<circle cx="2.6666666666666665in" cy="7.666666666666666in" r="0.3333333333333333in" style="stroke: rgb(200,200,200); fill: none;"/>
	<circle cx="3.0in" cy="7.666666666666666in" r="0.3333333333333333in" style="stroke: rgb(200,200,200); fill: none;"/>
	<circle cx="3.333333333333333in" cy="7.666666666666666in" r="0.3333333333333333in" style="stroke: rgb(200,200,200); fill: none;"/>
	<circle cx="3.6666666666666665in" cy="7.666666666666666in" r="0.3333333333333333in" style="stroke: rgb(200,200,200); fill: none;"/>
	<circle cx="4.0in" cy="7.666666666666666in" r="0.3333333333333333in" style="stroke: rgb(200,200,200); fill: none;"/>
	<circle cx="4.333333333333333in" cy="7.666666666666666in" r="0.3333333333333333in" style="stroke: rgb(200,200,200); fill: none;"/>
	<circle cx="4.666666666666666in" cy="7.666666666666666in" r="0.3333333333333333in" style="stroke: rgb(200,200,200); fill: none;"/>
	<circle cx="5.0in" cy="7.666666666666666in" r="0.3333333333333333in" style="stroke: rgb(200,200,200); fill: none;"/>
	<circle cx="5.333333333333333in" cy="7.666666666666666in" r="0.3333333333333333in" style="stroke: rgb(200,200,200); fill: none;"/>
	<circle cx="5.666666666666666in" cy="7.666666666666666in" r="0.3333333333333333in" style="stroke: rgb(200,200,200); fill: none;"/>
	<circle cx="6.0in" cy="7.666666666666666in" r="0.3333333333333333in" style="stroke: rgb(200,200,200); fill: none;"/>
	<circle cx="6.333333333333333in" cy="7.666666666666666in" r="0.3333333333333333in" style="stroke: rgb(200,200,200); fill: none;"/>
	<circle cx="6.666666666666666in" cy="7.666666666666666in" r="0.3333333333333333in" style="stroke: rgb(200,200,200); fill: none;"/>
	<circle cx="7.0in" cy="7.666666666666666in" r="0.3333333333333333in" style="stroke: rgb(200,200,200); fill: none;"/>
	<circle cx="7.333333333333333in" cy="7.666666666666666in" r="0.3333333333333333in" style="stroke: rgb(200,200,200); fill: none;"/>
	<circle cx="7.666666666666666in" cy="7.666666666666666in" r="0.3333333333333333in" style="stroke: rgb(200,200,200); fill: none;"/>
	<circle cx="8.0in" cy="7.666666666666666in" r="0.3333333333333333in" style="stroke: rgb(200,200,200); fill: none;"/>
	<circle cx="0.3333333333333333in" cy="8.0in" r="0.3333333333333333in" style="stroke: rgb(200,200,200); fill: none;"/>
	<circle cx="0.6666666666666666in" cy="8.0in" r="0.3333333333333333in" style="stroke: rgb(200,200,200); fill: none;"/>
	<circle cx="1.0in" cy="8.0in" r="0.3333333333333333in" style="stroke: rgb(200,200,200); fill: none;"/>
	<circle cx="1.3333333333333333in" cy="8.0in" r="0.3333333333333333in" style="stroke: rgb(200,200,200); fill: none;"/>
	<circle cx="1.6666666666666665in" cy="8.0in" r="0.3333333333333333in" style="stroke: rgb(200,200,200); fill: none;"/>
	<circle cx="2.0in" cy="8.0in" r="0.3333333333333333in" style="stroke: rgb(200,200,200); fill: none;"/>
	<circle cx="2.333333333333333in" cy="8.0in" r="0.3333333333333333in" style="stroke: rgb(200,200,200); fill: none;"/>
	<circle cx="2.6666666666666665in" cy="8.0in" r="0.3333333333333333in" style="stroke: rgb(200,200,200); fill: none;"/>
	<circle cx="3.0in" cy="8.0in" r="0.3333333333333333in" style="stroke: rgb(200,200,200); fill: none;"/>
	<circle cx="3.333333333333333in" cy="8.0in" r="0.3333333333333333in" style="stroke: rgb(200,200,200); fill: none;"/>
	<circle cx="3.6666666666666665in" cy="8.0in" r="0.3333333333333333in" style="stroke: rgb(200,200,200); fill: none;"/>
	<circle cx="4.0in" cy="8.0in" r="0.3333333333333333in" style="stroke: rgb(200,200,200); fill: none;"/>
	<circle cx="4.333333333333333in" cy="8.0in" r="0.3333333333333333in" style="stroke: rgb(200,200,200); fill: none;"/>
	<circle cx="4.666666666666666in" cy="8.0in" r="0.3333333333333333in" style="stroke: rgb(200,200,200); fill: none;"/>
	<circle cx="5.0in" cy="8.0in" r="0.3333333333333333in" style="stroke: rgb(200,200,200); fill: none;"/>
	<circle cx="5.333333333333333in" cy="8.0in" r="0.3333333333333333in" style="stroke: rgb(200,200,200); fill: none;"/>
	<circle cx="5.666666666666666in" cy="8.0in" r="0.3333333333333333in" style="stroke: rgb(200,200,200); fill: none;"/>
	<circle cx="6.0in" cy="8.0in" r="0.3333333333333333in" style="stroke: rgb(200,200,200); fill: none;"/>
	<circle cx="6.333333333333333in" cy="8.0in" r="0.3333333333333333in" style="stroke: rgb(200,200,200); fill: none;"/>
	<circle cx="6.666666666666666in" cy="8.0in" r="0.3333333333333333in" style="stroke: rgb(200,200,200); fill: none;"/>
	<circle cx="7.0in" cy="8.0in" r="0.3333333333333333in" style="stroke: rgb(200,200,200); fill: none;"/>
	<circle cx="7.333333333333333in" cy="8.0in" r="0.3333333333333333in" style="stroke: rgb(200,200,200); fill: none;"/>
	<circle cx="7.666666666666666in" cy="8.0in" r="0.3333333333333333in" style="stroke: rgb(200,200,200); fill: none;"/>
	<circle cx="8.0in" cy="8.0in" r="0.3333333333333333in" style="stroke: rgb(200,200,200); fill: none;"/>
	<circle cx="0.3333333333333333in" cy="8.333333333333332in" r="0.3333333333333333in" style="stroke: rgb(200,200,200); fill: none;"/>
	<circle cx="0.6666666666666666in" cy="8.333333333333332in" r="0.3333333333333333in" style="stroke: rgb(200,200,200); fill: none;"/>
	<circle cx="1.0in" cy="8.333333333333332in" r="0.3333333333333333in" style="stroke: rgb(200,200,200); fill: none;"/>
	<circle cx="1.3333333333333333in" cy="8.333333333333332in" r="0.3333333333333333in" style="stroke: rgb(200,200,200); fill: none;"/>
	<circle cx="1.6666666666666665in" cy="8.333333333333332in" r="0.3333333333333333in" style="stroke: rgb(200,200,200); fill: none;"/>
	<circle cx="2.0in" cy="8.333333333333332in" r="0.3333333333333333in" style="stroke: rgb(200,200,200); fill: none;"/>
	<circle cx="2.333333333333333in" cy="8.333333333333332in" r="0.3333333333333333in" style="stroke: rgb(200,200,200); fill: none;"/>
	<circle cx="2.6666666666666665in" cy="8.333333333333332in" r="0.3333333333333333in" style="stroke: rgb(200,200,200); fill: none;"/>
	<circle cx="3.0in" cy="8.333333333333332in" r="0.3333333333333333in" style="stroke: rgb(200,200,200); fill: none;"/>
	<circle cx="3.333333333333333in" cy="8.333333333333332in" r="0.3333333333333333in" style="stroke: rgb(200,200,200); fill: none;"/>
	<circle cx="3.6666666666666665in" cy="8.333333333333332in" r="0.3333333333333333in" style="stroke: rgb(200,200,200); fill: none;"/>
	<circle cx="4.0in" cy="8.333333333333332in" r="0.3333333333333333in" style="stroke: rgb(200,200,200); fill: none;"/>
	<circle cx="4.333333333333333in" cy="8.333333333333332in" r="0.3333333333333333in" style="stroke: rgb(200,200,200); fill: none;"/>
	<circle cx="4.666666666666666in" cy="8.333333333333332in" r="0.3333333333333333in" style="stroke: rgb(200,200,200); fill: none;"/>
	<circle cx="5.0in" cy="8.333333333333332in" r="0.3333333333333333in" style="stroke: rgb(200,200,200); fill: none;"/>
	<circle cx="5.333333333333333in" cy="8.333333333333332in" r="0.3333333333333333in" style="stroke: rgb(200,200,200); fill: none;"/>
	<circle cx="5.666666666666666in" cy="8.333333333333332in" r="0.3333333333333333in" style="stroke: rgb(200,200,200); fill: none;"/>
	<circle cx="6.0in" cy="8.333333333333332in" r="0.3333333333333333in" style="stroke: rgb(200,200,200); fill: none;"/>
	<circle cx="6.333333333333333in" cy="8.333333333333332in" r="0.3333333333333333in" style="stroke: rgb(200,200,200); fill: none;"/>
	<circle cx="6.666666666666666in" cy="8.333333333333332in" r="0.3333333333333333in" style="stroke: rgb(200,200,200); fill: none;"/>
	<circle cx="7.0in" cy="8.333333333333332in" r="0.3333333333333333in" style="stroke: rgb(200,200,200); fill: none;"/>
	<circle cx="7.333333333333333in" cy="8.333333333333332in" r="0.3333333333333333in" style="stroke: rgb(200,200,200); fill: none;"/>
	<circle cx="7.666666666666666in" cy="8.333333333333332in" r="0.3333333333333333in" style="stroke: rgb(200,200,200); fill: none;"/>
	<circle cx="8.0in" cy="8.333333333333332in" r="0.3333333333333333in" style="stroke: rgb(200,200,200); fill: none;"/>
	<circle cx="0.3333333333333333in" cy="8.666666666666666in" r="0.3333333333333333in" style="stroke: rgb(200,200,200); fill: none;"/>
	<circle cx="0.6666666666666666in" cy="8.666666666666666in" r="0.3333333333333333in" style="stroke: rgb(200,200,200); fill: none;"/>
	<circle cx="1.0in" cy="8.666666666666666in" r="0.3333333333333333in" style="stroke: rgb(200,200,200); fill: none;"/>
	<circle cx="1.3333333333333333in" cy="8.666666666666666in" r="0.3333333333333333in" style="stroke: rgb(200,200,200); fill: none;"/>
	<circle cx="1.6666666666666665in" cy="8.666666666666666in" r="0.3333333333333333in" style="stroke: rgb(200,200,200); fill: none;"/>
	<circle cx="2.0in" cy="8.666666666666666in" r="0.3333333333333333in" style="stroke: rgb(200,200,200); fill: none;"/>
	<circle cx="2.333333333333333in" cy="8.666666666666666in" r="0.3333333333333333in" style="stroke: rgb(200,200,200); fill: none;"/>
	<circle cx="2.6666666666666665in" cy="8.666666666666666in" r="0.3333333333333333in" style="stroke: rgb(200,200,200); fill: none;"/>
	<circle cx="3.0in" cy="8.666666666666666in" r="0.3333333333333333in" style="stroke: rgb(200,200,200); fill: none;"/>
	<circle cx="3.333333333333333in" cy="8.666666666666666in" r="0.3333333333333333in" style="stroke: rgb(200,200,200); fill: none;"/>
	<circle cx="3.6666666666666665in" cy="8.666666666666666in" r="0.3333333333333333in" style="stroke: rgb(200,200,200); fill: none;"/>
	<circle cx="4.0in" cy="8.666666666666666in" r="0.3333333333333333in" style="stroke: rgb(200,200,200); fill: none;"/>
	<circle cx="4.333333333333333in" cy="8.666666666666666in" r="0.3333333333333333in" style="stroke: rgb(200,200,200); fill: none;"/>
	<circle cx="4.666666666666666in" cy="8.666666666666666in" r="0.3333333333333333in" style="stroke: rgb(200,200,200); fill: none;"/>
	<circle cx="5.0in" cy="8.666666666666666in" r="0.3333333333333333in" style="stroke: rgb(200,200,200); fill: none;"/>
	<circle cx="5.333333333333333in" cy="8.666666666666666in" r="0.3333333333333333in" style="stroke: rgb(200,200,200); fill: none;"/>
	<circle cx="5.666666666666666in" cy="8.666666666666666in" r="0.3333333333333333in" style="stroke: rgb(200,200,200); fill: none;"/>
	<circle cx="6.0in" cy="8.666666666666666in" r="0.3333333333333333in" style="stroke: rgb(200,200,200); fill: none;"/>
	<circle cx="6.333333333333333in" cy="8.666666666666666in" r="0.3333333333333333in" style="stroke: rgb(200,200,200); fill: none;"/>
	<circle cx="6.666666666666666in" cy="8.666666666666666in" r="0.3333333333333333in" style="stroke: rgb(200,200,200); fill: none;"/>
	<circle cx="7.0in" cy="8.666666666666666in" r="0.3333333333333333in" style="stroke: rgb(200,200,200); fill: none;"/>
	<circle cx="7.333333333333333in" cy="8.666666666666666in" r="0.3333333333333333in" style="stroke: rgb(200,200,200); fill: none;"/>
	<circle cx="7.666666666666666in" cy="8.666666666666666in" r="0.3333333333333333in" style="stroke: rgb(200,200,200); fill: none;"/>
	<circle cx="8.0in" cy="8.666666666666666in" r="0.3333333333333333in" style="stroke: rgb(200,200,200); fill: none;"/>
	<circle cx="0.3333333333333333in" cy="9.0in" r="0.3333333333333333in" style="stroke: rgb(200,200,200); fill: none;"/>
	<circle cx="0.6666666666666666in" cy="9.0in" r="0.3333333333333333in" style="stroke: rgb(200,200,200); fill: none;"/>
	<circle cx="1.0in" cy="9.0in" r="0.3333333333333333in" style="stroke: rgb(200,200,200); fill: none;"/>
	<circle cx="1.3333333333333333in" cy="9.0in" r="0.3333333333333333in" style="stroke: rgb(200,200,200); fill: none;"/>
	<circle cx="1.6666666666666665in" cy="9.0in" r="0.3333333333333333in" style="stroke: rgb(200,200,200); fill: none;"/>
	<circle cx="2.0in" cy="9.0in" r="0.3333333333333333in" style="stroke: rgb(200,200,200); fill: none;"/>
	<circle cx="2.333333333333333in" cy="9.0in" r="0.3333333333333333in" style="stroke: rgb(200,200,200); fill: none;"/>
	<circle cx="2.6666666666666665in" cy="9.0in" r="0.3333333333333333in" style="stroke: rgb(200,200,200); fill: none;"/>
	<circle cx="3.0in" cy="9.0in" r="0.3333333333333333in" style="stroke: rgb(200,200,200); fill: none;"/>
	<circle cx="3.333333333333333in" cy="9.0in" r="0.3333333333333333in" style="stroke: rgb(200,200,200); fill: none;"/>
	<circle cx="3.6666666666666665in" cy="9.0in" r="0.3333333333333333in" style="stroke: rgb(200,200,200); fill: none;"/>
	<circle cx="4.0in" cy="9.0in" r="0.3333333333333333in" style="stroke: rgb(200,200,200); fill: none;"/>
	<circle cx="4.333333333333333in" cy="9.0in" r="0.3333333333333333in" style="stroke: rgb(200,200,200); fill: none;"/>
	<circle cx="4.666666666666666in" cy="9.0in" r="0.3333333333333333in" style="stroke: rgb(200,200,200); fill: none;"/>
	<circle cx="5.0in" cy="9.0in" r="0.3333333333333333in" style="stroke: rgb(200,200,200); fill: none;"/>
	<circle cx="5.333333333333333in" cy="9.0in" r="0.3333333333333333in" style="stroke: rgb(200,200,200); fill: none;"/>
	<circle cx="5.666666666666666in" cy="9.0in" r="0.3333333333333333in" style="stroke: rgb(200,200,200); fill: none;"/>
	<circle cx="6.0in" cy="9.0in" r="0.3333333333333333in" style="stroke: rgb(200,200,200); fill: none;"/>
	<circle cx="6.333333333333333in" cy="9.0in" r="0.3333333333333333in" style="stroke: rgb(200,200,200); fill: none;"/>
	<circle cx="6.666666666666666in" cy="9.0in" r="0.3333333333333333in" style="stroke: rgb(200,200,200); fill: none;"/>
	<circle cx="7.0in" cy="9.0in" r="0.3333333333333333in" style="stroke: rgb(200,200,200); fill: none;"/>
	<circle cx="7.333333333333333in" cy="9.0in" r="0.3333333333333333in" style="stroke: rgb(200,200,200); fill: none;"/>
	<circle cx="7.666666666666666in" cy="9.0in" r="0.3333333333333333in" style="stroke: rgb(200,200,200); fill: none;"/>
	<circle cx="8.0in" cy="9.0in" r="0.3333333333333333in" style="stroke: rgb(200,200,200); fill: none;"/>
	<circle cx="0.3333333333333333in" cy="9.333333333333332in" r="0.3333333333333333in" style="stroke: rgb(200,200,200); fill: none;"/>
	<circle cx="0.6666666666666666in" cy="9.333333333333332in" r="0.3333333333333333in" style="stroke: rgb(200,200,200); fill: none;"/>
	<circle cx="1.0in" cy="9.333333333333332in" r="0.3333333333333333in" style="stroke: rgb(200,200,200); fill: none;"/>
	<circle cx="1.3333333333333333in" cy="9.333333333333332in" r="0.3333333333333333in" style="stroke: rgb(200,200,200); fill: none;"/>
	<circle cx="1.6666666666666665in" cy="9.333333333333332in" r="0.3333333333333333in" style="stroke: rgb(200,200,200); fill: none;"/>
	<circle cx="2.0in" cy="9.333333333333332in" r="0.3333333333333333in" style="stroke: rgb(200,200,200); fill: none;"/>
	<circle cx="2.333333333333333in" cy="9.333333333333332in" r="0.3333333333333333in" style="stroke: rgb(200,200,200); fill: none;"/>
	<circle cx="2.6666666666666665in" cy="9.333333333333332in" r="0.3333333333333333in" style="stroke: rgb(200,200,200); fill: none;"/>
	<circle cx="3.0in" cy="9.333333333333332in" r="0.3333333333333333in" style="stroke: rgb(200,200,200); fill: none;"/>
	<circle cx="3.333333333333333in" cy="9.333333333333332in" r="0.3333333333333333in" style="stroke: rgb(200,200,200); fill: none;"/>
	<circle cx="3.6666666666666665in" cy="9.333333333333332in" r="0.3333333333333333in" style="stroke: rgb(200,200,200); fill: none;"/>
	<circle cx="4.0in" cy="9.333333333333332in" r="0.3333333333333333in" style="stroke: rgb(200,200,200); fill: none;"/>
	<circle cx="4.333333333333333in" cy="9.333333333333332in" r="0.3333333333333333in" style="stroke: rgb(200,200,200); fill: none;"/>
	<circle cx="4.666666666666666in" cy="9.333333333333332in" r="0.3333333333333333in" style="stroke: rgb(200,200,200); fill: none;"/>
	<circle cx="5.0in" cy="9.333333333333332in" r="0.3333333333333333in" style="stroke: rgb(200,200,200); fill: none;"/>
	<circle cx="5.333333333333333in" cy="9.333333333333332in" r="0.3333333333333333in" style="stroke: rgb(200,200,200); fill: none;"/>
	<circle cx="5.666666666666666in" cy="9.333333333333332in" r="0.3333333333333333in" style="stroke: rgb(200,200,200); fill: none;"/>
	<circle cx="6.0in" cy="9.333333333333332in" r="0.3333333333333333in" style="stroke: rgb(200,200,200); fill: none;"/>
	<circle cx="6.333333333333333in" cy="9.333333333333332in" r="0.3333333333333333in" style="stroke: rgb(200,200,200); fill: none;"/>
	<circle cx="6.666666666666666in" cy="9.333333333333332in" r="0.3333333333333333in" style="stroke: rgb(200,200,200); fill: none;"/>
	<circle cx="7.0in" cy="9.333333333333332in" r="0.3333333333333333in" style="stroke: rgb(200,200,200); fill: none;"/>
	<circle cx="7.333333333333333in" cy="9.333333333333332in" r="0.3333333333333333in" style="stroke: rgb(200,200,200); fill: none;"/>
	<circle cx="7.666666666666666in" cy="9.333333333333332in" r="0.3333333333333333in" style="stroke: rgb(200,200,200); fill: none;"/>
	<circle cx="8.0in" cy="9.333333333333332in" r="0.3333333333333333in" style="stroke: rgb(200,200,200); fill: none;"/>
	<circle cx="0.3333333333333333in" cy="9.666666666666666in" r="0.3333333333333333in" style="stroke: rgb(200,200,200); fill: none;"/>
	<circle cx="0.6666666666666666in" cy="9.666666666666666in" r="0.3333333333333333in" style="stroke: rgb(200,200,200); fill: none;"/>
	<circle cx="1.0in" cy="9.666666666666666in" r="0.3333333333333333in" style="stroke: rgb(200,200,200); fill: none;"/>
	<circle cx="1.3333333333333333in" cy="9.666666666666666in" r="0.3333333333333333in" style="stroke: rgb(200,200,200); fill: none;"/>
	<circle cx="1.6666666666666665in" cy="9.666666666666666in" r="0.3333333333333333in" style="stroke: rgb(200,200,200); fill: none;"/>
	<circle cx="2.0in" cy="9.666666666666666in" r="0.3333333333333333in" style="stroke: rgb(200,200,200); fill: none;"/>
	<circle cx="2.333333333333333in" cy="9.666666666666666in" r="0.3333333333333333in" style="stroke: rgb(200,200,200); fill: none;"/>
	<circle cx="2.6666666666666665in" cy="9.666666666666666in" r="0.3333333333333333in" style="stroke: rgb(200,200,200); fill: none;"/>
	<circle cx="3.0in" cy="9.666666666666666in" r="0.3333333333333333in" style="stroke: rgb(200,200,200); fill: none;"/>
	<circle cx="3.333333333333333in" cy="9.666666666666666in" r="0.3333333333333333in" style="stroke: rgb(200,200,200); fill: none;"/>
	<circle cx="3.6666666666666665in" cy="9.666666666666666in" r="0.3333333333333333in" style="stroke: rgb(200,200,200); fill: none;"/>
	<circle cx="4.0in" cy="9.666666666666666in" r="0.3333333333333333in" style="stroke: rgb(200,200,200); fill: none;"/>
	<circle cx="4.333333333333333in" cy="9.666666666666666in" r="0.3333333333333333in" style="stroke: rgb(200,200,200); fill: none;"/>
	<circle cx="4.666666666666666in" cy="9.666666666666666in" r="0.3333333333333333in" style="stroke: rgb(200,200,200); fill: none;"/>
	<circle cx="5.0in" cy="9.666666666666666in" r="0.3333333333333333in" style="stroke: rgb(200,200,200); fill: none;"/>
	<circle cx="5.333333333333333in" cy="9.666666666666666in" r="0.3333333333333333in" style="stroke: rgb(200,200,200); fill: none;"/>
	<circle cx="5.666666666666666in" cy="9.666666666666666in" r="0.3333333333333333in" style="stroke: rgb(200,200,200); fill: none;"/>
	<circle cx="6.0in" cy="9.666666666666666in" r="0.3333333333333333in" style="stroke: rgb(200,200,200); fill: none;"/>
	<circle cx="6.333333333333333in" cy="9.666666666666666in" r="0.3333333333333333in" style="stroke: rgb(200,200,200); fill: none;"/>
	<circle cx="6.666666666666666in" cy="9.666666666666666in" r="0.3333333333333333in" style="stroke: rgb(200,200,200); fill: none;"/>
	<circle cx="7.0in" cy="9.666666666666666in" r="0.3333333333333333in" style="stroke: rgb(200,200,200); fill: none;"/>
	<circle cx="7.333333333333333in" cy="9.666666666666666in" r="0.3333333333333333in" style="stroke: rgb(200,200,200); fill: none;"/>
	<circle cx="7.666666666666666in" cy="9.666666666666666in" r="0.3333333333333333in" style="stroke: rgb(200,200,200); fill: none;"/>
	<circle cx="8.0in" cy="9.666666666666666in" r="0.3333333333333333in" style="stroke: rgb(200,200,200); fill: none;"/>
	<circle cx="0.3333333333333333in" cy="10.0in" r="0.3333333333333333in" style="stroke: rgb(200,200,200); fill: none;"/>
	<circle cx="0.6666666666666666in" cy="10.0in" r="0.3333333333333333in" style="stroke: rgb(200,200,200); fill: none;"/>
	<circle cx="1.0in" cy="10.0in" r="0.3333333333333333in" style="stroke: rgb(200,200,200); fill: none;"/>
	<circle cx="1.3333333333333333in" cy="10.0in" r="0.3333333333333333in" style="stroke: rgb(200,200,200); fill: none;"/>
	<circle cx="1.6666666666666665in" cy="10.0in" r="0.3333333333333333in" style="stroke: rgb(200,200,200); fill: none;"/>
	<circle cx="2.0in" cy="10.0in" r="0.3333333333333333in" style="stroke: rgb(200,200,200); fill: none;"/>
	<circle cx="2.333333333333333in" cy="10.0in" r="0.3333333333333333in" style="stroke: rgb(200,200,200); fill: none;"/>
	<circle cx="2.6666666666666665in" cy="10.0in" r="0.3333333333333333in" style="stroke: rgb(200,200,200); fill: none;"/>
	<circle cx="3.0in" cy="10.0in" r="0.3333333333333333in" style="stroke: rgb(200,200,200); fill: none;"/>
	<circle cx="3.333333333333333in" cy="10.0in" r="0.3333333333333333in" style="stroke: rgb(200,200,200); fill: none;"/>
	<circle cx="3.6666666666666665in" cy="10.0in" r="0.3333333333333333in" style="stroke: rgb(200,200,200); fill: none;"/>
	<circle cx="4.0in" cy="10.0in" r="0.3333333333333333in" style="stroke: rgb(200,200,200); fill: none;"/>
	<circle cx="4.333333333333333in" cy="10.0in" r="0.3333333333333333in" style="stroke: rgb(200,200,200); fill: none;"/>
	<circle cx="4.666666666666666in" cy="10.0in" r="0.3333333333333333in" style="stroke: rgb(200,200,200); fill: none;"/>
	<circle cx="5.0in" cy="10.0in" r="0.3333333333333333in" style="stroke: rgb(200,200,200); fill: none;"/>
	<circle cx="5.333333333333333in" cy="10.0in" r="0.3333333333333333in" style="stroke: rgb(200,200,200); fill: none;"/>
	<circle cx="5.666666666666666in" cy="10.0in" r="0.3333333333333333in" style="stroke: rgb(200,200,200); fill: none;"/>
	<circle cx="6.0in" cy="10.0in" r="0.3333333333333333in" style="stroke: rgb(200,200,200); fill: none;"/>
	<circle cx="6.333333333333333in" cy="10.0in" r="0.3333333333333333in" style="stroke: rgb(200,200,200); fill: none;"/>
	<circle cx="6.666666666666666in" cy="10.0in" r="0.3333333333333333in" style="stroke: rgb(200,200,200); fill: none;"/>
	<circle cx="7.0in" cy="10.0in" r="0.3333333333333333in" style="stroke: rgb(200,200,200); fill: none;"/>
	<circle cx="7.333333333333333in" cy="10.0in" r="0.3333333333333333in" style="stroke: rgb(200,200,200); fill: none;"/>
	<circle cx="7.666666666666666in" cy="10.0in" r="0.3333333333333333in" style="stroke: rgb(200,200,200); fill: none;"/>
	<circle cx="8.0in" cy="10.0in" r="0.3333333333333333in" style="stroke: rgb(200,200,200); fill: none;"/>
	<circle cx="0.3333333333333333in" cy="10.333333333333332in" r="0.3333333333333333in" style="stroke: rgb(200,200,200); fill: none;"/>
	<circle cx="0.6666666666666666in" cy="10.333333333333332in" r="0.3333333333333333in" style="stroke: rgb(200,200,200); fill: none;"/>
	<circle cx="1.0in" cy="10.333333333333332in" r="0.3333333333333333in" style="stroke: rgb(200,200,200); fill: none;"/>
	<circle cx="1.3333333333333333in" cy="10.333333333333332in" r="0.3333333333333333in" style="stroke: rgb(200,200,200); fill: none;"/>
	<circle cx="1.6666666666666665in" cy="10.333333333333332in" r="0.3333333333333333in" style="stroke: rgb(200,200,200); fill: none;"/>
	<circle cx="2.0in" cy="10.333333333333332in" r="0.3333333333333333in" style="stroke: rgb(200,200,200); fill: none;"/>
	<circle cx="2.333333333333333in" cy="10.333333333333332in" r="0.3333333333333333in" style="stroke: rgb(200,200,200); fill: none;"/>
	<circle cx="2.6666666666666665in" cy="10.333333333333332in" r="0.3333333333333333in" style="stroke: rgb(200,200,200); fill: none;"/>
	<circle cx="3.0in" cy="10.333333333333332in" r="0.3333333333333333in" style="stroke: rgb(200,200,200); fill: none;"/>
	<circle cx="3.333333333333333in" cy="10.333333333333332in" r="0.3333333333333333in" style="stroke: rgb(200,200,200); fill: none;"/>
	<circle cx="3.6666666666666665in" cy="10.333333333333332in" r="0.3333333333333333in" style="stroke: rgb(200,200,200); fill: none;"/>
	<circle cx="4.0in" cy="10.333333333333332in" r="0.3333333333333333in" style="stroke: rgb(200,200,200); fill: none;"/>
	<circle cx="4.333333333333333in" cy="10.333333333333332in" r="0.3333333333333333in" style="stroke: rgb(200,200,200); fill: none;"/>
	<circle cx="4.666666666666666in" cy="10.333333333333332in" r="0.3333333333333333in" style="stroke: rgb(200,200,200); fill: none;"/>
	<circle cx="5.0in" cy="10.333333333333332in" r="0.3333333333333333in" style="stroke: rgb(200,200,200); fill: none;"/>
	<circle cx="5.333333333333333in" cy="10.333333333333332in" r="0.3333333333333333in" style="stroke: rgb(200,200,200); fill: none;"/>
	<circle cx="5.666666666666666in" cy="10.333333333333332in" r="0.3333333333333333in" style="stroke: rgb(200,200,200); fill: none;"/>
	<circle cx="6.0in" cy="10.333333333333332in" r="0.3333333333333333in" style="stroke: rgb(200,200,200); fill: none;"/>
	<circle cx="6.333333333333333in" cy="10.333333333333332in" r="0.3333333333333333in" style="stroke: rgb(200,200,200); fill: none;"/>
	<circle cx="6.666666666666666in" cy="10.333333333333332in" r="0.3333333333333333in" style="stroke: rgb(200,200,200); fill: none;"/>
	<circle cx="7.0in" cy="10.333333333333332in" r="0.3333333333333333in" style="stroke: rgb(200,200,200); fill: none;"/>
	<circle cx="7.333333333333333in" cy="10.333333333333332in" r="0.3333333333333333in" style="stroke: rgb(200,200,200); fill: none;"/>
	<circle cx="7.666666666666666in" cy="10.333333333333332in" r="0.3333333333333333in" style="stroke: rgb(200,200,200); fill: none;"/>
	<circle cx="8.0in" cy="10.333333333333332in" r="0.3333333333333333in" style="stroke: rgb(200,200,200); fill: none;"/>
	<circle cx="0.3333333333333333in" cy="10.666666666666666in" r="0.3333333333333333in" style="stroke: rgb(200,200,200); fill: none;"/>
	<circle cx="0.6666666666666666in" cy="10.666666666666666in" r="0.3333333333333333in" style="stroke: rgb(200,200,200); fill: none;"/>
	<circle cx="1.0in" cy="10.666666666666666in" r="0.3333333333333333in" style="stroke: rgb(200,200,200); fill: none;"/>
	<circle cx="1.3333333333333333in" cy="10.666666666666666in" r="0.3333333333333333in" style="stroke: rgb(200,200,200); fill: none;"/>
	<circle cx="1.6666666666666665in" cy="10.666666666666666in" r="0.3333333333333333in" style="stroke: rgb(200,200,200); fill: none;"/>
	<circle cx="2.0in" cy="10.666666666666666in" r="0.3333333333333333in" style="stroke: rgb(200,200,200); fill: none;"/>
	<circle cx="2.333333333333333in" cy="10.666666666666666in" r="0.3333333333333333in" style="stroke: rgb(200,200,200); fill: none;"/>
	<circle cx="2.6666666666666665in" cy="10.666666666666666in" r="0.3333333333333333in" style="stroke: rgb(200,200,200); fill: none;"/>
	<circle cx="3.0in" cy="10.666666666666666in" r="0.3333333333333333in" style="stroke: rgb(200,200,200); fill: none;"/>
	<circle cx="3.333333333333333in" cy="10.666666666666666in" r="0.3333333333333333in" style="stroke: rgb(200,200,200); fill: none;"/>
	<circle cx="3.6666666666666665in" cy="10.666666666666666in" r="0.3333333333333333in" style="stroke: rgb(200,200,200); fill: none;"/>
	<circle cx="4.0in" cy="10.666666666666666in" r="0.3333333333333333in" style="stroke: rgb(200,200,200); fill: none;"/>
	<circle cx="4.333333333333333in" cy="10.666666666666666in" r="0.3333333333333333in" style="stroke: rgb(200,200,200); fill: none;"/>
	<circle cx="4.666666666666666in" cy="10.666666666666666in" r="0.3333333333333333in" style="stroke: rgb(200,200,200); fill: none;"/>
	<circle cx="5.0in" cy="10.666666666666666in" r="0.3333333333333333in" style="stroke: rgb(200,200,200); fill: none;"/>
	<circle cx="5.333333333333333in" cy="10.666666666666666in" r="0.3333333333333333in" style="stroke: rgb(200,200,200); fill: none;"/>
	<circle cx="5.666666666666666in" cy="10.666666666666666in" r="0.3333333333333333in" style="stroke: rgb(200,200,200); fill: none;"/>
	<circle cx="6.0in" cy="10.666666666666666in" r="0.3333333333333333in" style="stroke: rgb(200,200,200); fill: none;"/>
	<circle cx="6.333333333333333in" cy="10.666666666666666in" r="0.3333333333333333in" style="stroke: rgb(200,200,200); fill: none;"/>
	<circle cx="6.666666666666666in" cy="10.666666666666666in" r="0.3333333333333333in" style="stroke: rgb(200,200,200); fill: none;"/>
	<circle cx="7.0in" cy="10.666666666666666in" r="0.3333333333333333in" style="stroke: rgb(200,200,200); fill: none;"/>
	<circle cx="7.333333333333333in" cy="10.666666666666666in" r="0.3333333333333333in" style="stroke: rgb(200,200,200); fill: none;"/>
	<circle cx="7.666666666666666in" cy="10.666666666666666in" r="0.3333333333333333in" style="stroke: rgb(200,200,200); fill: none;"/>
	<circle cx="8.0in" cy="10.666666666666666in" r="0.3333333333333333in" style="stroke: rgb(200,200,200); fill: none;"/>
</svg>