<?xml version="1.0" encoding="UTF-8" standalone="no"?>
<!DOCTYPE svg PUBLIC "-//W3C//DTD SVG 1.1//EN" "http://www.w3.org/Graphics/SVG/1.1/DTD/svg11.dtd">
<svg width="8.5in" height="11in"  xmlns="http://www.w3.org/2000/svg">
	<circle cx="0.5in" cy="0.5in" r="0.5in" style="stroke: rgb(200,200,200); fill: none;"/>
	<circle cx="1.0in" cy="0.5in" r="0.5in" style="stroke: rgb(200,200,200); fill: none;"/>
	<circle cx="1.5in" cy="0.5in" r="0.5in" style="stroke: rgb(200,200,200); fill: none;"/>
	<circle cx="2.0in" cy="0.5in" r="0.5in" style="stroke: rgb(200,200,200); fill: none;"/>
	<circle cx="2.5in" cy="0.5in" r="0.5in" style="stroke: rgb(200,200,200); fill: none;"/>
	<circle cx="3.0in" cy="0.5in" r="0.5in" style="stroke: rgb(200,200,200); fill: none;"/>
	<circle cx="3.5in" cy="0.5in" r="0.5in" style="stroke: rgb(200,200,200); fill: none;"/>
	<circle cx="4.0in" cy="0.5in" r="0.5in" style="stroke: rgb(200,200,200); fill: none;"/>
	<circle cx="4.5in" cy="0.5in" r="0.5in" style="stroke: rgb(200,200,200); fill: none;"/>
	<circle cx="5.0in" cy="0.5in" r="0.5in" style="stroke: rgb(200,200,200); fill: none;"/>
	<circle cx="5.5in" cy="0.5in" r="0.5in" style="stroke: rgb(200,200,200); fill: none;"/>
	<circle cx="6.0in" cy="0.5in" r="0.5in" style="stroke: rgb(200,200,200); fill: none;"/>
	<circle cx="6.5in" cy="0.5in" r="0.5in" style="stroke: rgb(200,200,200); fill: none;"/>
	<circle cx="7.0in" cy="0.5in" r="0.5in" style="stroke: rgb(200,200,200); fill: none;"/>
	<circle cx="7.5in" cy="0.5in" r="0.5in" style="stroke: rgb(200,200,200); fill: none;"/>
	<circle cx="8.0in" cy="0.5in" r="0.5in" style="stroke: rgb(200,200,200); fill: none;"/>
	<circle cx="0.5in" cy="1.0in" r="0.5in" style="stroke: rgb(200,200,200); fill: none;"/>
	<circle cx="1.0in" cy="1.0in" r="0.5in" style="stroke: rgb(200,200,200); fill: none;"/>
	<circle cx="1.5in" cy="1.0in" r="0.5in" style="stroke: rgb(200,200,200); fill: none;"/>
	<circle cx="2.0in" cy="1.0in" r="0.5in" style="stroke: rgb(200,200,200); fill: none;"/>
	<circle cx="2.5in" cy="1.0in" r="0.5in" style="stroke: rgb(200,200,200); fill: none;"/>
	<circle cx="3.0in" cy="1.0in" r="0.5in" style="stroke: rgb(200,200,200); fill: none;"/>
	<circle cx="3.5in" cy="1.0in" r="0.5in" style="stroke: rgb(200,200,200); fill: none;"/>
	<circle cx="4.0in" cy="1.0in" r="0.5in" style="stroke: rgb(200,200,200); fill: none;"/>
	<circle cx="4.5in" cy="1.0in" r="0.5in" style="stroke: rgb(200,200,200); fill: none;"/>
	<circle cx="5.0in" cy="1.0in" r="0.5in" style="stroke: rgb(200,200,200); fill: none;"/>
	<circle cx="5.5in" cy="1.0in" r="0.5in" style="stroke: rgb(200,200,200); fill: none;"/>
	<circle cx="6.0in" cy="1.0in" r="0.5in" style="stroke: rgb(200,200,200); fill: none;"/>
	<circle cx="6.5in" cy="1.0in" r="0.5in" style="stroke: rgb(200,200,200); fill: none;"/>
	<circle cx="7.0in" cy="1.0in" r="0.5in" style="stroke: rgb(200,200,200); fill: none;"/>
	<circle cx="7.5in" cy="1.0in" r="0.5in" style="stroke: rgb(200,200,200); fill: none;"/>
	<circle cx="8.0in" cy="1.0in" r="0.5in" style="stroke: rgb(200,200,200); fill: none;"/>
	<circle cx="0.5in" cy="1.5in" r="0.5in" style="stroke: rgb(200,200,200); fill: none;"/>
	<circle cx="1.0in" cy="1.5in" r="0.5in" style="stroke: rgb(200,200,200); fill: none;"/>
	<circle cx="1.5in" cy="1.5in" r="0.5in" style="stroke: rgb(200,200,200); fill: none;"/>
	<circle cx="2.0in" cy="1.5in" r="0.5in" style="stroke: rgb(200,200,200); fill: none;"/>
	<circle cx="2.5in" cy="1.5in" r="0.5in" style="stroke: rgb(200,200,200); fill: none;"/>
	<circle cx="3.0in" cy="1.5in" r="0.5in" style="stroke: rgb(200,200,200); fill: none;"/>
	<circle cx="3.5in" cy="1.5in" r="0.5in" style="stroke: rgb(200,200,200); fill: none;"/>
	<circle cx="4.0in" cy="1.5in" r="0.5in" style="stroke: rgb(200,200,200); fill: none;"/>
	<circle cx="4.5in" cy="1.5in" r="0.5in" style="stroke: rgb(200,200,200); fill: none;"/>
	<circle cx="5.0in" cy="1.5in" r="0.5in" style="stroke: rgb(200,200,200); fill: none;"/>
	<circle cx="5.5in" cy="1.5in" r="0.5in" style="stroke: rgb(200,200,200); fill: none;"/>
	<circle cx="6.0in" cy="1.5in" r="0.5in" style="stroke: rgb(200,200,200); fill: none;"/>
	<circle cx="6.5in" cy="1.5in" r="0.5in" style="stroke: rgb(200,200,200); fill: none;"/>
	<circle cx="7.0in" cy="1.5in" r="0.5in" style="stroke: rgb(200,200,200); fill: none;"/>
	<circle cx="7.5in" cy="1.5in" r="0.5in" style="stroke: rgb(200,200,200); fill: none;"/>
	<circle cx="8.0in" cy="1.5in" r="0.5in" style="stroke: rgb(200,200,200); fill: none;"/>
	<circle cx="0.5in" cy="2.0in" r="0.5in" style="stroke: rgb(200,200,200); fill: none;"/>
	<circle cx="1.0in" cy="2.0in" r="0.5in" style="stroke: rgb(200,200,200); fill: none;"/>
	<circle cx="1.5in" cy="2.0in" r="0.5in" style="stroke: rgb(200,200,200); fill: none;"/>
	<circle cx="2.0in" cy="2.0in" r="0.5in" style="stroke: rgb(200,200,200); fill: none;"/>
	<circle cx="2.5in" cy="2.0in" r="0.5in" style="stroke: rgb(200,200,200); fill: none;"/>
	<circle cx="3.0in" cy="2.0in" r="0.5in" style="stroke: rgb(200,200,200); fill: none;"/>
	<circle cx="3.5in" cy="2.0in" r="0.5in" style="stroke: rgb(200,200,200); fill: none;"/>
	<circle cx="4.0in" cy="2.0in" r="0.5in" style="stroke: rgb(200,200,200); fill: none;"/>
	<circle cx="4.5in" cy="2.0in" r="0.5in" style="stroke: rgb(200,200,200); fill: none;"/>
	<circle cx="5.0in" cy="2.0in" r="0.5in" style="stroke: rgb(200,200,200); fill: none;"/>
	<circle cx="5.5in" cy="2.0in" r="0.5in" style="stroke: rgb(200,200,200); fill: none;"/>
	<circle cx="6.0in" cy="2.0in" r="0.5in" style="stroke: rgb(200,200,200); fill: none;"/>
	<circle cx="6.5in" cy="2.0in" r="0.5in" style="stroke: rgb(200,200,200); fill: none;"/>
	<circle cx="7.0in" cy="2.0in" r="0.5in" style="stroke: rgb(200,200,200); fill: none;"/>
	<circle cx="7.5in" cy="2.0in" r="0.5in" style="stroke: rgb(200,200,200); fill: none;"/>
	<circle cx="8.0in" cy="2.0in" r="0.5in" style="stroke: rgb(200,200,200); fill: none;"/>
	<circle cx="0.5in" cy="2.5in" r="0.5in" style="stroke: rgb(200,200,200); fill: none;"/>
	<circle cx="1.0in" cy="2.5in" r="0.5in" style="stroke: rgb(200,200,200); fill: none;"/>
	<circle cx="1.5in" cy="2.5in" r="0.5in" style="stroke: rgb(200,200,200); fill: none;"/>
	<circle cx="2.0in" cy="2.5in" r="0.5in" style="stroke: rgb(200,200,200); fill: none;"/>
	<circle cx="2.5in" cy="2.5in" r="0.5in" style="stroke: rgb(200,200,200); fill: none;"/>
	<circle cx="3.0in" cy="2.5in" r="0.5in" style="stroke: rgb(200,200,200); fill: none;"/>
	<circle cx="3.5in" cy="2.5in" r="0.5in" style="stroke: rgb(200,200,200); fill: none;"/>
	<circle cx="4.0in" cy="2.5in" r="0.5in" style="stroke: rgb(200,200,200); fill: none;"/>
	<circle cx="4.5in" cy="2.5in" r="0.5in" style="stroke: rgb(200,200,200); fill: none;"/>
	<circle cx="5.0in" cy="2.5in" r="0.5in" style="stroke: rgb(200,200,200); fill: none;"/>
	<circle cx="5.5in" cy="2.5in" r="0.5in" style="stroke: rgb(200,200,200); fill: none;"/>
	<circle cx="6.0in" cy="2.5in" r="0.5in" style="stroke: rgb(200,200,200); fill: none;"/>
	<circle cx="6.5in" cy="2.5in" r="0.5in" style="stroke: rgb(200,200,200); fill: none;"/>
	<circle cx="7.0in" cy="2.5in" r="0.5in" style="stroke: rgb(200,200,200); fill: none;"/>
	<circle cx="7.5in" cy="2.5in" r="0.5in" style="stroke: rgb(200,200,200); fill: none;"/>
	<circle cx="8.0in" cy="2.5in" r="0.5in" style="stroke: rgb(200,200,200); fill: none;"/>
	<circle cx="0.5in" cy="3.0in" r="0.5in" style="stroke: rgb(200,200,200); fill: none;"/>
	<circle cx="1.0in" cy="3.0in" r="0.5in" style="stroke: rgb(200,200,200); fill: none;"/>
	<circle cx="1.5in" cy="3.0in" r="0.5in" style="stroke: rgb(200,200,200); fill: none;"/>
	<circle cx="2.0in" cy="3.0in" r="0.5in" style="stroke: rgb(200,200,200); fill: none;"/>
	<circle cx="2.5in" cy="3.0in" r="0.5in" style="stroke: rgb(200,200,200); fill: none;"/>
	<circle cx="3.0in" cy="3.0in" r="0.5in" style="stroke: rgb(200,200,200); fill: none;"/>
	<circle cx="3.5in" cy="3.0in" r="0.5in" style="stroke: rgb(200,200,200); fill: none;"/>
	<circle cx="4.0in" cy="3.0in" r="0.5in" style="stroke: rgb(200,200,200); fill: none;"/>
	<circle cx="4.5in" cy="3.0in" r="0.5in" style="stroke: rgb(200,200,200); fill: none;"/>
	<circle cx="5.0in" cy="3.0in" r="0.5in" style="stroke: rgb(200,200,200); fill: none;"/>
	<circle cx="5.5in" cy="3.0in" r="0.5in" style="stroke: rgb(200,200,200); fill: none;"/>
	<circle cx="6.0in" cy="3.0in" r="0.5in" style="stroke: rgb(200,200,200); fill: none;"/>
	<circle cx="6.5in" cy="3.0in" r="0.5in" style="stroke: rgb(200,200,200); fill: none;"/>
	<circle cx="7.0in" cy="3.0in" r="0.5in" style="stroke: rgb(200,200,200); fill: none;"/>
	<circle cx="7.5in" cy="3.0in" r="0.5in" style="stroke: rgb(200,200,200); fill: none;"/>
	<circle cx="8.0in" cy="3.0in" r="0.5in" style="stroke: rgb(200,200,200); fill: none;"/>
	<circle cx="0.5in" cy="3.5in" r="0.5in" style="stroke: rgb(200,200,200); fill: none;"/>
	<circle cx="1.0in" cy="3.5in" r="0.5in" style="stroke: rgb(200,200,200); fill: none;"/>
	<circle cx="1.5in" cy="3.5in" r="0.5in" style="stroke: rgb(200,200,200); fill: none;"/>
	<circle cx="2.0in" cy="3.5in" r="0.5in" style="stroke: rgb(200,200,200); fill: none;"/>
	<circle cx="2.5in" cy="3.5in" r="0.5in" style="stroke: rgb(200,200,200); fill: none;"/>
	<circle cx="3.0in" cy="3.5in" r="0.5in" style="stroke: rgb(200,200,200); fill: none;"/>
	<circle cx="3.5in" cy="3.5in" r="0.5in" style="stroke: rgb(200,200,200); fill: none;"/>
	<circle cx="4.0in" cy="3.5in" r="0.5in" style="stroke: rgb(200,200,200); fill: none;"/>
	<circle cx="4.5in" cy="3.5in" r="0.5in" style="stroke: rgb(200,200,200); fill: none;"/>
	<circle cx="5.0in" cy="3.5in" r="0.5in" style="stroke: rgb(200,200,200); fill: none;"/>
	<circle cx="5.5in" cy="3.5in" r="0.5in" style="stroke: rgb(200,200,200); fill: none;"/>
	<circle cx="6.0in" cy="3.5in" r="0.5in" style="stroke: rgb(200,200,200); fill: none;"/>
	<circle cx="6.5in" cy="3.5in" r="0.5in" style="stroke: rgb(200,200,200); fill: none;"/>
	<circle cx="7.0in" cy="3.5in" r="0.5in" style="stroke: rgb(200,200,200); fill: none;"/>
	<circle cx="7.5in" cy="3.5in" r="0.5in" style="stroke: rgb(200,200,200); fill: none;"/>
	<circle cx="8.0in" cy="3.5in" r="0.5in" style="stroke: rgb(200,200,200); fill: none;"/>
	<circle cx="0.5in" cy="4.0in" r="0.5in" style="stroke: rgb(200,200,200); fill: none;"/>
	<circle cx="1.0in" cy="4.0in" r="0.5in" style="stroke: rgb(200,200,200); fill: none;"/>
	<circle cx="1.5in" cy="4.0in" r="0.5in" style="stroke: rgb(200,200,200); fill: none;"/>
	<circle cx="2.0in" cy="4.0in" r="0.5in" style="stroke: rgb(200,200,200); fill: none;"/>
	<circle cx="2.5in" cy="4.0in" r="0.5in" style="stroke: rgb(200,200,200); fill: none;"/>
	<circle cx="3.0in" cy="4.0in" r="0.5in" style="stroke: rgb(200,200,200); fill: none;"/>
	<circle cx="3.5in" cy="4.0in" r="0.5in" style="stroke: rgb(200,200,200); fill: none;"/>
	<circle cx="4.0in" cy="4.0in" r="0.5in" style="stroke: rgb(200,200,200); fill: none;"/>
	<circle cx="4.5in" cy="4.0in" r="0.5in" style="stroke: rgb(200,200,200); fill: none;"/>
	<circle cx="5.0in" cy="4.0in" r="0.5in" style="stroke: rgb(200,200,200); fill: none;"/>
	<circle cx="5.5in" cy="4.0in" r="0.5in" style="stroke: rgb(200,200,200); fill: none;"/>
	<circle cx="6.0in" cy="4.0in" r="0.5in" style="stroke: rgb(200,200,200); fill: none;"/>
	<circle cx="6.5in" cy="4.0in" r="0.5in" style="stroke: rgb(200,200,200); fill: none;"/>
	<circle cx="7.0in" cy="4.0in" r="0.5in" style="stroke: rgb(200,200,200); fill: none;"/>
	<circle cx="7.5in" cy="4.0in" r="0.5in" style="stroke: rgb(200,200,200); fill: none;"/>
	<circle cx="8.0in" cy="4.0in" r="0.5in" style="stroke: rgb(200,200,200); fill: none;"/>
	<circle cx="0.5in" cy="4.5in" r="0.5in" style="stroke: rgb(200,200,200); fill: none;"/>
	<circle cx="1.0in" cy="4.5in" r="0.5in" style="stroke: rgb(200,200,200); fill: none;"/>
	<circle cx="1.5in" cy="4.5in" r="0.5in" style="stroke: rgb(200,200,200); fill: none;"/>
	<circle cx="2.0in" cy="4.5in" r="0.5in" style="stroke: rgb(200,200,200); fill: none;"/>
	<circle cx="2.5in" cy="4.5in" r="0.5in" style="stroke: rgb(200,200,200); fill: none;"/>
	<circle cx="3.0in" cy="4.5in" r="0.5in" style="stroke: rgb(200,200,200); fill: none;"/>
	<circle cx="3.5in" cy="4.5in" r="0.5in" style="stroke: rgb(200,200,200); fill: none;"/>
	<circle cx="4.0in" cy="4.5in" r="0.5in" style="stroke: rgb(200,200,200); fill: none;"/>
	<circle cx="4.5in" cy="4.5in" r="0.5in" style="stroke: rgb(200,200,200); fill: none;"/>
	<circle cx="5.0in" cy="4.5in" r="0.5in" style="stroke: rgb(200,200,200); fill: none;"/>
	<circle cx="5.5in" cy="4.5in" r="0.5in" style="stroke: rgb(200,200,200); fill: none;"/>
	<circle cx="6.0in" cy="4.5in" r="0.5in" style="stroke: rgb(200,200,200); fill: none;"/>
	<circle cx="6.5in" cy="4.5in" r="0.5in" style="stroke: rgb(200,200,200); fill: none;"/>
	<circle cx="7.0in" cy="4.5in" r="0.5in" style="stroke: rgb(200,200,200); fill: none;"/>
	<circle cx="7.5in" cy="4.5in" r="0.5in" style="stroke: rgb(200,200,200); fill: none;"/>
	<circle cx="8.0in" cy="4.5in" r="0.5in" style="stroke: rgb(200,200,200); fill: none;"/>
	<circle cx="0.5in" cy="5.0in" r="0.5in" style="stroke: rgb(200,200,200); fill: none;"/>
	<circle cx="1.0in" cy="5.0in" r="0.5in" style="stroke: rgb(200,200,200); fill: none;"/>
	<circle cx="1.5in" cy="5.0in" r="0.5in" style="stroke: rgb(200,200,200); fill: none;"/>
	<circle cx="2.0in" cy="5.0in" r="0.5in" style="stroke: rgb(200,200,200); fill: none;"/>
	<circle cx="2.5in" cy="5.0in" r="0.5in" style="stroke: rgb(200,200,200); fill: none;"/>
	<circle cx="3.0in" cy="5.0in" r="0.5in" style="stroke: rgb(200,200,200); fill: none;"/>
	<circle cx="3.5in" cy="5.0in" r="0.5in" style="stroke: rgb(200,200,200); fill: none;"/>
	<circle cx="4.0in" cy="5.0in" r="0.5in" style="stroke: rgb(200,200,200); fill: none;"/>
	<circle cx="4.5in" cy="5.0in" r="0.5in" style="stroke: rgb(200,200,200); fill: none;"/>
	<circle cx="5.0in" cy="5.0in" r="0.5in" style="stroke: rgb(200,200,200); fill: none;"/>
	<circle cx="5.5in" cy="5.0in" r="0.5in" style="stroke: rgb(200,200,200); fill: none;"/>
	<circle cx="6.0in" cy="5.0in" r="0.5in" style="stroke: rgb(200,200,200); fill: none;"/>
	<circle cx="6.5in" cy="5.0in" r="0.5in" style="stroke: rgb(200,200,200); fill: none;"/>
	<circle cx="7.0in" cy="5.0in" r="0.5in" style="stroke: rgb(200,200,200); fill: none;"/>
	<circle cx="7.5in" cy="5.0in" r="0.5in" style="stroke: rgb(200,200,200); fill: none;"/>
	<circle cx="8.0in" cy="5.0in" r="0.5in" style="stroke: rgb(200,200,200); fill: none;"/>
	<circle cx="0.5in" cy="5.5in" r="0.5in" style="stroke: rgb(200,200,200); fill: none;"/>
	<circle cx="1.0in" cy="5.5in" r="0.5in" style="stroke: rgb(200,200,200); fill: none;"/>
	<circle cx="1.5in" cy="5.5in" r="0.5in" style="stroke: rgb(200,200,200); fill: none;"/>
	<circle cx="2.0in" cy="5.5in" r="0.5in" style="stroke: rgb(200,200,200); fill: none;"/>
	<circle cx="2.5in" cy="5.5in" r="0.5in" style="stroke: rgb(200,200,200); fill: none;"/>
	<circle cx="3.0in" cy="5.5in" r="0.5in" style="stroke: rgb(200,200,200); fill: none;"/>
	<circle cx="3.5in" cy="5.5in" r="0.5in" style="stroke: rgb(200,200,200); fill: none;"/>
	<circle cx="4.0in" cy="5.5in" r="0.5in" style="stroke: rgb(200,200,200); fill: none;"/>
	<circle cx="4.5in" cy="5.5in" r="0.5in" style="stroke: rgb(200,200,200); fill: none;"/>
	<circle cx="5.0in" cy="5.5in" r="0.5in" style="stroke: rgb(200,200,200); fill: none;"/>
	<circle cx="5.5in" cy="5.5in" r="0.5in" style="stroke: rgb(200,200,200); fill: none;"/>
	<circle cx="6.0in" cy="5.5in" r="0.5in" style="stroke: rgb(200,200,200); fill: none;"/>
	<circle cx="6.5in" cy="5.5in" r="0.5in" style="stroke: rgb(200,200,200); fill: none;"/>
	<circle cx="7.0in" cy="5.5in" r="0.5in" style="stroke: rgb(200,200,200); fill: none;"/>
	<circle cx="7.5in" cy="5.5in" r="0.5in" style="stroke: rgb(200,200,200); fill: none;"/>
	<circle cx="8.0in" cy="5.5in" r="0.5in" style="stroke: rgb(200,200,200); fill: none;"/>
	<circle cx="0.5in" cy="6.0in" r="0.5in" style="stroke: rgb(200,200,200); fill: none;"/>
	<circle cx="1.0in" cy="6.0in" r="0.5in" style="stroke: rgb(200,200,200); fill: none;"/>
	<circle cx="1.5in" cy="6.0in" r="0.5in" style="stroke: rgb(200,200,200); fill: none;"/>
	<circle cx="2.0in" cy="6.0in" r="0.5in" style="stroke: rgb(200,200,200); fill: none;"/>
	<circle cx="2.5in" cy="6.0in" r="0.5in" style="stroke: rgb(200,200,200); fill: none;"/>
	<circle cx="3.0in" cy="6.0in" r="0.5in" style="stroke: rgb(200,200,200); fill: none;"/>
	<circle cx="3.5in" cy="6.0in" r="0.5in" style="stroke: rgb(200,200,200); fill: none;"/>
	<circle cx="4.0in" cy="6.0in" r="0.5in" style="stroke: rgb(200,200,200); fill: none;"/>
	<circle cx="4.5in" cy="6.0in" r="0.5in" style="stroke: rgb(200,200,200); fill: none;"/>
	<circle cx="5.0in" cy="6.0in" r="0.5in" style="stroke: rgb(200,200,200); fill: none;"/>
	<circle cx="5.5in" cy="6.0in" r="0.5in" style="stroke: rgb(200,200,200); fill: none;"/>
	<circle cx="6.0in" cy="6.0in" r="0.5in" style="stroke: rgb(200,200,200); fill: none;"/>
	<circle cx="6.5in" cy="6.0in" r="0.5in" style="stroke: rgb(200,200,200); fill: none;"/>
	<circle cx="7.0in" cy="6.0in" r="0.5in" style="stroke: rgb(200,200,200); fill: none;"/>
	<circle cx="7.5in" cy="6.0in" r="0.5in" style="stroke: rgb(200,200,200); fill: none;"/>
	<circle cx="8.0in" cy="6.0in" r="0.5in" style="stroke: rgb(200,200,200); fill: none;"/>
	<circle cx="0.5in" cy="6.5in" r="0.5in" style="stroke: rgb(200,200,200); fill: none;"/>
	<circle cx="1.0in" cy="6.5in" r="0.5in" style="stroke: rgb(200,200,200); fill: none;"/>
	<circle cx="1.5in" cy="6.5in" r="0.5in" style="stroke: rgb(200,200,200); fill: none;"/>
	<circle cx="2.0in" cy="6.5in" r="0.5in" style="stroke: rgb(200,200,200); fill: none;"/>
	<circle cx="2.5in" cy="6.5in" r="0.5in" style="stroke: rgb(200,200,200); fill: none;"/>
	<circle cx="3.0in" cy="6.5in" r="0.5in" style="stroke: rgb(200,200,200); fill: none;"/>
	<circle cx="3.5in" cy="6.5in" r="0.5in" style="stroke: rgb(200,200,200); fill: none;"/>
	<circle cx="4.0in" cy="6.5in" r="0.5in" style="stroke: rgb(200,200,200); fill: none;"/>
	<circle cx="4.5in" cy="6.5in" r="0.5in" style="stroke: rgb(200,200,200); fill: none;"/>
	<circle cx="5.0in" cy="6.5in" r="0.5in" style="stroke: rgb(200,200,200); fill: none;"/>
	<circle cx="5.5in" cy="6.5in" r="0.5in" style="stroke: rgb(200,200,200); fill: none;"/>
	<circle cx="6.0in" cy="6.5in" r="0.5in" style="stroke: rgb(200,200,200); fill: none;"/>
	<circle cx="6.5in" cy="6.5in" r="0.5in" style="stroke: rgb(200,200,200); fill: none;"/>
	<circle cx="7.0in" cy="6.5in" r="0.5in" style="stroke: rgb(200,200,200); fill: none;"/>
	<circle cx="7.5in" cy="6.5in" r="0.5in" style="stroke: rgb(200,200,200); fill: none;"/>
	<circle cx="8.0in" cy="6.5in" r="0.5in" style="stroke: rgb(200,200,200); fill: none;"/>
	<circle cx="0.5in" cy="7.0in" r="0.5in" style="stroke: rgb(200,200,200); fill: none;"/>
	<circle cx="1.0in" cy="7.0in" r="0.5in" style="stroke: rgb(200,200,200); fill: none;"/>
	<circle cx="1.5in" cy="7.0in" r="0.5in" style="stroke: rgb(200,200,200); fill: none;"/>
	<circle cx="2.0in" cy="7.0in" r="0.5in" style="stroke: rgb(200,200,200); fill: none;"/>
	<circle cx="2.5in" cy="7.0in" r="0.5in" style="stroke: rgb(200,200,200); fill: none;"/>
	<circle cx="3.0in" cy="7.0in" r="0.5in" style="stroke: rgb(200,200,200); fill: none;"/>
	<circle cx="3.5in" cy="7.0in" r="0.5in" style="stroke: rgb(200,200,200); fill: none;"/>
	<circle cx="4.0in" cy="7.0in" r="0.5in" style="stroke: rgb(200,200,200); fill: none;"/>
	<circle cx="4.5in" cy="7.0in" r="0.5in" style="stroke: rgb(200,200,200); fill: none;"/>
	<circle cx="5.0in" cy="7.0in" r="0.5in" style="stroke: rgb(200,200,200); fill: none;"/>
	<circle cx="5.5in" cy="7.0in" r="0.5in" style="stroke: rgb(200,200,200); fill: none;"/>
	<circle cx="6.0in" cy="7.0in" r="0.5in" style="stroke: rgb(200,200,200); fill: none;"/>
	<circle cx="6.5in" cy="7.0in" r="0.5in" style="stroke: rgb(200,200,200); fill: none;"/>
	<circle cx="7.0in" cy="7.0in" r="0.5in" style="stroke: rgb(200,200,200); fill: none;"/>
	<circle cx="7.5in" cy="7.0in" r="0.5in" style="stroke: rgb(200,200,200); fill: none;"/>
	<circle cx="8.0in" cy="7.0in" r="0.5in" style="stroke: rgb(200,200,200); fill: none;"/>
	<circle cx="0.5in" cy="7.5in" r="0.5in" style="stroke: rgb(200,200,200); fill: none;"/>
	<circle cx="1.0in" cy="7.5in" r="0.5in" style="stroke: rgb(200,200,200); fill: none;"/>
	<circle cx="1.5in" cy="7.5in" r="0.5in" style="stroke: rgb(200,200,200); fill: none;"/>
	<circle cx="2.0in" cy="7.5in" r="0.5in" style="stroke: rgb(200,200,200); fill: none;"/>
	<circle cx="2.5in" cy="7.5in" r="0.5in" style="stroke: rgb(200,200,200); fill: none;"/>
	<circle cx="3.0in" cy="7.5in" r="0.5in" style="stroke: rgb(200,200,200); fill: none;"/>
	<circle cx="3.5in" cy="7.5in" r="0.5in" style="stroke: rgb(200,200,200); fill: none;"/>
	<circle cx="4.0in" cy="7.5in" r="0.5in" style="stroke: rgb(200,200,200); fill: none;"/>
	<circle cx="4.5in" cy="7.5in" r="0.5in" style="stroke: rgb(200,200,200); fill: none;"/>
	<circle cx="5.0in" cy="7.5in" r="0.5in" style="stroke: rgb(200,200,200); fill: none;"/>
	<circle cx="5.5in" cy="7.5in" r="0.5in" style="stroke: rgb(200,200,200); fill: none;"/>
	<circle cx="6.0in" cy="7.5in" r="0.5in" style="stroke: rgb(200,200,200); fill: none;"/>
	<circle cx="6.5in" cy="7.5in" r="0.5in" style="stroke: rgb(200,200,200); fill: none;"/>
	<circle cx="7.0in" cy="7.5in" r="0.5in" style="stroke: rgb(200,200,200); fill: none;"/>
	<circle cx="7.5in" cy="7.5in" r="0.5in" style="stroke: rgb(200,200,200); fill: none;"/>
	<circle cx="8.0in" cy="7.5in" r="0.5in" style="stroke: rgb(200,200,200); fill: none;"/>
	<circle cx="0.5in" cy="8.0in" r="0.5in" style="stroke: rgb(200,200,200); fill: none;"/>
	<circle cx="1.0in" cy="8.0in" r="0.5in" style="stroke: rgb(200,200,200); fill: none;"/>
	<circle cx="1.5in" cy="8.0in" r="0.5in" style="stroke: rgb(200,200,200); fill: none;"/>
	<circle cx="2.0in" cy="8.0in" r="0.5in" style="stroke: rgb(200,200,200); fill: none;"/>
	<circle cx="2.5in" cy="8.0in" r="0.5in" style="stroke: rgb(200,200,200); fill: none;"/>
	<circle cx="3.0in" cy="8.0in" r="0.5in" style="stroke: rgb(200,200,200); fill: none;"/>
	<circle cx="3.5in" cy="8.0in" r="0.5in" style="stroke: rgb(200,200,200); fill: none;"/>
	<circle cx="4.0in" cy="8.0in" r="0.5in" style="stroke: rgb(200,200,200); fill: none;"/>
	<circle cx="4.5in" cy="8.0in" r="0.5in" style="stroke: rgb(200,200,200); fill: none;"/>
	<circle cx="5.0in" cy="8.0in" r="0.5in" style="stroke: rgb(200,200,200); fill: none;"/>
	<circle cx="5.5in" cy="8.0in" r="0.5in" style="stroke: rgb(200,200,200); fill: none;"/>
	<circle cx="6.0in" cy="8.0in" r="0.5in" style="stroke: rgb(200,200,200); fill: none;"/>
	<circle cx="6.5in" cy="8.0in" r="0.5in" style="stroke: rgb(200,200,200); fill: none;"/>
	<circle cx="7.0in" cy="8.0in" r="0.5in" style="stroke: rgb(200,200,200); fill: none;"/>
	<circle cx="7.5in" cy="8.0in" r="0.5in" style="stroke: rgb(200,200,200); fill: none;"/>
	<circle cx="8.0in" cy="8.0in" r="0.5in" style="stroke: rgb(200,200,200); fill: none;"/>
	<circle cx="0.5in" cy="8.5in" r="0.5in" style="stroke: rgb(200,200,200); fill: none;"/>
	<circle cx="1.0in" cy="8.5in" r="0.5in" style="stroke: rgb(200,200,200); fill: none;"/>
	<circle cx="1.5in" cy="8.5in" r="0.5in" style="stroke: rgb(200,200,200); fill: none;"/>
	<circle cx="2.0in" cy="8.5in" r="0.5in" style="stroke: rgb(200,200,200); fill: none;"/>
	<circle cx="2.5in" cy="8.5in" r="0.5in" style="stroke: rgb(200,200,200); fill: none;"/>
	<circle cx="3.0in" cy="8.5in" r="0.5in" style="stroke: rgb(200,200,200); fill: none;"/>
	<circle cx="3.5in" cy="8.5in" r="0.5in" style="stroke: rgb(200,200,200); fill: none;"/>
	<circle cx="4.0in" cy="8.5in" r="0.5in" style="stroke: rgb(200,200,200); fill: none;"/>
	<circle cx="4.5in" cy="8.5in" r="0.5in" style="stroke: rgb(200,200,200); fill: none;"/>
	<circle cx="5.0in" cy="8.5in" r="0.5in" style="stroke: rgb(200,200,200); fill: none;"/>
	<circle cx="5.5in" cy="8.5in" r="0.5in" style="stroke: rgb(200,200,200); fill: none;"/>
	<circle cx="6.0in" cy="8.5in" r="0.5in" style="stroke: rgb(200,200,200); fill: none;"/>
	<circle cx="6.5in" cy="8.5in" r="0.5in" style="stroke: rgb(200,200,200); fill: none;"/>
	<circle cx="7.0in" cy="8.5in" r="0.5in" style="stroke: rgb(200,200,200); fill: none;"/>
	<circle cx="7.5in" cy="8.5in" r="0.5in" style="stroke: rgb(200,200,200); fill: none;"/>
	<circle cx="8.0in" cy="8.5in" r="0.5in" style="stroke: rgb(200,200,200); fill: none;"/>
	<circle cx="0.5in" cy="9.0in" r="0.5in" style="stroke: rgb(200,200,200); fill: none;"/>
	<circle cx="1.0in" cy="9.0in" r="0.5in" style="stroke: rgb(200,200,200); fill: none;"/>
	<circle cx="1.5in" cy="9.0in" r="0.5in" style="stroke: rgb(200,200,200); fill: none;"/>
	<circle cx="2.0in" cy="9.0in" r="0.5in" style="stroke: rgb(200,200,200); fill: none;"/>
	<circle cx="2.5in" cy="9.0in" r="0.5in" style="stroke: rgb(200,200,200); fill: none;"/>
	<circle cx="3.0in" cy="9.0in" r="0.5in" style="stroke: rgb(200,200,200); fill: none;"/>
	<circle cx="3.5in" cy="9.0in" r="0.5in" style="stroke: rgb(200,200,200); fill: none;"/>
	<circle cx="4.0in" cy="9.0in" r="0.5in" style="stroke: rgb(200,200,200); fill: none;"/>
	<circle cx="4.5in" cy="9.0in" r="0.5in" style="stroke: rgb(200,200,200); fill: none;"/>
	<circle cx="5.0in" cy="9.0in" r="0.5in" style="stroke: rgb(200,200,200); fill: none;"/>
	<circle cx="5.5in" cy="9.0in" r="0.5in" style="stroke: rgb(200,200,200); fill: none;"/>
	<circle cx="6.0in" cy="9.0in" r="0.5in" style="stroke: rgb(200,200,200); fill: none;"/>
	<circle cx="6.5in" cy="9.0in" r="0.5in" style="stroke: rgb(200,200,200); fill: none;"/>
	<circle cx="7.0in" cy="9.0in" r="0.5in" style="stroke: rgb(200,200,200); fill: none;"/>
	<circle cx="7.5in" cy="9.0in" r="0.5in" style="stroke: rgb(200,200,200); fill: none;"/>
	<circle cx="8.0in" cy="9.0in" r="0.5in" style="stroke: rgb(200,200,200); fill: none;"/>
	<circle cx="0.5in" cy="9.5in" r="0.5in" style="stroke: rgb(200,200,200); fill: none;"/>
	<circle cx="1.0in" cy="9.5in" r="0.5in" style="stroke: rgb(200,200,200); fill: none;"/>
	<circle cx="1.5in" cy="9.5in" r="0.5in" style="stroke: rgb(200,200,200); fill: none;"/>
	<circle cx="2.0in" cy="9.5in" r="0.5in" style="stroke: rgb(200,200,200); fill: none;"/>
	<circle cx="2.5in" cy="9.5in" r="0.5in" style="stroke: rgb(200,200,200); fill: none;"/>
	<circle cx="3.0in" cy="9.5in" r="0.5in" style="stroke: rgb(200,200,200); fill: none;"/>
	<circle cx="3.5in" cy="9.5in" r="0.5in" style="stroke: rgb(200,200,200); fill: none;"/>
	<circle cx="4.0in" cy="9.5in" r="0.5in" style="stroke: rgb(200,200,200); fill: none;"/>
	<circle cx="4.5in" cy="9.5in" r="0.5in" style="stroke: rgb(200,200,200); fill: none;"/>
	<circle cx="5.0in" cy="9.5in" r="0.5in" style="stroke: rgb(200,200,200); fill: none;"/>
	<circle cx="5.5in" cy="9.5in" r="0.5in" style="stroke: rgb(200,200,200); fill: none;"/>
	<circle cx="6.0in" cy="9.5in" r="0.5in" style="stroke: rgb(200,200,200); fill: none;"/>
	<circle cx="6.5in" cy="9.5in" r="0.5in" style="stroke: rgb(200,200,200); fill: none;"/>
	<circle cx="7.0in" cy="9.5in" r="0.5in" style="stroke: rgb(200,200,200); fill: none;"/>
	<circle cx="7.5in" cy="9.5in" r="0.5in" style="stroke: rgb(200,200,200); fill: none;"/>
	<circle cx="8.0in" cy="9.5in" r="0.5in" style="stroke: rgb(200,200,200); fill: none;"/>
	<circle cx="0.5in" cy="10.0in" r="0.5in" style="stroke: rgb(200,200,200); fill: none;"/>
	<circle cx="1.0in" cy="10.0in" r="0.5in" style="stroke: rgb(200,200,200); fill: none;"/>
	<circle cx="1.5in" cy="10.0in" r="0.5in" style="stroke: rgb(200,200,200); fill: none;"/>
	<circle cx="2.0in" cy="10.0in" r="0.5in" style="stroke: rgb(200,200,200); fill: none;"/>
	<circle cx="2.5in" cy="10.0in" r="0.5in" style="stroke: rgb(200,200,200); fill: none;"/>
	<circle cx="3.0in" cy="10.0in" r="0.5in" style="stroke: rgb(200,200,200); fill: none;"/>
	<circle cx="3.5in" cy="10.0in" r="0.5in" style="stroke: rgb(200,200,200); fill: none;"/>
	<circle cx="4.0in" cy="10.0in" r="0.5in" style="stroke: rgb(200,200,200); fill: none;"/>
	<circle cx="4.5in" cy="10.0in" r="0.5in" style="stroke: rgb(200,200,200); fill: none;"/>
	<circle cx="5.0in" cy="10.0in" r="0.5in" style="stroke: rgb(200,200,200); fill: none;"/>
	<circle cx="5.5in" cy="10.0in" r="0.5in" style="stroke: rgb(200,200,200); fill: none;"/>
	<circle cx="6.0in" cy="10.0in" r="0.5in" style="stroke: rgb(200,200,200); fill: none;"/>
	<circle cx="6.5in" cy="10.0in" r="0.5in" style="stroke: rgb(200,200,200); fill: none;"/>
	<circle cx="7.0in" cy="10.0in" r="0.5in" style="stroke: rgb(200,200,200); fill: none;"/>
	<circle cx="7.5in" cy="10.0in" r="0.5in" style="stroke: rgb(200,200,200); fill: none;"/>
	<circle cx="8.0in" cy="10.0in" r="0.5in" style="stroke: rgb(200,200,200); fill: none;"/>
	<circle cx="0.5in" cy="10.5in" r="0.5in" style="stroke: rgb(200,200,200); fill: none;"/>
	<circle cx="1.0in" cy="10.5in" r="0.5in" style="stroke: rgb(200,200,200); fill: none;"/>
	<circle cx="1.5in" cy="10.5in" r="0.5in" style="stroke: rgb(200,200,200); fill: none;"/>
	<circle cx="2.0in" cy="10.5in" r="0.5in" style="stroke: rgb(200,200,200); fill: none;"/>
	<circle cx="2.5in" cy="10.5in" r="0.5in" style="stroke: rgb(200,200,200); fill: none;"/>
	<circle cx="3.0in" cy="10.5in" r="0.5in" style="stroke: rgb(200,200,200); fill: none;"/>
	<circle cx="3.5in" cy="10.5in" r="0.5in" style="stroke: rgb(200,200,200); fill: none;"/>
	<circle cx="4.0in" cy="10.5in" r="0.5in" style="stroke: rgb(200,200,200); fill: none;"/>
	<circle cx="4.5in" cy="10.5in" r="0.5in" style="stroke: rgb(200,200,200); fill: none;"/>
	<circle cx="5.0in" cy="10.5in" r="0.5in" style="stroke: rgb(200,200,200); fill: none;"/>
	<circle cx="5.5in" cy="10.5in" r="0.5in" style="stroke: rgb(200,200,200); fill: none;"/>
	<circle cx="6.0in" cy="10.5in" r="0.5in" style="stroke: rgb(200,200,200); fill: none;"/>
	<circle cx="6.5in" cy="10.5in" r="0.5in" style="stroke: rgb(200,200,200); fill: none;"/>
	<circle cx="7.0in" cy="10.5in" r="0.5in" style="stroke: rgb(200,200,200); fill: none;"/>
	<circle cx="7.5in" cy="10.5in" r="0.5in" style="stroke: rgb(200,200,200); fill: none;"/>
	<circle cx="8.0in" cy="10.5in" r="0.5in" style="stroke: rgb(200,200,200); fill: none;"/>
</svg>