<?xml version="1.0" encoding="UTF-8" standalone="no"?>
<!DOCTYPE svg PUBLIC "-//W3C//DTD SVG 1.1//EN" "http://www.w3.org/Graphics/SVG/1.1/DTD/svg11.dtd">
<svg width="100%" height="100%" viewBox="0 0 2550.0 3300" xmlns="http://www.w3.org/2000/svg">
	<polygon points="75.0,0.0 139.9519052838329,37.5 139.9519052838329,112.49999999999999 75.0,150.0 10.048094716167114,112.50000000000003 10.0480947161671,37.49999999999999" style="stroke: rgb(200,200,200); stroke-width:4; fill: none;"/>
	<polygon points="225.0,0.0 289.9519052838329,37.5 289.9519052838329,112.49999999999999 225.0,150.0 160.0480947161671,112.50000000000003 160.0480947161671,37.49999999999999" style="stroke: rgb(200,200,200); stroke-width:4; fill: none;"/>
	<polygon points="375.0,0.0 439.9519052838329,37.5 439.9519052838329,112.49999999999999 375.0,150.0 310.0480947161671,112.50000000000003 310.0480947161671,37.49999999999999" style="stroke: rgb(200,200,200); stroke-width:4; fill: none;"/>
	<polygon points="525.0,0.0 589.951905283833,37.5 589.951905283833,112.49999999999999 525.0,150.0 460.0480947161671,112.50000000000003 460.0480947161671,37.49999999999999" style="stroke: rgb(200,200,200); stroke-width:4; fill: none;"/>
	<polygon points="675.0,0.0 739.951905283833,37.5 739.951905283833,112.49999999999999 675.0,150.0 610.0480947161672,112.50000000000003 610.048094716167,37.49999999999999" style="stroke: rgb(200,200,200); stroke-width:4; fill: none;"/>
	<polygon points="825.0,0.0 889.951905283833,37.5 889.951905283833,112.49999999999999 825.0,150.0 760.0480947161672,112.50000000000003 760.048094716167,37.49999999999999" style="stroke: rgb(200,200,200); stroke-width:4; fill: none;"/>
	<polygon points="975.0,0.0 1039.951905283833,37.5 1039.951905283833,112.49999999999999 975.0,150.0 910.0480947161672,112.50000000000003 910.048094716167,37.49999999999999" style="stroke: rgb(200,200,200); stroke-width:4; fill: none;"/>
	<polygon points="1125.0,0.0 1189.951905283833,37.5 1189.951905283833,112.49999999999999 1125.0,150.0 1060.048094716167,112.50000000000003 1060.048094716167,37.49999999999999" style="stroke: rgb(200,200,200); stroke-width:4; fill: none;"/>
	<polygon points="1275.0,0.0 1339.951905283833,37.5 1339.951905283833,112.49999999999999 1275.0,150.0 1210.048094716167,112.50000000000003 1210.048094716167,37.49999999999999" style="stroke: rgb(200,200,200); stroke-width:4; fill: none;"/>
	<polygon points="1425.0,0.0 1489.951905283833,37.5 1489.951905283833,112.49999999999999 1425.0,150.0 1360.048094716167,112.50000000000003 1360.048094716167,37.49999999999999" style="stroke: rgb(200,200,200); stroke-width:4; fill: none;"/>
	<polygon points="1575.0,0.0 1639.951905283833,37.5 1639.951905283833,112.49999999999999 1575.0,150.0 1510.048094716167,112.50000000000003 1510.048094716167,37.49999999999999" style="stroke: rgb(200,200,200); stroke-width:4; fill: none;"/>
	<polygon points="1725.0,0.0 1789.951905283833,37.5 1789.951905283833,112.49999999999999 1725.0,150.0 1660.048094716167,112.50000000000003 1660.048094716167,37.49999999999999" style="stroke: rgb(200,200,200); stroke-width:4; fill: none;"/>
	<polygon points="1875.0,0.0 1939.951905283833,37.5 1939.951905283833,112.49999999999999 1875.0,150.0 1810.048094716167,112.50000000000003 1810.048094716167,37.49999999999999" style="stroke: rgb(200,200,200); stroke-width:4; fill: none;"/>
	<polygon points="2025.0,0.0 2089.9519052838327,37.5 2089.9519052838327,112.49999999999999 2025.0,150.0 1960.048094716167,112.50000000000003 1960.048094716167,37.49999999999999" style="stroke: rgb(200,200,200); stroke-width:4; fill: none;"/>
	<polygon points="2175.0,0.0 2239.9519052838327,37.5 2239.9519052838327,112.49999999999999 2175.0,150.0 2110.0480947161673,112.50000000000003 2110.0480947161673,37.49999999999999" style="stroke: rgb(200,200,200); stroke-width:4; fill: none;"/>
	<polygon points="2325.0,0.0 2389.9519052838327,37.5 2389.9519052838327,112.49999999999999 2325.0,150.0 2260.0480947161673,112.50000000000003 2260.0480947161673,37.49999999999999" style="stroke: rgb(200,200,200); stroke-width:4; fill: none;"/>
	<polygon points="2475.0,0.0 2539.9519052838327,37.5 2539.9519052838327,112.49999999999999 2475.0,150.0 2410.0480947161673,112.50000000000003 2410.0480947161673,37.49999999999999" style="stroke: rgb(200,200,200); stroke-width:4; fill: none;"/>
	<polygon points="150.0,150.0 214.9519052838329,187.5 214.9519052838329,262.5 150.0,300.0 85.04809471616711,262.5 85.0480947161671,187.5" style="stroke: rgb(200,200,200); stroke-width:4; fill: none;"/>
	<polygon points="300.0,150.0 364.9519052838329,187.5 364.9519052838329,262.5 300.0,300.0 235.0480947161671,262.5 235.0480947161671,187.5" style="stroke: rgb(200,200,200); stroke-width:4; fill: none;"/>
	<polygon points="450.0,150.0 514.951905283833,187.5 514.951905283833,262.5 450.0,300.0 385.0480947161671,262.5 385.0480947161671,187.5" style="stroke: rgb(200,200,200); stroke-width:4; fill: none;"/>
	<polygon points="600.0,150.0 664.951905283833,187.5 664.951905283833,262.5 600.0,300.0 535.0480947161672,262.5 535.048094716167,187.5" style="stroke: rgb(200,200,200); stroke-width:4; fill: none;"/>
	<polygon points="750.0,150.0 814.951905283833,187.5 814.951905283833,262.5 750.0,300.0 685.0480947161672,262.5 685.048094716167,187.5" style="stroke: rgb(200,200,200); stroke-width:4; fill: none;"/>
	<polygon points="900.0,150.0 964.951905283833,187.5 964.951905283833,262.5 900.0,300.0 835.0480947161672,262.5 835.048094716167,187.5" style="stroke: rgb(200,200,200); stroke-width:4; fill: none;"/>
	<polygon points="1050.0,150.0 1114.951905283833,187.5 1114.951905283833,262.5 1050.0,300.0 985.0480947161672,262.5 985.048094716167,187.5" style="stroke: rgb(200,200,200); stroke-width:4; fill: none;"/>
	<polygon points="1200.0,150.0 1264.951905283833,187.5 1264.951905283833,262.5 1200.0,300.0 1135.048094716167,262.5 1135.048094716167,187.5" style="stroke: rgb(200,200,200); stroke-width:4; fill: none;"/>
	<polygon points="1350.0,150.0 1414.951905283833,187.5 1414.951905283833,262.5 1350.0,300.0 1285.048094716167,262.5 1285.048094716167,187.5" style="stroke: rgb(200,200,200); stroke-width:4; fill: none;"/>
	<polygon points="1500.0,150.0 1564.951905283833,187.5 1564.951905283833,262.5 1500.0,300.0 1435.048094716167,262.5 1435.048094716167,187.5" style="stroke: rgb(200,200,200); stroke-width:4; fill: none;"/>
	<polygon points="1650.0,150.0 1714.951905283833,187.5 1714.951905283833,262.5 1650.0,300.0 1585.048094716167,262.5 1585.048094716167,187.5" style="stroke: rgb(200,200,200); stroke-width:4; fill: none;"/>
	<polygon points="1800.0,150.0 1864.951905283833,187.5 1864.951905283833,262.5 1800.0,300.0 1735.048094716167,262.5 1735.048094716167,187.5" style="stroke: rgb(200,200,200); stroke-width:4; fill: none;"/>
	<polygon points="1950.0,150.0 2014.951905283833,187.5 2014.951905283833,262.5 1950.0,300.0 1885.048094716167,262.5 1885.048094716167,187.5" style="stroke: rgb(200,200,200); stroke-width:4; fill: none;"/>
	<polygon points="2100.0,150.0 2164.9519052838327,187.5 2164.9519052838327,262.5 2100.0,300.0 2035.048094716167,262.5 2035.048094716167,187.5" style="stroke: rgb(200,200,200); stroke-width:4; fill: none;"/>
	<polygon points="2250.0,150.0 2314.9519052838327,187.5 2314.9519052838327,262.5 2250.0,300.0 2185.0480947161673,262.5 2185.0480947161673,187.5" style="stroke: rgb(200,200,200); stroke-width:4; fill: none;"/>
	<polygon points="2400.0,150.0 2464.9519052838327,187.5 2464.9519052838327,262.5 2400.0,300.0 2335.0480947161673,262.5 2335.0480947161673,187.5" style="stroke: rgb(200,200,200); stroke-width:4; fill: none;"/>
	<polygon points="2550.0,150.0 2614.9519052838327,187.5 2614.9519052838327,262.5 2550.0,300.0 2485.0480947161673,262.5 2485.0480947161673,187.5" style="stroke: rgb(200,200,200); stroke-width:4; fill: none;"/>
	<polygon points="75.0,300.0 139.9519052838329,337.5 139.9519052838329,412.5 75.0,450.0 10.048094716167114,412.5 10.0480947161671,337.5" style="stroke: rgb(200,200,200); stroke-width:4; fill: none;"/>
	<polygon points="225.0,300.0 289.9519052838329,337.5 289.9519052838329,412.5 225.0,450.0 160.0480947161671,412.5 160.0480947161671,337.5" style="stroke: rgb(200,200,200); stroke-width:4; fill: none;"/>
	<polygon points="375.0,300.0 439.9519052838329,337.5 439.9519052838329,412.5 375.0,450.0 310.0480947161671,412.5 310.0480947161671,337.5" style="stroke: rgb(200,200,200); stroke-width:4; fill: none;"/>
	<polygon points="525.0,300.0 589.951905283833,337.5 589.951905283833,412.5 525.0,450.0 460.0480947161671,412.5 460.0480947161671,337.5" style="stroke: rgb(200,200,200); stroke-width:4; fill: none;"/>
	<polygon points="675.0,300.0 739.951905283833,337.5 739.951905283833,412.5 675.0,450.0 610.0480947161672,412.5 610.048094716167,337.5" style="stroke: rgb(200,200,200); stroke-width:4; fill: none;"/>
	<polygon points="825.0,300.0 889.951905283833,337.5 889.951905283833,412.5 825.0,450.0 760.0480947161672,412.5 760.048094716167,337.5" style="stroke: rgb(200,200,200); stroke-width:4; fill: none;"/>
	<polygon points="975.0,300.0 1039.951905283833,337.5 1039.951905283833,412.5 975.0,450.0 910.0480947161672,412.5 910.048094716167,337.5" style="stroke: rgb(200,200,200); stroke-width:4; fill: none;"/>
	<polygon points="1125.0,300.0 1189.951905283833,337.5 1189.951905283833,412.5 1125.0,450.0 1060.048094716167,412.5 1060.048094716167,337.5" style="stroke: rgb(200,200,200); stroke-width:4; fill: none;"/>
	<polygon points="1275.0,300.0 1339.951905283833,337.5 1339.951905283833,412.5 1275.0,450.0 1210.048094716167,412.5 1210.048094716167,337.5" style="stroke: rgb(200,200,200); stroke-width:4; fill: none;"/>
	<polygon points="1425.0,300.0 1489.951905283833,337.5 1489.951905283833,412.5 1425.0,450.0 1360.048094716167,412.5 1360.048094716167,337.5" style="stroke: rgb(200,200,200); stroke-width:4; fill: none;"/>
	<polygon points="1575.0,300.0 1639.951905283833,337.5 1639.951905283833,412.5 1575.0,450.0 1510.048094716167,412.5 1510.048094716167,337.5" style="stroke: rgb(200,200,200); stroke-width:4; fill: none;"/>
	<polygon points="1725.0,300.0 1789.951905283833,337.5 1789.951905283833,412.5 1725.0,450.0 1660.048094716167,412.5 1660.048094716167,337.5" style="stroke: rgb(200,200,200); stroke-width:4; fill: none;"/>
	<polygon points="1875.0,300.0 1939.951905283833,337.5 1939.951905283833,412.5 1875.0,450.0 1810.048094716167,412.5 1810.048094716167,337.5" style="stroke: rgb(200,200,200); stroke-width:4; fill: none;"/>
	<polygon points="2025.0,300.0 2089.9519052838327,337.5 2089.9519052838327,412.5 2025.0,450.0 1960.048094716167,412.5 1960.048094716167,337.5" style="stroke: rgb(200,200,200); stroke-width:4; fill: none;"/>
	<polygon points="2175.0,300.0 2239.9519052838327,337.5 2239.9519052838327,412.5 2175.0,450.0 2110.0480947161673,412.5 2110.0480947161673,337.5" style="stroke: rgb(200,200,200); stroke-width:4; fill: none;"/>
	<polygon points="2325.0,300.0 2389.9519052838327,337.5 2389.9519052838327,412.5 2325.0,450.0 2260.0480947161673,412.5 2260.0480947161673,337.5" style="stroke: rgb(200,200,200); stroke-width:4; fill: none;"/>
	<polygon points="2475.0,300.0 2539.9519052838327,337.5 2539.9519052838327,412.5 2475.0,450.0 2410.0480947161673,412.5 2410.0480947161673,337.5" style="stroke: rgb(200,200,200); stroke-width:4; fill: none;"/>
	<polygon points="150.0,450.0 214.9519052838329,487.5 214.9519052838329,562.5 150.0,600.0 85.04809471616711,562.5 85.0480947161671,487.5" style="stroke: rgb(200,200,200); stroke-width:4; fill: none;"/>
	<polygon points="300.0,450.0 364.9519052838329,487.5 364.9519052838329,562.5 300.0,600.0 235.0480947161671,562.5 235.0480947161671,487.5" style="stroke: rgb(200,200,200); stroke-width:4; fill: none;"/>
	<polygon points="450.0,450.0 514.951905283833,487.5 514.951905283833,562.5 450.0,600.0 385.0480947161671,562.5 385.0480947161671,487.5" style="stroke: rgb(200,200,200); stroke-width:4; fill: none;"/>
	<polygon points="600.0,450.0 664.951905283833,487.5 664.951905283833,562.5 600.0,600.0 535.0480947161672,562.5 535.048094716167,487.5" style="stroke: rgb(200,200,200); stroke-width:4; fill: none;"/>
	<polygon points="750.0,450.0 814.951905283833,487.5 814.951905283833,562.5 750.0,600.0 685.0480947161672,562.5 685.048094716167,487.5" style="stroke: rgb(200,200,200); stroke-width:4; fill: none;"/>
	<polygon points="900.0,450.0 964.951905283833,487.5 964.951905283833,562.5 900.0,600.0 835.0480947161672,562.5 835.048094716167,487.5" style="stroke: rgb(200,200,200); stroke-width:4; fill: none;"/>
	<polygon points="1050.0,450.0 1114.951905283833,487.5 1114.951905283833,562.5 1050.0,600.0 985.0480947161672,562.5 985.048094716167,487.5" style="stroke: rgb(200,200,200); stroke-width:4; fill: none;"/>
	<polygon points="1200.0,450.0 1264.951905283833,487.5 1264.951905283833,562.5 1200.0,600.0 1135.048094716167,562.5 1135.048094716167,487.5" style="stroke: rgb(200,200,200); stroke-width:4; fill: none;"/>
	<polygon points="1350.0,450.0 1414.951905283833,487.5 1414.951905283833,562.5 1350.0,600.0 1285.048094716167,562.5 1285.048094716167,487.5" style="stroke: rgb(200,200,200); stroke-width:4; fill: none;"/>
	<polygon points="1500.0,450.0 1564.951905283833,487.5 1564.951905283833,562.5 1500.0,600.0 1435.048094716167,562.5 1435.048094716167,487.5" style="stroke: rgb(200,200,200); stroke-width:4; fill: none;"/>
	<polygon points="1650.0,450.0 1714.951905283833,487.5 1714.951905283833,562.5 1650.0,600.0 1585.048094716167,562.5 1585.048094716167,487.5" style="stroke: rgb(200,200,200); stroke-width:4; fill: none;"/>
	<polygon points="1800.0,450.0 1864.951905283833,487.5 1864.951905283833,562.5 1800.0,600.0 1735.048094716167,562.5 1735.048094716167,487.5" style="stroke: rgb(200,200,200); stroke-width:4; fill: none;"/>
	<polygon points="1950.0,450.0 2014.951905283833,487.5 2014.951905283833,562.5 1950.0,600.0 1885.048094716167,562.5 1885.048094716167,487.5" style="stroke: rgb(200,200,200); stroke-width:4; fill: none;"/>
	<polygon points="2100.0,450.0 2164.9519052838327,487.5 2164.9519052838327,562.5 2100.0,600.0 2035.048094716167,562.5 2035.048094716167,487.5" style="stroke: rgb(200,200,200); stroke-width:4; fill: none;"/>
	<polygon points="2250.0,450.0 2314.9519052838327,487.5 2314.9519052838327,562.5 2250.0,600.0 2185.0480947161673,562.5 2185.0480947161673,487.5" style="stroke: rgb(200,200,200); stroke-width:4; fill: none;"/>
	<polygon points="2400.0,450.0 2464.9519052838327,487.5 2464.9519052838327,562.5 2400.0,600.0 2335.0480947161673,562.5 2335.0480947161673,487.5" style="stroke: rgb(200,200,200); stroke-width:4; fill: none;"/>
	<polygon points="2550.0,450.0 2614.9519052838327,487.5 2614.9519052838327,562.5 2550.0,600.0 2485.0480947161673,562.5 2485.0480947161673,487.5" style="stroke: rgb(200,200,200); stroke-width:4; fill: none;"/>
	<polygon points="75.0,600.0 139.9519052838329,637.5 139.9519052838329,712.5 75.0,750.0 10.048094716167114,712.5 10.0480947161671,637.5" style="stroke: rgb(200,200,200); stroke-width:4; fill: none;"/>
	<polygon points="225.0,600.0 289.9519052838329,637.5 289.9519052838329,712.5 225.0,750.0 160.0480947161671,712.5 160.0480947161671,637.5" style="stroke: rgb(200,200,200); stroke-width:4; fill: none;"/>
	<polygon points="375.0,600.0 439.9519052838329,637.5 439.9519052838329,712.5 375.0,750.0 310.0480947161671,712.5 310.0480947161671,637.5" style="stroke: rgb(200,200,200); stroke-width:4; fill: none;"/>
	<polygon points="525.0,600.0 589.951905283833,637.5 589.951905283833,712.5 525.0,750.0 460.0480947161671,712.5 460.0480947161671,637.5" style="stroke: rgb(200,200,200); stroke-width:4; fill: none;"/>
	<polygon points="675.0,600.0 739.951905283833,637.5 739.951905283833,712.5 675.0,750.0 610.0480947161672,712.5 610.048094716167,637.5" style="stroke: rgb(200,200,200); stroke-width:4; fill: none;"/>
	<polygon points="825.0,600.0 889.951905283833,637.5 889.951905283833,712.5 825.0,750.0 760.0480947161672,712.5 760.048094716167,637.5" style="stroke: rgb(200,200,200); stroke-width:4; fill: none;"/>
	<polygon points="975.0,600.0 1039.951905283833,637.5 1039.951905283833,712.5 975.0,750.0 910.0480947161672,712.5 910.048094716167,637.5" style="stroke: rgb(200,200,200); stroke-width:4; fill: none;"/>
	<polygon points="1125.0,600.0 1189.951905283833,637.5 1189.951905283833,712.5 1125.0,750.0 1060.048094716167,712.5 1060.048094716167,637.5" style="stroke: rgb(200,200,200); stroke-width:4; fill: none;"/>
	<polygon points="1275.0,600.0 1339.951905283833,637.5 1339.951905283833,712.5 1275.0,750.0 1210.048094716167,712.5 1210.048094716167,637.5" style="stroke: rgb(200,200,200); stroke-width:4; fill: none;"/>
	<polygon points="1425.0,600.0 1489.951905283833,637.5 1489.951905283833,712.5 1425.0,750.0 1360.048094716167,712.5 1360.048094716167,637.5" style="stroke: rgb(200,200,200); stroke-width:4; fill: none;"/>
	<polygon points="1575.0,600.0 1639.951905283833,637.5 1639.951905283833,712.5 1575.0,750.0 1510.048094716167,712.5 1510.048094716167,637.5" style="stroke: rgb(200,200,200); stroke-width:4; fill: none;"/>
	<polygon points="1725.0,600.0 1789.951905283833,637.5 1789.951905283833,712.5 1725.0,750.0 1660.048094716167,712.5 1660.048094716167,637.5" style="stroke: rgb(200,200,200); stroke-width:4; fill: none;"/>
	<polygon points="1875.0,600.0 1939.951905283833,637.5 1939.951905283833,712.5 1875.0,750.0 1810.048094716167,712.5 1810.048094716167,637.5" style="stroke: rgb(200,200,200); stroke-width:4; fill: none;"/>
	<polygon points="2025.0,600.0 2089.9519052838327,637.5 2089.9519052838327,712.5 2025.0,750.0 1960.048094716167,712.5 1960.048094716167,637.5" style="stroke: rgb(200,200,200); stroke-width:4; fill: none;"/>
	<polygon points="2175.0,600.0 2239.9519052838327,637.5 2239.9519052838327,712.5 2175.0,750.0 2110.0480947161673,712.5 2110.0480947161673,637.5" style="stroke: rgb(200,200,200); stroke-width:4; fill: none;"/>
	<polygon points="2325.0,600.0 2389.9519052838327,637.5 2389.9519052838327,712.5 2325.0,750.0 2260.0480947161673,712.5 2260.0480947161673,637.5" style="stroke: rgb(200,200,200); stroke-width:4; fill: none;"/>
	<polygon points="2475.0,600.0 2539.9519052838327,637.5 2539.9519052838327,712.5 2475.0,750.0 2410.0480947161673,712.5 2410.0480947161673,637.5" style="stroke: rgb(200,200,200); stroke-width:4; fill: none;"/>
	<polygon points="150.0,750.0 214.9519052838329,787.5 214.9519052838329,862.5 150.0,900.0 85.04809471616711,862.5 85.0480947161671,787.5" style="stroke: rgb(200,200,200); stroke-width:4; fill: none;"/>
	<polygon points="300.0,750.0 364.9519052838329,787.5 364.9519052838329,862.5 300.0,900.0 235.0480947161671,862.5 235.0480947161671,787.5" style="stroke: rgb(200,200,200); stroke-width:4; fill: none;"/>
	<polygon points="450.0,750.0 514.951905283833,787.5 514.951905283833,862.5 450.0,900.0 385.0480947161671,862.5 385.0480947161671,787.5" style="stroke: rgb(200,200,200); stroke-width:4; fill: none;"/>
	<polygon points="600.0,750.0 664.951905283833,787.5 664.951905283833,862.5 600.0,900.0 535.0480947161672,862.5 535.048094716167,787.5" style="stroke: rgb(200,200,200); stroke-width:4; fill: none;"/>
	<polygon points="750.0,750.0 814.951905283833,787.5 814.951905283833,862.5 750.0,900.0 685.0480947161672,862.5 685.048094716167,787.5" style="stroke: rgb(200,200,200); stroke-width:4; fill: none;"/>
	<polygon points="900.0,750.0 964.951905283833,787.5 964.951905283833,862.5 900.0,900.0 835.0480947161672,862.5 835.048094716167,787.5" style="stroke: rgb(200,200,200); stroke-width:4; fill: none;"/>
	<polygon points="1050.0,750.0 1114.951905283833,787.5 1114.951905283833,862.5 1050.0,900.0 985.0480947161672,862.5 985.048094716167,787.5" style="stroke: rgb(200,200,200); stroke-width:4; fill: none;"/>
	<polygon points="1200.0,750.0 1264.951905283833,787.5 1264.951905283833,862.5 1200.0,900.0 1135.048094716167,862.5 1135.048094716167,787.5" style="stroke: rgb(200,200,200); stroke-width:4; fill: none;"/>
	<polygon points="1350.0,750.0 1414.951905283833,787.5 1414.951905283833,862.5 1350.0,900.0 1285.048094716167,862.5 1285.048094716167,787.5" style="stroke: rgb(200,200,200); stroke-width:4; fill: none;"/>
	<polygon points="1500.0,750.0 1564.951905283833,787.5 1564.951905283833,862.5 1500.0,900.0 1435.048094716167,862.5 1435.048094716167,787.5" style="stroke: rgb(200,200,200); stroke-width:4; fill: none;"/>
	<polygon points="1650.0,750.0 1714.951905283833,787.5 1714.951905283833,862.5 1650.0,900.0 1585.048094716167,862.5 1585.048094716167,787.5" style="stroke: rgb(200,200,200); stroke-width:4; fill: none;"/>
	<polygon points="1800.0,750.0 1864.951905283833,787.5 1864.951905283833,862.5 1800.0,900.0 1735.048094716167,862.5 1735.048094716167,787.5" style="stroke: rgb(200,200,200); stroke-width:4; fill: none;"/>
	<polygon points="1950.0,750.0 2014.951905283833,787.5 2014.951905283833,862.5 1950.0,900.0 1885.048094716167,862.5 1885.048094716167,787.5" style="stroke: rgb(200,200,200); stroke-width:4; fill: none;"/>
	<polygon points="2100.0,750.0 2164.9519052838327,787.5 2164.9519052838327,862.5 2100.0,900.0 2035.048094716167,862.5 2035.048094716167,787.5" style="stroke: rgb(200,200,200); stroke-width:4; fill: none;"/>
	<polygon points="2250.0,750.0 2314.9519052838327,787.5 2314.9519052838327,862.5 2250.0,900.0 2185.0480947161673,862.5 2185.0480947161673,787.5" style="stroke: rgb(200,200,200); stroke-width:4; fill: none;"/>
	<polygon points="2400.0,750.0 2464.9519052838327,787.5 2464.9519052838327,862.5 2400.0,900.0 2335.0480947161673,862.5 2335.0480947161673,787.5" style="stroke: rgb(200,200,200); stroke-width:4; fill: none;"/>
	<polygon points="2550.0,750.0 2614.9519052838327,787.5 2614.9519052838327,862.5 2550.0,900.0 2485.0480947161673,862.5 2485.0480947161673,787.5" style="stroke: rgb(200,200,200); stroke-width:4; fill: none;"/>
	<polygon points="75.0,900.0 139.9519052838329,937.5 139.9519052838329,1012.5 75.0,1050.0 10.048094716167114,1012.5 10.0480947161671,937.5" style="stroke: rgb(200,200,200); stroke-width:4; fill: none;"/>
	<polygon points="225.0,900.0 289.9519052838329,937.5 289.9519052838329,1012.5 225.0,1050.0 160.0480947161671,1012.5 160.0480947161671,937.5" style="stroke: rgb(200,200,200); stroke-width:4; fill: none;"/>
	<polygon points="375.0,900.0 439.9519052838329,937.5 439.9519052838329,1012.5 375.0,1050.0 310.0480947161671,1012.5 310.0480947161671,937.5" style="stroke: rgb(200,200,200); stroke-width:4; fill: none;"/>
	<polygon points="525.0,900.0 589.951905283833,937.5 589.951905283833,1012.5 525.0,1050.0 460.0480947161671,1012.5 460.0480947161671,937.5" style="stroke: rgb(200,200,200); stroke-width:4; fill: none;"/>
	<polygon points="675.0,900.0 739.951905283833,937.5 739.951905283833,1012.5 675.0,1050.0 610.0480947161672,1012.5 610.048094716167,937.5" style="stroke: rgb(200,200,200); stroke-width:4; fill: none;"/>
	<polygon points="825.0,900.0 889.951905283833,937.5 889.951905283833,1012.5 825.0,1050.0 760.0480947161672,1012.5 760.048094716167,937.5" style="stroke: rgb(200,200,200); stroke-width:4; fill: none;"/>
	<polygon points="975.0,900.0 1039.951905283833,937.5 1039.951905283833,1012.5 975.0,1050.0 910.0480947161672,1012.5 910.048094716167,937.5" style="stroke: rgb(200,200,200); stroke-width:4; fill: none;"/>
	<polygon points="1125.0,900.0 1189.951905283833,937.5 1189.951905283833,1012.5 1125.0,1050.0 1060.048094716167,1012.5 1060.048094716167,937.5" style="stroke: rgb(200,200,200); stroke-width:4; fill: none;"/>
	<polygon points="1275.0,900.0 1339.951905283833,937.5 1339.951905283833,1012.5 1275.0,1050.0 1210.048094716167,1012.5 1210.048094716167,937.5" style="stroke: rgb(200,200,200); stroke-width:4; fill: none;"/>
	<polygon points="1425.0,900.0 1489.951905283833,937.5 1489.951905283833,1012.5 1425.0,1050.0 1360.048094716167,1012.5 1360.048094716167,937.5" style="stroke: rgb(200,200,200); stroke-width:4; fill: none;"/>
	<polygon points="1575.0,900.0 1639.951905283833,937.5 1639.951905283833,1012.5 1575.0,1050.0 1510.048094716167,1012.5 1510.048094716167,937.5" style="stroke: rgb(200,200,200); stroke-width:4; fill: none;"/>
	<polygon points="1725.0,900.0 1789.951905283833,937.5 1789.951905283833,1012.5 1725.0,1050.0 1660.048094716167,1012.5 1660.048094716167,937.5" style="stroke: rgb(200,200,200); stroke-width:4; fill: none;"/>
	<polygon points="1875.0,900.0 1939.951905283833,937.5 1939.951905283833,1012.5 1875.0,1050.0 1810.048094716167,1012.5 1810.048094716167,937.5" style="stroke: rgb(200,200,200); stroke-width:4; fill: none;"/>
	<polygon points="2025.0,900.0 2089.9519052838327,937.5 2089.9519052838327,1012.5 2025.0,1050.0 1960.048094716167,1012.5 1960.048094716167,937.5" style="stroke: rgb(200,200,200); stroke-width:4; fill: none;"/>
	<polygon points="2175.0,900.0 2239.9519052838327,937.5 2239.9519052838327,1012.5 2175.0,1050.0 2110.0480947161673,1012.5 2110.0480947161673,937.5" style="stroke: rgb(200,200,200); stroke-width:4; fill: none;"/>
	<polygon points="2325.0,900.0 2389.9519052838327,937.5 2389.9519052838327,1012.5 2325.0,1050.0 2260.0480947161673,1012.5 2260.0480947161673,937.5" style="stroke: rgb(200,200,200); stroke-width:4; fill: none;"/>
	<polygon points="2475.0,900.0 2539.9519052838327,937.5 2539.9519052838327,1012.5 2475.0,1050.0 2410.0480947161673,1012.5 2410.0480947161673,937.5" style="stroke: rgb(200,200,200); stroke-width:4; fill: none;"/>
	<polygon points="150.0,1050.0 214.9519052838329,1087.5 214.9519052838329,1162.5 150.0,1200.0 85.04809471616711,1162.5 85.0480947161671,1087.5" style="stroke: rgb(200,200,200); stroke-width:4; fill: none;"/>
	<polygon points="300.0,1050.0 364.9519052838329,1087.5 364.9519052838329,1162.5 300.0,1200.0 235.0480947161671,1162.5 235.0480947161671,1087.5" style="stroke: rgb(200,200,200); stroke-width:4; fill: none;"/>
	<polygon points="450.0,1050.0 514.951905283833,1087.5 514.951905283833,1162.5 450.0,1200.0 385.0480947161671,1162.5 385.0480947161671,1087.5" style="stroke: rgb(200,200,200); stroke-width:4; fill: none;"/>
	<polygon points="600.0,1050.0 664.951905283833,1087.5 664.951905283833,1162.5 600.0,1200.0 535.0480947161672,1162.5 535.048094716167,1087.5" style="stroke: rgb(200,200,200); stroke-width:4; fill: none;"/>
	<polygon points="750.0,1050.0 814.951905283833,1087.5 814.951905283833,1162.5 750.0,1200.0 685.0480947161672,1162.5 685.048094716167,1087.5" style="stroke: rgb(200,200,200); stroke-width:4; fill: none;"/>
	<polygon points="900.0,1050.0 964.951905283833,1087.5 964.951905283833,1162.5 900.0,1200.0 835.0480947161672,1162.5 835.048094716167,1087.5" style="stroke: rgb(200,200,200); stroke-width:4; fill: none;"/>
	<polygon points="1050.0,1050.0 1114.951905283833,1087.5 1114.951905283833,1162.5 1050.0,1200.0 985.0480947161672,1162.5 985.048094716167,1087.5" style="stroke: rgb(200,200,200); stroke-width:4; fill: none;"/>
	<polygon points="1200.0,1050.0 1264.951905283833,1087.5 1264.951905283833,1162.5 1200.0,1200.0 1135.048094716167,1162.5 1135.048094716167,1087.5" style="stroke: rgb(200,200,200); stroke-width:4; fill: none;"/>
	<polygon points="1350.0,1050.0 1414.951905283833,1087.5 1414.951905283833,1162.5 1350.0,1200.0 1285.048094716167,1162.5 1285.048094716167,1087.5" style="stroke: rgb(200,200,200); stroke-width:4; fill: none;"/>
	<polygon points="1500.0,1050.0 1564.951905283833,1087.5 1564.951905283833,1162.5 1500.0,1200.0 1435.048094716167,1162.5 1435.048094716167,1087.5" style="stroke: rgb(200,200,200); stroke-width:4; fill: none;"/>
	<polygon points="1650.0,1050.0 1714.951905283833,1087.5 1714.951905283833,1162.5 1650.0,1200.0 1585.048094716167,1162.5 1585.048094716167,1087.5" style="stroke: rgb(200,200,200); stroke-width:4; fill: none;"/>
	<polygon points="1800.0,1050.0 1864.951905283833,1087.5 1864.951905283833,1162.5 1800.0,1200.0 1735.048094716167,1162.5 1735.048094716167,1087.5" style="stroke: rgb(200,200,200); stroke-width:4; fill: none;"/>
	<polygon points="1950.0,1050.0 2014.951905283833,1087.5 2014.951905283833,1162.5 1950.0,1200.0 1885.048094716167,1162.5 1885.048094716167,1087.5" style="stroke: rgb(200,200,200); stroke-width:4; fill: none;"/>
	<polygon points="2100.0,1050.0 2164.9519052838327,1087.5 2164.9519052838327,1162.5 2100.0,1200.0 2035.048094716167,1162.5 2035.048094716167,1087.5" style="stroke: rgb(200,200,200); stroke-width:4; fill: none;"/>
	<polygon points="2250.0,1050.0 2314.9519052838327,1087.5 2314.9519052838327,1162.5 2250.0,1200.0 2185.0480947161673,1162.5 2185.0480947161673,1087.5" style="stroke: rgb(200,200,200); stroke-width:4; fill: none;"/>
	<polygon points="2400.0,1050.0 2464.9519052838327,1087.5 2464.9519052838327,1162.5 2400.0,1200.0 2335.0480947161673,1162.5 2335.0480947161673,1087.5" style="stroke: rgb(200,200,200); stroke-width:4; fill: none;"/>
	<polygon points="2550.0,1050.0 2614.9519052838327,1087.5 2614.9519052838327,1162.5 2550.0,1200.0 2485.0480947161673,1162.5 2485.0480947161673,1087.5" style="stroke: rgb(200,200,200); stroke-width:4; fill: none;"/>
	<polygon points="75.0,1200.0 139.9519052838329,1237.5 139.9519052838329,1312.5 75.0,1350.0 10.048094716167114,1312.5 10.0480947161671,1237.5" style="stroke: rgb(200,200,200); stroke-width:4; fill: none;"/>
	<polygon points="225.0,1200.0 289.9519052838329,1237.5 289.9519052838329,1312.5 225.0,1350.0 160.0480947161671,1312.5 160.0480947161671,1237.5" style="stroke: rgb(200,200,200); stroke-width:4; fill: none;"/>
	<polygon points="375.0,1200.0 439.9519052838329,1237.5 439.9519052838329,1312.5 375.0,1350.0 310.0480947161671,1312.5 310.0480947161671,1237.5" style="stroke: rgb(200,200,200); stroke-width:4; fill: none;"/>
	<polygon points="525.0,1200.0 589.951905283833,1237.5 589.951905283833,1312.5 525.0,1350.0 460.0480947161671,1312.5 460.0480947161671,1237.5" style="stroke: rgb(200,200,200); stroke-width:4; fill: none;"/>
	<polygon points="675.0,1200.0 739.951905283833,1237.5 739.951905283833,1312.5 675.0,1350.0 610.0480947161672,1312.5 610.048094716167,1237.5" style="stroke: rgb(200,200,200); stroke-width:4; fill: none;"/>
	<polygon points="825.0,1200.0 889.951905283833,1237.5 889.951905283833,1312.5 825.0,1350.0 760.0480947161672,1312.5 760.048094716167,1237.5" style="stroke: rgb(200,200,200); stroke-width:4; fill: none;"/>
	<polygon points="975.0,1200.0 1039.951905283833,1237.5 1039.951905283833,1312.5 975.0,1350.0 910.0480947161672,1312.5 910.048094716167,1237.5" style="stroke: rgb(200,200,200); stroke-width:4; fill: none;"/>
	<polygon points="1125.0,1200.0 1189.951905283833,1237.5 1189.951905283833,1312.5 1125.0,1350.0 1060.048094716167,1312.5 1060.048094716167,1237.5" style="stroke: rgb(200,200,200); stroke-width:4; fill: none;"/>
	<polygon points="1275.0,1200.0 1339.951905283833,1237.5 1339.951905283833,1312.5 1275.0,1350.0 1210.048094716167,1312.5 1210.048094716167,1237.5" style="stroke: rgb(200,200,200); stroke-width:4; fill: none;"/>
	<polygon points="1425.0,1200.0 1489.951905283833,1237.5 1489.951905283833,1312.5 1425.0,1350.0 1360.048094716167,1312.5 1360.048094716167,1237.5" style="stroke: rgb(200,200,200); stroke-width:4; fill: none;"/>
	<polygon points="1575.0,1200.0 1639.951905283833,1237.5 1639.951905283833,1312.5 1575.0,1350.0 1510.048094716167,1312.5 1510.048094716167,1237.5" style="stroke: rgb(200,200,200); stroke-width:4; fill: none;"/>
	<polygon points="1725.0,1200.0 1789.951905283833,1237.5 1789.951905283833,1312.5 1725.0,1350.0 1660.048094716167,1312.5 1660.048094716167,1237.5" style="stroke: rgb(200,200,200); stroke-width:4; fill: none;"/>
	<polygon points="1875.0,1200.0 1939.951905283833,1237.5 1939.951905283833,1312.5 1875.0,1350.0 1810.048094716167,1312.5 1810.048094716167,1237.5" style="stroke: rgb(200,200,200); stroke-width:4; fill: none;"/>
	<polygon points="2025.0,1200.0 2089.9519052838327,1237.5 2089.9519052838327,1312.5 2025.0,1350.0 1960.048094716167,1312.5 1960.048094716167,1237.5" style="stroke: rgb(200,200,200); stroke-width:4; fill: none;"/>
	<polygon points="2175.0,1200.0 2239.9519052838327,1237.5 2239.9519052838327,1312.5 2175.0,1350.0 2110.0480947161673,1312.5 2110.0480947161673,1237.5" style="stroke: rgb(200,200,200); stroke-width:4; fill: none;"/>
	<polygon points="2325.0,1200.0 2389.9519052838327,1237.5 2389.9519052838327,1312.5 2325.0,1350.0 2260.0480947161673,1312.5 2260.0480947161673,1237.5" style="stroke: rgb(200,200,200); stroke-width:4; fill: none;"/>
	<polygon points="2475.0,1200.0 2539.9519052838327,1237.5 2539.9519052838327,1312.5 2475.0,1350.0 2410.0480947161673,1312.5 2410.0480947161673,1237.5" style="stroke: rgb(200,200,200); stroke-width:4; fill: none;"/>
	<polygon points="150.0,1350.0 214.9519052838329,1387.5 214.9519052838329,1462.5 150.0,1500.0 85.04809471616711,1462.5 85.0480947161671,1387.5" style="stroke: rgb(200,200,200); stroke-width:4; fill: none;"/>
	<polygon points="300.0,1350.0 364.9519052838329,1387.5 364.9519052838329,1462.5 300.0,1500.0 235.0480947161671,1462.5 235.0480947161671,1387.5" style="stroke: rgb(200,200,200); stroke-width:4; fill: none;"/>
	<polygon points="450.0,1350.0 514.951905283833,1387.5 514.951905283833,1462.5 450.0,1500.0 385.0480947161671,1462.5 385.0480947161671,1387.5" style="stroke: rgb(200,200,200); stroke-width:4; fill: none;"/>
	<polygon points="600.0,1350.0 664.951905283833,1387.5 664.951905283833,1462.5 600.0,1500.0 535.0480947161672,1462.5 535.048094716167,1387.5" style="stroke: rgb(200,200,200); stroke-width:4; fill: none;"/>
	<polygon points="750.0,1350.0 814.951905283833,1387.5 814.951905283833,1462.5 750.0,1500.0 685.0480947161672,1462.5 685.048094716167,1387.5" style="stroke: rgb(200,200,200); stroke-width:4; fill: none;"/>
	<polygon points="900.0,1350.0 964.951905283833,1387.5 964.951905283833,1462.5 900.0,1500.0 835.0480947161672,1462.5 835.048094716167,1387.5" style="stroke: rgb(200,200,200); stroke-width:4; fill: none;"/>
	<polygon points="1050.0,1350.0 1114.951905283833,1387.5 1114.951905283833,1462.5 1050.0,1500.0 985.0480947161672,1462.5 985.048094716167,1387.5" style="stroke: rgb(200,200,200); stroke-width:4; fill: none;"/>
	<polygon points="1200.0,1350.0 1264.951905283833,1387.5 1264.951905283833,1462.5 1200.0,1500.0 1135.048094716167,1462.5 1135.048094716167,1387.5" style="stroke: rgb(200,200,200); stroke-width:4; fill: none;"/>
	<polygon points="1350.0,1350.0 1414.951905283833,1387.5 1414.951905283833,1462.5 1350.0,1500.0 1285.048094716167,1462.5 1285.048094716167,1387.5" style="stroke: rgb(200,200,200); stroke-width:4; fill: none;"/>
	<polygon points="1500.0,1350.0 1564.951905283833,1387.5 1564.951905283833,1462.5 1500.0,1500.0 1435.048094716167,1462.5 1435.048094716167,1387.5" style="stroke: rgb(200,200,200); stroke-width:4; fill: none;"/>
	<polygon points="1650.0,1350.0 1714.951905283833,1387.5 1714.951905283833,1462.5 1650.0,1500.0 1585.048094716167,1462.5 1585.048094716167,1387.5" style="stroke: rgb(200,200,200); stroke-width:4; fill: none;"/>
	<polygon points="1800.0,1350.0 1864.951905283833,1387.5 1864.951905283833,1462.5 1800.0,1500.0 1735.048094716167,1462.5 1735.048094716167,1387.5" style="stroke: rgb(200,200,200); stroke-width:4; fill: none;"/>
	<polygon points="1950.0,1350.0 2014.951905283833,1387.5 2014.951905283833,1462.5 1950.0,1500.0 1885.048094716167,1462.5 1885.048094716167,1387.5" style="stroke: rgb(200,200,200); stroke-width:4; fill: none;"/>
	<polygon points="2100.0,1350.0 2164.9519052838327,1387.5 2164.9519052838327,1462.5 2100.0,1500.0 2035.048094716167,1462.5 2035.048094716167,1387.5" style="stroke: rgb(200,200,200); stroke-width:4; fill: none;"/>
	<polygon points="2250.0,1350.0 2314.9519052838327,1387.5 2314.9519052838327,1462.5 2250.0,1500.0 2185.0480947161673,1462.5 2185.0480947161673,1387.5" style="stroke: rgb(200,200,200); stroke-width:4; fill: none;"/>
	<polygon points="2400.0,1350.0 2464.9519052838327,1387.5 2464.9519052838327,1462.5 2400.0,1500.0 2335.0480947161673,1462.5 2335.0480947161673,1387.5" style="stroke: rgb(200,200,200); stroke-width:4; fill: none;"/>
	<polygon points="2550.0,1350.0 2614.9519052838327,1387.5 2614.9519052838327,1462.5 2550.0,1500.0 2485.0480947161673,1462.5 2485.0480947161673,1387.5" style="stroke: rgb(200,200,200); stroke-width:4; fill: none;"/>
	<polygon points="75.0,1500.0 139.9519052838329,1537.5 139.9519052838329,1612.5 75.0,1650.0 10.048094716167114,1612.5 10.0480947161671,1537.5" style="stroke: rgb(200,200,200); stroke-width:4; fill: none;"/>
	<polygon points="225.0,1500.0 289.9519052838329,1537.5 289.9519052838329,1612.5 225.0,1650.0 160.0480947161671,1612.5 160.0480947161671,1537.5" style="stroke: rgb(200,200,200); stroke-width:4; fill: none;"/>
	<polygon points="375.0,1500.0 439.9519052838329,1537.5 439.9519052838329,1612.5 375.0,1650.0 310.0480947161671,1612.5 310.0480947161671,1537.5" style="stroke: rgb(200,200,200); stroke-width:4; fill: none;"/>
	<polygon points="525.0,1500.0 589.951905283833,1537.5 589.951905283833,1612.5 525.0,1650.0 460.0480947161671,1612.5 460.0480947161671,1537.5" style="stroke: rgb(200,200,200); stroke-width:4; fill: none;"/>
	<polygon points="675.0,1500.0 739.951905283833,1537.5 739.951905283833,1612.5 675.0,1650.0 610.0480947161672,1612.5 610.048094716167,1537.5" style="stroke: rgb(200,200,200); stroke-width:4; fill: none;"/>
	<polygon points="825.0,1500.0 889.951905283833,1537.5 889.951905283833,1612.5 825.0,1650.0 760.0480947161672,1612.5 760.048094716167,1537.5" style="stroke: rgb(200,200,200); stroke-width:4; fill: none;"/>
	<polygon points="975.0,1500.0 1039.951905283833,1537.5 1039.951905283833,1612.5 975.0,1650.0 910.0480947161672,1612.5 910.048094716167,1537.5" style="stroke: rgb(200,200,200); stroke-width:4; fill: none;"/>
	<polygon points="1125.0,1500.0 1189.951905283833,1537.5 1189.951905283833,1612.5 1125.0,1650.0 1060.048094716167,1612.5 1060.048094716167,1537.5" style="stroke: rgb(200,200,200); stroke-width:4; fill: none;"/>
	<polygon points="1275.0,1500.0 1339.951905283833,1537.5 1339.951905283833,1612.5 1275.0,1650.0 1210.048094716167,1612.5 1210.048094716167,1537.5" style="stroke: rgb(200,200,200); stroke-width:4; fill: none;"/>
	<polygon points="1425.0,1500.0 1489.951905283833,1537.5 1489.951905283833,1612.5 1425.0,1650.0 1360.048094716167,1612.5 1360.048094716167,1537.5" style="stroke: rgb(200,200,200); stroke-width:4; fill: none;"/>
	<polygon points="1575.0,1500.0 1639.951905283833,1537.5 1639.951905283833,1612.5 1575.0,1650.0 1510.048094716167,1612.5 1510.048094716167,1537.5" style="stroke: rgb(200,200,200); stroke-width:4; fill: none;"/>
	<polygon points="1725.0,1500.0 1789.951905283833,1537.5 1789.951905283833,1612.5 1725.0,1650.0 1660.048094716167,1612.5 1660.048094716167,1537.5" style="stroke: rgb(200,200,200); stroke-width:4; fill: none;"/>
	<polygon points="1875.0,1500.0 1939.951905283833,1537.5 1939.951905283833,1612.5 1875.0,1650.0 1810.048094716167,1612.5 1810.048094716167,1537.5" style="stroke: rgb(200,200,200); stroke-width:4; fill: none;"/>
	<polygon points="2025.0,1500.0 2089.9519052838327,1537.5 2089.9519052838327,1612.5 2025.0,1650.0 1960.048094716167,1612.5 1960.048094716167,1537.5" style="stroke: rgb(200,200,200); stroke-width:4; fill: none;"/>
	<polygon points="2175.0,1500.0 2239.9519052838327,1537.5 2239.9519052838327,1612.5 2175.0,1650.0 2110.0480947161673,1612.5 2110.0480947161673,1537.5" style="stroke: rgb(200,200,200); stroke-width:4; fill: none;"/>
	<polygon points="2325.0,1500.0 2389.9519052838327,1537.5 2389.9519052838327,1612.5 2325.0,1650.0 2260.0480947161673,1612.5 2260.0480947161673,1537.5" style="stroke: rgb(200,200,200); stroke-width:4; fill: none;"/>
	<polygon points="2475.0,1500.0 2539.9519052838327,1537.5 2539.9519052838327,1612.5 2475.0,1650.0 2410.0480947161673,1612.5 2410.0480947161673,1537.5" style="stroke: rgb(200,200,200); stroke-width:4; fill: none;"/>
	<polygon points="150.0,1650.0 214.9519052838329,1687.5 214.9519052838329,1762.5 150.0,1800.0 85.04809471616711,1762.5 85.0480947161671,1687.5" style="stroke: rgb(200,200,200); stroke-width:4; fill: none;"/>
	<polygon points="300.0,1650.0 364.9519052838329,1687.5 364.9519052838329,1762.5 300.0,1800.0 235.0480947161671,1762.5 235.0480947161671,1687.5" style="stroke: rgb(200,200,200); stroke-width:4; fill: none;"/>
	<polygon points="450.0,1650.0 514.951905283833,1687.5 514.951905283833,1762.5 450.0,1800.0 385.0480947161671,1762.5 385.0480947161671,1687.5" style="stroke: rgb(200,200,200); stroke-width:4; fill: none;"/>
	<polygon points="600.0,1650.0 664.951905283833,1687.5 664.951905283833,1762.5 600.0,1800.0 535.0480947161672,1762.5 535.048094716167,1687.5" style="stroke: rgb(200,200,200); stroke-width:4; fill: none;"/>
	<polygon points="750.0,1650.0 814.951905283833,1687.5 814.951905283833,1762.5 750.0,1800.0 685.0480947161672,1762.5 685.048094716167,1687.5" style="stroke: rgb(200,200,200); stroke-width:4; fill: none;"/>
	<polygon points="900.0,1650.0 964.951905283833,1687.5 964.951905283833,1762.5 900.0,1800.0 835.0480947161672,1762.5 835.048094716167,1687.5" style="stroke: rgb(200,200,200); stroke-width:4; fill: none;"/>
	<polygon points="1050.0,1650.0 1114.951905283833,1687.5 1114.951905283833,1762.5 1050.0,1800.0 985.0480947161672,1762.5 985.048094716167,1687.5" style="stroke: rgb(200,200,200); stroke-width:4; fill: none;"/>
	<polygon points="1200.0,1650.0 1264.951905283833,1687.5 1264.951905283833,1762.5 1200.0,1800.0 1135.048094716167,1762.5 1135.048094716167,1687.5" style="stroke: rgb(200,200,200); stroke-width:4; fill: none;"/>
	<polygon points="1350.0,1650.0 1414.951905283833,1687.5 1414.951905283833,1762.5 1350.0,1800.0 1285.048094716167,1762.5 1285.048094716167,1687.5" style="stroke: rgb(200,200,200); stroke-width:4; fill: none;"/>
	<polygon points="1500.0,1650.0 1564.951905283833,1687.5 1564.951905283833,1762.5 1500.0,1800.0 1435.048094716167,1762.5 1435.048094716167,1687.5" style="stroke: rgb(200,200,200); stroke-width:4; fill: none;"/>
	<polygon points="1650.0,1650.0 1714.951905283833,1687.5 1714.951905283833,1762.5 1650.0,1800.0 1585.048094716167,1762.5 1585.048094716167,1687.5" style="stroke: rgb(200,200,200); stroke-width:4; fill: none;"/>
	<polygon points="1800.0,1650.0 1864.951905283833,1687.5 1864.951905283833,1762.5 1800.0,1800.0 1735.048094716167,1762.5 1735.048094716167,1687.5" style="stroke: rgb(200,200,200); stroke-width:4; fill: none;"/>
	<polygon points="1950.0,1650.0 2014.951905283833,1687.5 2014.951905283833,1762.5 1950.0,1800.0 1885.048094716167,1762.5 1885.048094716167,1687.5" style="stroke: rgb(200,200,200); stroke-width:4; fill: none;"/>
	<polygon points="2100.0,1650.0 2164.9519052838327,1687.5 2164.9519052838327,1762.5 2100.0,1800.0 2035.048094716167,1762.5 2035.048094716167,1687.5" style="stroke: rgb(200,200,200); stroke-width:4; fill: none;"/>
	<polygon points="2250.0,1650.0 2314.9519052838327,1687.5 2314.9519052838327,1762.5 2250.0,1800.0 2185.0480947161673,1762.5 2185.0480947161673,1687.5" style="stroke: rgb(200,200,200); stroke-width:4; fill: none;"/>
	<polygon points="2400.0,1650.0 2464.9519052838327,1687.5 2464.9519052838327,1762.5 2400.0,1800.0 2335.0480947161673,1762.5 2335.0480947161673,1687.5" style="stroke: rgb(200,200,200); stroke-width:4; fill: none;"/>
	<polygon points="2550.0,1650.0 2614.9519052838327,1687.5 2614.9519052838327,1762.5 2550.0,1800.0 2485.0480947161673,1762.5 2485.0480947161673,1687.5" style="stroke: rgb(200,200,200); stroke-width:4; fill: none;"/>
	<polygon points="75.0,1800.0 139.9519052838329,1837.5 139.9519052838329,1912.5 75.0,1950.0 10.048094716167114,1912.5 10.0480947161671,1837.5" style="stroke: rgb(200,200,200); stroke-width:4; fill: none;"/>
	<polygon points="225.0,1800.0 289.9519052838329,1837.5 289.9519052838329,1912.5 225.0,1950.0 160.0480947161671,1912.5 160.0480947161671,1837.5" style="stroke: rgb(200,200,200); stroke-width:4; fill: none;"/>
	<polygon points="375.0,1800.0 439.9519052838329,1837.5 439.9519052838329,1912.5 375.0,1950.0 310.0480947161671,1912.5 310.0480947161671,1837.5" style="stroke: rgb(200,200,200); stroke-width:4; fill: none;"/>
	<polygon points="525.0,1800.0 589.951905283833,1837.5 589.951905283833,1912.5 525.0,1950.0 460.0480947161671,1912.5 460.0480947161671,1837.5" style="stroke: rgb(200,200,200); stroke-width:4; fill: none;"/>
	<polygon points="675.0,1800.0 739.951905283833,1837.5 739.951905283833,1912.5 675.0,1950.0 610.0480947161672,1912.5 610.048094716167,1837.5" style="stroke: rgb(200,200,200); stroke-width:4; fill: none;"/>
	<polygon points="825.0,1800.0 889.951905283833,1837.5 889.951905283833,1912.5 825.0,1950.0 760.0480947161672,1912.5 760.048094716167,1837.5" style="stroke: rgb(200,200,200); stroke-width:4; fill: none;"/>
	<polygon points="975.0,1800.0 1039.951905283833,1837.5 1039.951905283833,1912.5 975.0,1950.0 910.0480947161672,1912.5 910.048094716167,1837.5" style="stroke: rgb(200,200,200); stroke-width:4; fill: none;"/>
	<polygon points="1125.0,1800.0 1189.951905283833,1837.5 1189.951905283833,1912.5 1125.0,1950.0 1060.048094716167,1912.5 1060.048094716167,1837.5" style="stroke: rgb(200,200,200); stroke-width:4; fill: none;"/>
	<polygon points="1275.0,1800.0 1339.951905283833,1837.5 1339.951905283833,1912.5 1275.0,1950.0 1210.048094716167,1912.5 1210.048094716167,1837.5" style="stroke: rgb(200,200,200); stroke-width:4; fill: none;"/>
	<polygon points="1425.0,1800.0 1489.951905283833,1837.5 1489.951905283833,1912.5 1425.0,1950.0 1360.048094716167,1912.5 1360.048094716167,1837.5" style="stroke: rgb(200,200,200); stroke-width:4; fill: none;"/>
	<polygon points="1575.0,1800.0 1639.951905283833,1837.5 1639.951905283833,1912.5 1575.0,1950.0 1510.048094716167,1912.5 1510.048094716167,1837.5" style="stroke: rgb(200,200,200); stroke-width:4; fill: none;"/>
	<polygon points="1725.0,1800.0 1789.951905283833,1837.5 1789.951905283833,1912.5 1725.0,1950.0 1660.048094716167,1912.5 1660.048094716167,1837.5" style="stroke: rgb(200,200,200); stroke-width:4; fill: none;"/>
	<polygon points="1875.0,1800.0 1939.951905283833,1837.5 1939.951905283833,1912.5 1875.0,1950.0 1810.048094716167,1912.5 1810.048094716167,1837.5" style="stroke: rgb(200,200,200); stroke-width:4; fill: none;"/>
	<polygon points="2025.0,1800.0 2089.9519052838327,1837.5 2089.9519052838327,1912.5 2025.0,1950.0 1960.048094716167,1912.5 1960.048094716167,1837.5" style="stroke: rgb(200,200,200); stroke-width:4; fill: none;"/>
	<polygon points="2175.0,1800.0 2239.9519052838327,1837.5 2239.9519052838327,1912.5 2175.0,1950.0 2110.0480947161673,1912.5 2110.0480947161673,1837.5" style="stroke: rgb(200,200,200); stroke-width:4; fill: none;"/>
	<polygon points="2325.0,1800.0 2389.9519052838327,1837.5 2389.9519052838327,1912.5 2325.0,1950.0 2260.0480947161673,1912.5 2260.0480947161673,1837.5" style="stroke: rgb(200,200,200); stroke-width:4; fill: none;"/>
	<polygon points="2475.0,1800.0 2539.9519052838327,1837.5 2539.9519052838327,1912.5 2475.0,1950.0 2410.0480947161673,1912.5 2410.0480947161673,1837.5" style="stroke: rgb(200,200,200); stroke-width:4; fill: none;"/>
	<polygon points="150.0,1950.0 214.9519052838329,1987.5 214.9519052838329,2062.5 150.0,2100.0 85.04809471616711,2062.5 85.0480947161671,1987.5" style="stroke: rgb(200,200,200); stroke-width:4; fill: none;"/>
	<polygon points="300.0,1950.0 364.9519052838329,1987.5 364.9519052838329,2062.5 300.0,2100.0 235.0480947161671,2062.5 235.0480947161671,1987.5" style="stroke: rgb(200,200,200); stroke-width:4; fill: none;"/>
	<polygon points="450.0,1950.0 514.951905283833,1987.5 514.951905283833,2062.5 450.0,2100.0 385.0480947161671,2062.5 385.0480947161671,1987.5" style="stroke: rgb(200,200,200); stroke-width:4; fill: none;"/>
	<polygon points="600.0,1950.0 664.951905283833,1987.5 664.951905283833,2062.5 600.0,2100.0 535.0480947161672,2062.5 535.048094716167,1987.5" style="stroke: rgb(200,200,200); stroke-width:4; fill: none;"/>
	<polygon points="750.0,1950.0 814.951905283833,1987.5 814.951905283833,2062.5 750.0,2100.0 685.0480947161672,2062.5 685.048094716167,1987.5" style="stroke: rgb(200,200,200); stroke-width:4; fill: none;"/>
	<polygon points="900.0,1950.0 964.951905283833,1987.5 964.951905283833,2062.5 900.0,2100.0 835.0480947161672,2062.5 835.048094716167,1987.5" style="stroke: rgb(200,200,200); stroke-width:4; fill: none;"/>
	<polygon points="1050.0,1950.0 1114.951905283833,1987.5 1114.951905283833,2062.5 1050.0,2100.0 985.0480947161672,2062.5 985.048094716167,1987.5" style="stroke: rgb(200,200,200); stroke-width:4; fill: none;"/>
	<polygon points="1200.0,1950.0 1264.951905283833,1987.5 1264.951905283833,2062.5 1200.0,2100.0 1135.048094716167,2062.5 1135.048094716167,1987.5" style="stroke: rgb(200,200,200); stroke-width:4; fill: none;"/>
	<polygon points="1350.0,1950.0 1414.951905283833,1987.5 1414.951905283833,2062.5 1350.0,2100.0 1285.048094716167,2062.5 1285.048094716167,1987.5" style="stroke: rgb(200,200,200); stroke-width:4; fill: none;"/>
	<polygon points="1500.0,1950.0 1564.951905283833,1987.5 1564.951905283833,2062.5 1500.0,2100.0 1435.048094716167,2062.5 1435.048094716167,1987.5" style="stroke: rgb(200,200,200); stroke-width:4; fill: none;"/>
	<polygon points="1650.0,1950.0 1714.951905283833,1987.5 1714.951905283833,2062.5 1650.0,2100.0 1585.048094716167,2062.5 1585.048094716167,1987.5" style="stroke: rgb(200,200,200); stroke-width:4; fill: none;"/>
	<polygon points="1800.0,1950.0 1864.951905283833,1987.5 1864.951905283833,2062.5 1800.0,2100.0 1735.048094716167,2062.5 1735.048094716167,1987.5" style="stroke: rgb(200,200,200); stroke-width:4; fill: none;"/>
	<polygon points="1950.0,1950.0 2014.951905283833,1987.5 2014.951905283833,2062.5 1950.0,2100.0 1885.048094716167,2062.5 1885.048094716167,1987.5" style="stroke: rgb(200,200,200); stroke-width:4; fill: none;"/>
	<polygon points="2100.0,1950.0 2164.9519052838327,1987.5 2164.9519052838327,2062.5 2100.0,2100.0 2035.048094716167,2062.5 2035.048094716167,1987.5" style="stroke: rgb(200,200,200); stroke-width:4; fill: none;"/>
	<polygon points="2250.0,1950.0 2314.9519052838327,1987.5 2314.9519052838327,2062.5 2250.0,2100.0 2185.0480947161673,2062.5 2185.0480947161673,1987.5" style="stroke: rgb(200,200,200); stroke-width:4; fill: none;"/>
	<polygon points="2400.0,1950.0 2464.9519052838327,1987.5 2464.9519052838327,2062.5 2400.0,2100.0 2335.0480947161673,2062.5 2335.0480947161673,1987.5" style="stroke: rgb(200,200,200); stroke-width:4; fill: none;"/>
	<polygon points="2550.0,1950.0 2614.9519052838327,1987.5 2614.9519052838327,2062.5 2550.0,2100.0 2485.0480947161673,2062.5 2485.0480947161673,1987.5" style="stroke: rgb(200,200,200); stroke-width:4; fill: none;"/>
	<polygon points="75.0,2100.0 139.9519052838329,2137.5 139.9519052838329,2212.5 75.0,2250.0 10.048094716167114,2212.5 10.0480947161671,2137.5" style="stroke: rgb(200,200,200); stroke-width:4; fill: none;"/>
	<polygon points="225.0,2100.0 289.9519052838329,2137.5 289.9519052838329,2212.5 225.0,2250.0 160.0480947161671,2212.5 160.0480947161671,2137.5" style="stroke: rgb(200,200,200); stroke-width:4; fill: none;"/>
	<polygon points="375.0,2100.0 439.9519052838329,2137.5 439.9519052838329,2212.5 375.0,2250.0 310.0480947161671,2212.5 310.0480947161671,2137.5" style="stroke: rgb(200,200,200); stroke-width:4; fill: none;"/>
	<polygon points="525.0,2100.0 589.951905283833,2137.5 589.951905283833,2212.5 525.0,2250.0 460.0480947161671,2212.5 460.0480947161671,2137.5" style="stroke: rgb(200,200,200); stroke-width:4; fill: none;"/>
	<polygon points="675.0,2100.0 739.951905283833,2137.5 739.951905283833,2212.5 675.0,2250.0 610.0480947161672,2212.5 610.048094716167,2137.5" style="stroke: rgb(200,200,200); stroke-width:4; fill: none;"/>
	<polygon points="825.0,2100.0 889.951905283833,2137.5 889.951905283833,2212.5 825.0,2250.0 760.0480947161672,2212.5 760.048094716167,2137.5" style="stroke: rgb(200,200,200); stroke-width:4; fill: none;"/>
	<polygon points="975.0,2100.0 1039.951905283833,2137.5 1039.951905283833,2212.5 975.0,2250.0 910.0480947161672,2212.5 910.048094716167,2137.5" style="stroke: rgb(200,200,200); stroke-width:4; fill: none;"/>
	<polygon points="1125.0,2100.0 1189.951905283833,2137.5 1189.951905283833,2212.5 1125.0,2250.0 1060.048094716167,2212.5 1060.048094716167,2137.5" style="stroke: rgb(200,200,200); stroke-width:4; fill: none;"/>
	<polygon points="1275.0,2100.0 1339.951905283833,2137.5 1339.951905283833,2212.5 1275.0,2250.0 1210.048094716167,2212.5 1210.048094716167,2137.5" style="stroke: rgb(200,200,200); stroke-width:4; fill: none;"/>
	<polygon points="1425.0,2100.0 1489.951905283833,2137.5 1489.951905283833,2212.5 1425.0,2250.0 1360.048094716167,2212.5 1360.048094716167,2137.5" style="stroke: rgb(200,200,200); stroke-width:4; fill: none;"/>
	<polygon points="1575.0,2100.0 1639.951905283833,2137.5 1639.951905283833,2212.5 1575.0,2250.0 1510.048094716167,2212.5 1510.048094716167,2137.5" style="stroke: rgb(200,200,200); stroke-width:4; fill: none;"/>
	<polygon points="1725.0,2100.0 1789.951905283833,2137.5 1789.951905283833,2212.5 1725.0,2250.0 1660.048094716167,2212.5 1660.048094716167,2137.5" style="stroke: rgb(200,200,200); stroke-width:4; fill: none;"/>
	<polygon points="1875.0,2100.0 1939.951905283833,2137.5 1939.951905283833,2212.5 1875.0,2250.0 1810.048094716167,2212.5 1810.048094716167,2137.5" style="stroke: rgb(200,200,200); stroke-width:4; fill: none;"/>
	<polygon points="2025.0,2100.0 2089.9519052838327,2137.5 2089.9519052838327,2212.5 2025.0,2250.0 1960.048094716167,2212.5 1960.048094716167,2137.5" style="stroke: rgb(200,200,200); stroke-width:4; fill: none;"/>
	<polygon points="2175.0,2100.0 2239.9519052838327,2137.5 2239.9519052838327,2212.5 2175.0,2250.0 2110.0480947161673,2212.5 2110.0480947161673,2137.5" style="stroke: rgb(200,200,200); stroke-width:4; fill: none;"/>
	<polygon points="2325.0,2100.0 2389.9519052838327,2137.5 2389.9519052838327,2212.5 2325.0,2250.0 2260.0480947161673,2212.5 2260.0480947161673,2137.5" style="stroke: rgb(200,200,200); stroke-width:4; fill: none;"/>
	<polygon points="2475.0,2100.0 2539.9519052838327,2137.5 2539.9519052838327,2212.5 2475.0,2250.0 2410.0480947161673,2212.5 2410.0480947161673,2137.5" style="stroke: rgb(200,200,200); stroke-width:4; fill: none;"/>
	<polygon points="150.0,2250.0 214.9519052838329,2287.5 214.9519052838329,2362.5 150.0,2400.0 85.04809471616711,2362.5 85.0480947161671,2287.5" style="stroke: rgb(200,200,200); stroke-width:4; fill: none;"/>
	<polygon points="300.0,2250.0 364.9519052838329,2287.5 364.9519052838329,2362.5 300.0,2400.0 235.0480947161671,2362.5 235.0480947161671,2287.5" style="stroke: rgb(200,200,200); stroke-width:4; fill: none;"/>
	<polygon points="450.0,2250.0 514.951905283833,2287.5 514.951905283833,2362.5 450.0,2400.0 385.0480947161671,2362.5 385.0480947161671,2287.5" style="stroke: rgb(200,200,200); stroke-width:4; fill: none;"/>
	<polygon points="600.0,2250.0 664.951905283833,2287.5 664.951905283833,2362.5 600.0,2400.0 535.0480947161672,2362.5 535.048094716167,2287.5" style="stroke: rgb(200,200,200); stroke-width:4; fill: none;"/>
	<polygon points="750.0,2250.0 814.951905283833,2287.5 814.951905283833,2362.5 750.0,2400.0 685.0480947161672,2362.5 685.048094716167,2287.5" style="stroke: rgb(200,200,200); stroke-width:4; fill: none;"/>
	<polygon points="900.0,2250.0 964.951905283833,2287.5 964.951905283833,2362.5 900.0,2400.0 835.0480947161672,2362.5 835.048094716167,2287.5" style="stroke: rgb(200,200,200); stroke-width:4; fill: none;"/>
	<polygon points="1050.0,2250.0 1114.951905283833,2287.5 1114.951905283833,2362.5 1050.0,2400.0 985.0480947161672,2362.5 985.048094716167,2287.5" style="stroke: rgb(200,200,200); stroke-width:4; fill: none;"/>
	<polygon points="1200.0,2250.0 1264.951905283833,2287.5 1264.951905283833,2362.5 1200.0,2400.0 1135.048094716167,2362.5 1135.048094716167,2287.5" style="stroke: rgb(200,200,200); stroke-width:4; fill: none;"/>
	<polygon points="1350.0,2250.0 1414.951905283833,2287.5 1414.951905283833,2362.5 1350.0,2400.0 1285.048094716167,2362.5 1285.048094716167,2287.5" style="stroke: rgb(200,200,200); stroke-width:4; fill: none;"/>
	<polygon points="1500.0,2250.0 1564.951905283833,2287.5 1564.951905283833,2362.5 1500.0,2400.0 1435.048094716167,2362.5 1435.048094716167,2287.5" style="stroke: rgb(200,200,200); stroke-width:4; fill: none;"/>
	<polygon points="1650.0,2250.0 1714.951905283833,2287.5 1714.951905283833,2362.5 1650.0,2400.0 1585.048094716167,2362.5 1585.048094716167,2287.5" style="stroke: rgb(200,200,200); stroke-width:4; fill: none;"/>
	<polygon points="1800.0,2250.0 1864.951905283833,2287.5 1864.951905283833,2362.5 1800.0,2400.0 1735.048094716167,2362.5 1735.048094716167,2287.5" style="stroke: rgb(200,200,200); stroke-width:4; fill: none;"/>
	<polygon points="1950.0,2250.0 2014.951905283833,2287.5 2014.951905283833,2362.5 1950.0,2400.0 1885.048094716167,2362.5 1885.048094716167,2287.5" style="stroke: rgb(200,200,200); stroke-width:4; fill: none;"/>
	<polygon points="2100.0,2250.0 2164.9519052838327,2287.5 2164.9519052838327,2362.5 2100.0,2400.0 2035.048094716167,2362.5 2035.048094716167,2287.5" style="stroke: rgb(200,200,200); stroke-width:4; fill: none;"/>
	<polygon points="2250.0,2250.0 2314.9519052838327,2287.5 2314.9519052838327,2362.5 2250.0,2400.0 2185.0480947161673,2362.5 2185.0480947161673,2287.5" style="stroke: rgb(200,200,200); stroke-width:4; fill: none;"/>
	<polygon points="2400.0,2250.0 2464.9519052838327,2287.5 2464.9519052838327,2362.5 2400.0,2400.0 2335.0480947161673,2362.5 2335.0480947161673,2287.5" style="stroke: rgb(200,200,200); stroke-width:4; fill: none;"/>
	<polygon points="2550.0,2250.0 2614.9519052838327,2287.5 2614.9519052838327,2362.5 2550.0,2400.0 2485.0480947161673,2362.5 2485.0480947161673,2287.5" style="stroke: rgb(200,200,200); stroke-width:4; fill: none;"/>
	<polygon points="75.0,2400.0 139.9519052838329,2437.5 139.9519052838329,2512.5 75.0,2550.0 10.048094716167114,2512.5 10.0480947161671,2437.5" style="stroke: rgb(200,200,200); stroke-width:4; fill: none;"/>
	<polygon points="225.0,2400.0 289.9519052838329,2437.5 289.9519052838329,2512.5 225.0,2550.0 160.0480947161671,2512.5 160.0480947161671,2437.5" style="stroke: rgb(200,200,200); stroke-width:4; fill: none;"/>
	<polygon points="375.0,2400.0 439.9519052838329,2437.5 439.9519052838329,2512.5 375.0,2550.0 310.0480947161671,2512.5 310.0480947161671,2437.5" style="stroke: rgb(200,200,200); stroke-width:4; fill: none;"/>
	<polygon points="525.0,2400.0 589.951905283833,2437.5 589.951905283833,2512.5 525.0,2550.0 460.0480947161671,2512.5 460.0480947161671,2437.5" style="stroke: rgb(200,200,200); stroke-width:4; fill: none;"/>
	<polygon points="675.0,2400.0 739.951905283833,2437.5 739.951905283833,2512.5 675.0,2550.0 610.0480947161672,2512.5 610.048094716167,2437.5" style="stroke: rgb(200,200,200); stroke-width:4; fill: none;"/>
	<polygon points="825.0,2400.0 889.951905283833,2437.5 889.951905283833,2512.5 825.0,2550.0 760.0480947161672,2512.5 760.048094716167,2437.5" style="stroke: rgb(200,200,200); stroke-width:4; fill: none;"/>
	<polygon points="975.0,2400.0 1039.951905283833,2437.5 1039.951905283833,2512.5 975.0,2550.0 910.0480947161672,2512.5 910.048094716167,2437.5" style="stroke: rgb(200,200,200); stroke-width:4; fill: none;"/>
	<polygon points="1125.0,2400.0 1189.951905283833,2437.5 1189.951905283833,2512.5 1125.0,2550.0 1060.048094716167,2512.5 1060.048094716167,2437.5" style="stroke: rgb(200,200,200); stroke-width:4; fill: none;"/>
	<polygon points="1275.0,2400.0 1339.951905283833,2437.5 1339.951905283833,2512.5 1275.0,2550.0 1210.048094716167,2512.5 1210.048094716167,2437.5" style="stroke: rgb(200,200,200); stroke-width:4; fill: none;"/>
	<polygon points="1425.0,2400.0 1489.951905283833,2437.5 1489.951905283833,2512.5 1425.0,2550.0 1360.048094716167,2512.5 1360.048094716167,2437.5" style="stroke: rgb(200,200,200); stroke-width:4; fill: none;"/>
	<polygon points="1575.0,2400.0 1639.951905283833,2437.5 1639.951905283833,2512.5 1575.0,2550.0 1510.048094716167,2512.5 1510.048094716167,2437.5" style="stroke: rgb(200,200,200); stroke-width:4; fill: none;"/>
	<polygon points="1725.0,2400.0 1789.951905283833,2437.5 1789.951905283833,2512.5 1725.0,2550.0 1660.048094716167,2512.5 1660.048094716167,2437.5" style="stroke: rgb(200,200,200); stroke-width:4; fill: none;"/>
	<polygon points="1875.0,2400.0 1939.951905283833,2437.5 1939.951905283833,2512.5 1875.0,2550.0 1810.048094716167,2512.5 1810.048094716167,2437.5" style="stroke: rgb(200,200,200); stroke-width:4; fill: none;"/>
	<polygon points="2025.0,2400.0 2089.9519052838327,2437.5 2089.9519052838327,2512.5 2025.0,2550.0 1960.048094716167,2512.5 1960.048094716167,2437.5" style="stroke: rgb(200,200,200); stroke-width:4; fill: none;"/>
	<polygon points="2175.0,2400.0 2239.9519052838327,2437.5 2239.9519052838327,2512.5 2175.0,2550.0 2110.0480947161673,2512.5 2110.0480947161673,2437.5" style="stroke: rgb(200,200,200); stroke-width:4; fill: none;"/>
	<polygon points="2325.0,2400.0 2389.9519052838327,2437.5 2389.9519052838327,2512.5 2325.0,2550.0 2260.0480947161673,2512.5 2260.0480947161673,2437.5" style="stroke: rgb(200,200,200); stroke-width:4; fill: none;"/>
	<polygon points="2475.0,2400.0 2539.9519052838327,2437.5 2539.9519052838327,2512.5 2475.0,2550.0 2410.0480947161673,2512.5 2410.0480947161673,2437.5" style="stroke: rgb(200,200,200); stroke-width:4; fill: none;"/>
	<polygon points="150.0,2550.0 214.9519052838329,2587.5 214.9519052838329,2662.5 150.0,2700.0 85.04809471616711,2662.5 85.0480947161671,2587.5" style="stroke: rgb(200,200,200); stroke-width:4; fill: none;"/>
	<polygon points="300.0,2550.0 364.9519052838329,2587.5 364.9519052838329,2662.5 300.0,2700.0 235.0480947161671,2662.5 235.0480947161671,2587.5" style="stroke: rgb(200,200,200); stroke-width:4; fill: none;"/>
	<polygon points="450.0,2550.0 514.951905283833,2587.5 514.951905283833,2662.5 450.0,2700.0 385.0480947161671,2662.5 385.0480947161671,2587.5" style="stroke: rgb(200,200,200); stroke-width:4; fill: none;"/>
	<polygon points="600.0,2550.0 664.951905283833,2587.5 664.951905283833,2662.5 600.0,2700.0 535.0480947161672,2662.5 535.048094716167,2587.5" style="stroke: rgb(200,200,200); stroke-width:4; fill: none;"/>
	<polygon points="750.0,2550.0 814.951905283833,2587.5 814.951905283833,2662.5 750.0,2700.0 685.0480947161672,2662.5 685.048094716167,2587.5" style="stroke: rgb(200,200,200); stroke-width:4; fill: none;"/>
	<polygon points="900.0,2550.0 964.951905283833,2587.5 964.951905283833,2662.5 900.0,2700.0 835.0480947161672,2662.5 835.048094716167,2587.5" style="stroke: rgb(200,200,200); stroke-width:4; fill: none;"/>
	<polygon points="1050.0,2550.0 1114.951905283833,2587.5 1114.951905283833,2662.5 1050.0,2700.0 985.0480947161672,2662.5 985.048094716167,2587.5" style="stroke: rgb(200,200,200); stroke-width:4; fill: none;"/>
	<polygon points="1200.0,2550.0 1264.951905283833,2587.5 1264.951905283833,2662.5 1200.0,2700.0 1135.048094716167,2662.5 1135.048094716167,2587.5" style="stroke: rgb(200,200,200); stroke-width:4; fill: none;"/>
	<polygon points="1350.0,2550.0 1414.951905283833,2587.5 1414.951905283833,2662.5 1350.0,2700.0 1285.048094716167,2662.5 1285.048094716167,2587.5" style="stroke: rgb(200,200,200); stroke-width:4; fill: none;"/>
	<polygon points="1500.0,2550.0 1564.951905283833,2587.5 1564.951905283833,2662.5 1500.0,2700.0 1435.048094716167,2662.5 1435.048094716167,2587.5" style="stroke: rgb(200,200,200); stroke-width:4; fill: none;"/>
	<polygon points="1650.0,2550.0 1714.951905283833,2587.5 1714.951905283833,2662.5 1650.0,2700.0 1585.048094716167,2662.5 1585.048094716167,2587.5" style="stroke: rgb(200,200,200); stroke-width:4; fill: none;"/>
	<polygon points="1800.0,2550.0 1864.951905283833,2587.5 1864.951905283833,2662.5 1800.0,2700.0 1735.048094716167,2662.5 1735.048094716167,2587.5" style="stroke: rgb(200,200,200); stroke-width:4; fill: none;"/>
	<polygon points="1950.0,2550.0 2014.951905283833,2587.5 2014.951905283833,2662.5 1950.0,2700.0 1885.048094716167,2662.5 1885.048094716167,2587.5" style="stroke: rgb(200,200,200); stroke-width:4; fill: none;"/>
	<polygon points="2100.0,2550.0 2164.9519052838327,2587.5 2164.9519052838327,2662.5 2100.0,2700.0 2035.048094716167,2662.5 2035.048094716167,2587.5" style="stroke: rgb(200,200,200); stroke-width:4; fill: none;"/>
	<polygon points="2250.0,2550.0 2314.9519052838327,2587.5 2314.9519052838327,2662.5 2250.0,2700.0 2185.0480947161673,2662.5 2185.0480947161673,2587.5" style="stroke: rgb(200,200,200); stroke-width:4; fill: none;"/>
	<polygon points="2400.0,2550.0 2464.9519052838327,2587.5 2464.9519052838327,2662.5 2400.0,2700.0 2335.0480947161673,2662.5 2335.0480947161673,2587.5" style="stroke: rgb(200,200,200); stroke-width:4; fill: none;"/>
	<polygon points="2550.0,2550.0 2614.9519052838327,2587.5 2614.9519052838327,2662.5 2550.0,2700.0 2485.0480947161673,2662.5 2485.0480947161673,2587.5" style="stroke: rgb(200,200,200); stroke-width:4; fill: none;"/>
	<polygon points="75.0,2700.0 139.9519052838329,2737.5 139.9519052838329,2812.5 75.0,2850.0 10.048094716167114,2812.5 10.0480947161671,2737.5" style="stroke: rgb(200,200,200); stroke-width:4; fill: none;"/>
	<polygon points="225.0,2700.0 289.9519052838329,2737.5 289.9519052838329,2812.5 225.0,2850.0 160.0480947161671,2812.5 160.0480947161671,2737.5" style="stroke: rgb(200,200,200); stroke-width:4; fill: none;"/>
	<polygon points="375.0,2700.0 439.9519052838329,2737.5 439.9519052838329,2812.5 375.0,2850.0 310.0480947161671,2812.5 310.0480947161671,2737.5" style="stroke: rgb(200,200,200); stroke-width:4; fill: none;"/>
	<polygon points="525.0,2700.0 589.951905283833,2737.5 589.951905283833,2812.5 525.0,2850.0 460.0480947161671,2812.5 460.0480947161671,2737.5" style="stroke: rgb(200,200,200); stroke-width:4; fill: none;"/>
	<polygon points="675.0,2700.0 739.951905283833,2737.5 739.951905283833,2812.5 675.0,2850.0 610.0480947161672,2812.5 610.048094716167,2737.5" style="stroke: rgb(200,200,200); stroke-width:4; fill: none;"/>
	<polygon points="825.0,2700.0 889.951905283833,2737.5 889.951905283833,2812.5 825.0,2850.0 760.0480947161672,2812.5 760.048094716167,2737.5" style="stroke: rgb(200,200,200); stroke-width:4; fill: none;"/>
	<polygon points="975.0,2700.0 1039.951905283833,2737.5 1039.951905283833,2812.5 975.0,2850.0 910.0480947161672,2812.5 910.048094716167,2737.5" style="stroke: rgb(200,200,200); stroke-width:4; fill: none;"/>
	<polygon points="1125.0,2700.0 1189.951905283833,2737.5 1189.951905283833,2812.5 1125.0,2850.0 1060.048094716167,2812.5 1060.048094716167,2737.5" style="stroke: rgb(200,200,200); stroke-width:4; fill: none;"/>
	<polygon points="1275.0,2700.0 1339.951905283833,2737.5 1339.951905283833,2812.5 1275.0,2850.0 1210.048094716167,2812.5 1210.048094716167,2737.5" style="stroke: rgb(200,200,200); stroke-width:4; fill: none;"/>
	<polygon points="1425.0,2700.0 1489.951905283833,2737.5 1489.951905283833,2812.5 1425.0,2850.0 1360.048094716167,2812.5 1360.048094716167,2737.5" style="stroke: rgb(200,200,200); stroke-width:4; fill: none;"/>
	<polygon points="1575.0,2700.0 1639.951905283833,2737.5 1639.951905283833,2812.5 1575.0,2850.0 1510.048094716167,2812.5 1510.048094716167,2737.5" style="stroke: rgb(200,200,200); stroke-width:4; fill: none;"/>
	<polygon points="1725.0,2700.0 1789.951905283833,2737.5 1789.951905283833,2812.5 1725.0,2850.0 1660.048094716167,2812.5 1660.048094716167,2737.5" style="stroke: rgb(200,200,200); stroke-width:4; fill: none;"/>
	<polygon points="1875.0,2700.0 1939.951905283833,2737.5 1939.951905283833,2812.5 1875.0,2850.0 1810.048094716167,2812.5 1810.048094716167,2737.5" style="stroke: rgb(200,200,200); stroke-width:4; fill: none;"/>
	<polygon points="2025.0,2700.0 2089.9519052838327,2737.5 2089.9519052838327,2812.5 2025.0,2850.0 1960.048094716167,2812.5 1960.048094716167,2737.5" style="stroke: rgb(200,200,200); stroke-width:4; fill: none;"/>
	<polygon points="2175.0,2700.0 2239.9519052838327,2737.5 2239.9519052838327,2812.5 2175.0,2850.0 2110.0480947161673,2812.5 2110.0480947161673,2737.5" style="stroke: rgb(200,200,200); stroke-width:4; fill: none;"/>
	<polygon points="2325.0,2700.0 2389.9519052838327,2737.5 2389.9519052838327,2812.5 2325.0,2850.0 2260.0480947161673,2812.5 2260.0480947161673,2737.5" style="stroke: rgb(200,200,200); stroke-width:4; fill: none;"/>
	<polygon points="2475.0,2700.0 2539.9519052838327,2737.5 2539.9519052838327,2812.5 2475.0,2850.0 2410.0480947161673,2812.5 2410.0480947161673,2737.5" style="stroke: rgb(200,200,200); stroke-width:4; fill: none;"/>
	<polygon points="150.0,2850.0 214.9519052838329,2887.5 214.9519052838329,2962.5 150.0,3000.0 85.04809471616711,2962.5 85.0480947161671,2887.5" style="stroke: rgb(200,200,200); stroke-width:4; fill: none;"/>
	<polygon points="300.0,2850.0 364.9519052838329,2887.5 364.9519052838329,2962.5 300.0,3000.0 235.0480947161671,2962.5 235.0480947161671,2887.5" style="stroke: rgb(200,200,200); stroke-width:4; fill: none;"/>
	<polygon points="450.0,2850.0 514.951905283833,2887.5 514.951905283833,2962.5 450.0,3000.0 385.0480947161671,2962.5 385.0480947161671,2887.5" style="stroke: rgb(200,200,200); stroke-width:4; fill: none;"/>
	<polygon points="600.0,2850.0 664.951905283833,2887.5 664.951905283833,2962.5 600.0,3000.0 535.0480947161672,2962.5 535.048094716167,2887.5" style="stroke: rgb(200,200,200); stroke-width:4; fill: none;"/>
	<polygon points="750.0,2850.0 814.951905283833,2887.5 814.951905283833,2962.5 750.0,3000.0 685.0480947161672,2962.5 685.048094716167,2887.5" style="stroke: rgb(200,200,200); stroke-width:4; fill: none;"/>
	<polygon points="900.0,2850.0 964.951905283833,2887.5 964.951905283833,2962.5 900.0,3000.0 835.0480947161672,2962.5 835.048094716167,2887.5" style="stroke: rgb(200,200,200); stroke-width:4; fill: none;"/>
	<polygon points="1050.0,2850.0 1114.951905283833,2887.5 1114.951905283833,2962.5 1050.0,3000.0 985.0480947161672,2962.5 985.048094716167,2887.5" style="stroke: rgb(200,200,200); stroke-width:4; fill: none;"/>
	<polygon points="1200.0,2850.0 1264.951905283833,2887.5 1264.951905283833,2962.5 1200.0,3000.0 1135.048094716167,2962.5 1135.048094716167,2887.5" style="stroke: rgb(200,200,200); stroke-width:4; fill: none;"/>
	<polygon points="1350.0,2850.0 1414.951905283833,2887.5 1414.951905283833,2962.5 1350.0,3000.0 1285.048094716167,2962.5 1285.048094716167,2887.5" style="stroke: rgb(200,200,200); stroke-width:4; fill: none;"/>
	<polygon points="1500.0,2850.0 1564.951905283833,2887.5 1564.951905283833,2962.5 1500.0,3000.0 1435.048094716167,2962.5 1435.048094716167,2887.5" style="stroke: rgb(200,200,200); stroke-width:4; fill: none;"/>
	<polygon points="1650.0,2850.0 1714.951905283833,2887.5 1714.951905283833,2962.5 1650.0,3000.0 1585.048094716167,2962.5 1585.048094716167,2887.5" style="stroke: rgb(200,200,200); stroke-width:4; fill: none;"/>
	<polygon points="1800.0,2850.0 1864.951905283833,2887.5 1864.951905283833,2962.5 1800.0,3000.0 1735.048094716167,2962.5 1735.048094716167,2887.5" style="stroke: rgb(200,200,200); stroke-width:4; fill: none;"/>
	<polygon points="1950.0,2850.0 2014.951905283833,2887.5 2014.951905283833,2962.5 1950.0,3000.0 1885.048094716167,2962.5 1885.048094716167,2887.5" style="stroke: rgb(200,200,200); stroke-width:4; fill: none;"/>
	<polygon points="2100.0,2850.0 2164.9519052838327,2887.5 2164.9519052838327,2962.5 2100.0,3000.0 2035.048094716167,2962.5 2035.048094716167,2887.5" style="stroke: rgb(200,200,200); stroke-width:4; fill: none;"/>
	<polygon points="2250.0,2850.0 2314.9519052838327,2887.5 2314.9519052838327,2962.5 2250.0,3000.0 2185.0480947161673,2962.5 2185.0480947161673,2887.5" style="stroke: rgb(200,200,200); stroke-width:4; fill: none;"/>
	<polygon points="2400.0,2850.0 2464.9519052838327,2887.5 2464.9519052838327,2962.5 2400.0,3000.0 2335.0480947161673,2962.5 2335.0480947161673,2887.5" style="stroke: rgb(200,200,200); stroke-width:4; fill: none;"/>
	<polygon points="2550.0,2850.0 2614.9519052838327,2887.5 2614.9519052838327,2962.5 2550.0,3000.0 2485.0480947161673,2962.5 2485.0480947161673,2887.5" style="stroke: rgb(200,200,200); stroke-width:4; fill: none;"/>
	<polygon points="75.0,3000.0 139.9519052838329,3037.5 139.9519052838329,3112.5 75.0,3150.0 10.048094716167114,3112.5 10.0480947161671,3037.5" style="stroke: rgb(200,200,200); stroke-width:4; fill: none;"/>
	<polygon points="225.0,3000.0 289.9519052838329,3037.5 289.9519052838329,3112.5 225.0,3150.0 160.0480947161671,3112.5 160.0480947161671,3037.5" style="stroke: rgb(200,200,200); stroke-width:4; fill: none;"/>
	<polygon points="375.0,3000.0 439.9519052838329,3037.5 439.9519052838329,3112.5 375.0,3150.0 310.0480947161671,3112.5 310.0480947161671,3037.5" style="stroke: rgb(200,200,200); stroke-width:4; fill: none;"/>
	<polygon points="525.0,3000.0 589.951905283833,3037.5 589.951905283833,3112.5 525.0,3150.0 460.0480947161671,3112.5 460.0480947161671,3037.5" style="stroke: rgb(200,200,200); stroke-width:4; fill: none;"/>
	<polygon points="675.0,3000.0 739.951905283833,3037.5 739.951905283833,3112.5 675.0,3150.0 610.0480947161672,3112.5 610.048094716167,3037.5" style="stroke: rgb(200,200,200); stroke-width:4; fill: none;"/>
	<polygon points="825.0,3000.0 889.951905283833,3037.5 889.951905283833,3112.5 825.0,3150.0 760.0480947161672,3112.5 760.048094716167,3037.5" style="stroke: rgb(200,200,200); stroke-width:4; fill: none;"/>
	<polygon points="975.0,3000.0 1039.951905283833,3037.5 1039.951905283833,3112.5 975.0,3150.0 910.0480947161672,3112.5 910.048094716167,3037.5" style="stroke: rgb(200,200,200); stroke-width:4; fill: none;"/>
	<polygon points="1125.0,3000.0 1189.951905283833,3037.5 1189.951905283833,3112.5 1125.0,3150.0 1060.048094716167,3112.5 1060.048094716167,3037.5" style="stroke: rgb(200,200,200); stroke-width:4; fill: none;"/>
	<polygon points="1275.0,3000.0 1339.951905283833,3037.5 1339.951905283833,3112.5 1275.0,3150.0 1210.048094716167,3112.5 1210.048094716167,3037.5" style="stroke: rgb(200,200,200); stroke-width:4; fill: none;"/>
	<polygon points="1425.0,3000.0 1489.951905283833,3037.5 1489.951905283833,3112.5 1425.0,3150.0 1360.048094716167,3112.5 1360.048094716167,3037.5" style="stroke: rgb(200,200,200); stroke-width:4; fill: none;"/>
	<polygon points="1575.0,3000.0 1639.951905283833,3037.5 1639.951905283833,3112.5 1575.0,3150.0 1510.048094716167,3112.5 1510.048094716167,3037.5" style="stroke: rgb(200,200,200); stroke-width:4; fill: none;"/>
	<polygon points="1725.0,3000.0 1789.951905283833,3037.5 1789.951905283833,3112.5 1725.0,3150.0 1660.048094716167,3112.5 1660.048094716167,3037.5" style="stroke: rgb(200,200,200); stroke-width:4; fill: none;"/>
	<polygon points="1875.0,3000.0 1939.951905283833,3037.5 1939.951905283833,3112.5 1875.0,3150.0 1810.048094716167,3112.5 1810.048094716167,3037.5" style="stroke: rgb(200,200,200); stroke-width:4; fill: none;"/>
	<polygon points="2025.0,3000.0 2089.9519052838327,3037.5 2089.9519052838327,3112.5 2025.0,3150.0 1960.048094716167,3112.5 1960.048094716167,3037.5" style="stroke: rgb(200,200,200); stroke-width:4; fill: none;"/>
	<polygon points="2175.0,3000.0 2239.9519052838327,3037.5 2239.9519052838327,3112.5 2175.0,3150.0 2110.0480947161673,3112.5 2110.0480947161673,3037.5" style="stroke: rgb(200,200,200); stroke-width:4; fill: none;"/>
	<polygon points="2325.0,3000.0 2389.9519052838327,3037.5 2389.9519052838327,3112.5 2325.0,3150.0 2260.0480947161673,3112.5 2260.0480947161673,3037.5" style="stroke: rgb(200,200,200); stroke-width:4; fill: none;"/>
	<polygon points="2475.0,3000.0 2539.9519052838327,3037.5 2539.9519052838327,3112.5 2475.0,3150.0 2410.0480947161673,3112.5 2410.0480947161673,3037.5" style="stroke: rgb(200,200,200); stroke-width:4; fill: none;"/>
	<polygon points="150.0,3150.0 214.9519052838329,3187.5 214.9519052838329,3262.5 150.0,3300.0 85.04809471616711,3262.5 85.0480947161671,3187.5" style="stroke: rgb(200,200,200); stroke-width:4; fill: none;"/>
	<polygon points="300.0,3150.0 364.9519052838329,3187.5 364.9519052838329,3262.5 300.0,3300.0 235.0480947161671,3262.5 235.0480947161671,3187.5" style="stroke: rgb(200,200,200); stroke-width:4; fill: none;"/>
	<polygon points="450.0,3150.0 514.951905283833,3187.5 514.951905283833,3262.5 450.0,3300.0 385.0480947161671,3262.5 385.0480947161671,3187.5" style="stroke: rgb(200,200,200); stroke-width:4; fill: none;"/>
	<polygon points="600.0,3150.0 664.951905283833,3187.5 664.951905283833,3262.5 600.0,3300.0 535.0480947161672,3262.5 535.048094716167,3187.5" style="stroke: rgb(200,200,200); stroke-width:4; fill: none;"/>
	<polygon points="750.0,3150.0 814.951905283833,3187.5 814.951905283833,3262.5 750.0,3300.0 685.0480947161672,3262.5 685.048094716167,3187.5" style="stroke: rgb(200,200,200); stroke-width:4; fill: none;"/>
	<polygon points="900.0,3150.0 964.951905283833,3187.5 964.951905283833,3262.5 900.0,3300.0 835.0480947161672,3262.5 835.048094716167,3187.5" style="stroke: rgb(200,200,200); stroke-width:4; fill: none;"/>
	<polygon points="1050.0,3150.0 1114.951905283833,3187.5 1114.951905283833,3262.5 1050.0,3300.0 985.0480947161672,3262.5 985.048094716167,3187.5" style="stroke: rgb(200,200,200); stroke-width:4; fill: none;"/>
	<polygon points="1200.0,3150.0 1264.951905283833,3187.5 1264.951905283833,3262.5 1200.0,3300.0 1135.048094716167,3262.5 1135.048094716167,3187.5" style="stroke: rgb(200,200,200); stroke-width:4; fill: none;"/>
	<polygon points="1350.0,3150.0 1414.951905283833,3187.5 1414.951905283833,3262.5 1350.0,3300.0 1285.048094716167,3262.5 1285.048094716167,3187.5" style="stroke: rgb(200,200,200); stroke-width:4; fill: none;"/>
	<polygon points="1500.0,3150.0 1564.951905283833,3187.5 1564.951905283833,3262.5 1500.0,3300.0 1435.048094716167,3262.5 1435.048094716167,3187.5" style="stroke: rgb(200,200,200); stroke-width:4; fill: none;"/>
	<polygon points="1650.0,3150.0 1714.951905283833,3187.5 1714.951905283833,3262.5 1650.0,3300.0 1585.048094716167,3262.5 1585.048094716167,3187.5" style="stroke: rgb(200,200,200); stroke-width:4; fill: none;"/>
	<polygon points="1800.0,3150.0 1864.951905283833,3187.5 1864.951905283833,3262.5 1800.0,3300.0 1735.048094716167,3262.5 1735.048094716167,3187.5" style="stroke: rgb(200,200,200); stroke-width:4; fill: none;"/>
	<polygon points="1950.0,3150.0 2014.951905283833,3187.5 2014.951905283833,3262.5 1950.0,3300.0 1885.048094716167,3262.5 1885.048094716167,3187.5" style="stroke: rgb(200,200,200); stroke-width:4; fill: none;"/>
	<polygon points="2100.0,3150.0 2164.9519052838327,3187.5 2164.9519052838327,3262.5 2100.0,3300.0 2035.048094716167,3262.5 2035.048094716167,3187.5" style="stroke: rgb(200,200,200); stroke-width:4; fill: none;"/>
	<polygon points="2250.0,3150.0 2314.9519052838327,3187.5 2314.9519052838327,3262.5 2250.0,3300.0 2185.0480947161673,3262.5 2185.0480947161673,3187.5" style="stroke: rgb(200,200,200); stroke-width:4; fill: none;"/>
	<polygon points="2400.0,3150.0 2464.9519052838327,3187.5 2464.9519052838327,3262.5 2400.0,3300.0 2335.0480947161673,3262.5 2335.0480947161673,3187.5" style="stroke: rgb(200,200,200); stroke-width:4; fill: none;"/>
	<polygon points="2550.0,3150.0 2614.9519052838327,3187.5 2614.9519052838327,3262.5 2550.0,3300.0 2485.0480947161673,3262.5 2485.0480947161673,3187.5" style="stroke: rgb(200,200,200); stroke-width:4; fill: none;"/>
</svg>