<?xml version="1.0" encoding="UTF-8" standalone="no"?>
<!DOCTYPE svg PUBLIC "-//W3C//DTD SVG 1.1//EN" "http://www.w3.org/Graphics/SVG/1.1/DTD/svg11.dtd">
<svg width="100%" height="100%" viewBox="0 0 2550.0 3300" xmlns="http://www.w3.org/2000/svg">
	<polygon points="75.0,0.0 146.3292387221365,51.82372542187895 119.0838939219355,135.67627457812105 30.916106078064523,135.67627457812105 3.670761277863477,51.823725421878954" style="stroke: rgb(200,200,200); stroke-width:4; fill: none;"/>
	<polygon points="225.0,0.0 296.3292387221365,51.82372542187895 269.0838939219355,135.67627457812105 180.91610607806453,135.67627457812105 153.67076127786348,51.823725421878954" style="stroke: rgb(200,200,200); stroke-width:4; fill: none;"/>
	<polygon points="375.0,0.0 446.3292387221365,51.82372542187895 419.0838939219355,135.67627457812105 330.9161060780645,135.67627457812105 303.67076127786345,51.823725421878954" style="stroke: rgb(200,200,200); stroke-width:4; fill: none;"/>
	<polygon points="525.0,0.0 596.3292387221366,51.82372542187895 569.0838939219354,135.67627457812105 480.9161060780645,135.67627457812105 453.67076127786345,51.823725421878954" style="stroke: rgb(200,200,200); stroke-width:4; fill: none;"/>
	<polygon points="675.0,0.0 746.3292387221366,51.82372542187895 719.0838939219354,135.67627457812105 630.9161060780646,135.67627457812105 603.6707612778634,51.823725421878954" style="stroke: rgb(200,200,200); stroke-width:4; fill: none;"/>
	<polygon points="825.0,0.0 896.3292387221366,51.82372542187895 869.0838939219354,135.67627457812105 780.9161060780646,135.67627457812105 753.6707612778634,51.823725421878954" style="stroke: rgb(200,200,200); stroke-width:4; fill: none;"/>
	<polygon points="975.0,0.0 1046.3292387221366,51.82372542187895 1019.0838939219354,135.67627457812105 930.9161060780646,135.67627457812105 903.6707612778634,51.823725421878954" style="stroke: rgb(200,200,200); stroke-width:4; fill: none;"/>
	<polygon points="1125.0,0.0 1196.3292387221366,51.82372542187895 1169.0838939219354,135.67627457812105 1080.9161060780646,135.67627457812105 1053.6707612778634,51.823725421878954" style="stroke: rgb(200,200,200); stroke-width:4; fill: none;"/>
	<polygon points="1275.0,0.0 1346.3292387221366,51.82372542187895 1319.0838939219354,135.67627457812105 1230.9161060780646,135.67627457812105 1203.6707612778634,51.823725421878954" style="stroke: rgb(200,200,200); stroke-width:4; fill: none;"/>
	<polygon points="1425.0,0.0 1496.3292387221366,51.82372542187895 1469.0838939219354,135.67627457812105 1380.9161060780646,135.67627457812105 1353.6707612778634,51.823725421878954" style="stroke: rgb(200,200,200); stroke-width:4; fill: none;"/>
	<polygon points="1575.0,0.0 1646.3292387221366,51.82372542187895 1619.0838939219354,135.67627457812105 1530.9161060780646,135.67627457812105 1503.6707612778634,51.823725421878954" style="stroke: rgb(200,200,200); stroke-width:4; fill: none;"/>
	<polygon points="1725.0,0.0 1796.3292387221366,51.82372542187895 1769.0838939219354,135.67627457812105 1680.9161060780646,135.67627457812105 1653.6707612778634,51.823725421878954" style="stroke: rgb(200,200,200); stroke-width:4; fill: none;"/>
	<polygon points="1875.0,0.0 1946.3292387221366,51.82372542187895 1919.0838939219354,135.67627457812105 1830.9161060780646,135.67627457812105 1803.6707612778634,51.823725421878954" style="stroke: rgb(200,200,200); stroke-width:4; fill: none;"/>
	<polygon points="2025.0,0.0 2096.3292387221363,51.82372542187895 2069.0838939219357,135.67627457812105 1980.9161060780646,135.67627457812105 1953.6707612778634,51.823725421878954" style="stroke: rgb(200,200,200); stroke-width:4; fill: none;"/>
	<polygon points="2175.0,0.0 2246.3292387221363,51.82372542187895 2219.0838939219357,135.67627457812105 2130.9161060780643,135.67627457812105 2103.6707612778637,51.823725421878954" style="stroke: rgb(200,200,200); stroke-width:4; fill: none;"/>
	<polygon points="2325.0,0.0 2396.3292387221363,51.82372542187895 2369.0838939219357,135.67627457812105 2280.9161060780643,135.67627457812105 2253.6707612778637,51.823725421878954" style="stroke: rgb(200,200,200); stroke-width:4; fill: none;"/>
	<polygon points="2475.0,0.0 2546.3292387221363,51.82372542187895 2519.0838939219357,135.67627457812105 2430.9161060780643,135.67627457812105 2403.6707612778637,51.823725421878954" style="stroke: rgb(200,200,200); stroke-width:4; fill: none;"/>
	<polygon points="150.0,150.0 221.3292387221365,201.82372542187895 194.0838939219355,285.676274578121 105.91610607806453,285.6762745781211 78.67076127786348,201.82372542187895" style="stroke: rgb(200,200,200); stroke-width:4; fill: none;"/>
	<polygon points="300.0,150.0 371.3292387221365,201.82372542187895 344.0838939219355,285.676274578121 255.91610607806453,285.6762745781211 228.67076127786348,201.82372542187895" style="stroke: rgb(200,200,200); stroke-width:4; fill: none;"/>
	<polygon points="450.0,150.0 521.3292387221366,201.82372542187895 494.0838939219355,285.676274578121 405.9161060780645,285.6762745781211 378.67076127786345,201.82372542187895" style="stroke: rgb(200,200,200); stroke-width:4; fill: none;"/>
	<polygon points="600.0,150.0 671.3292387221366,201.82372542187895 644.0838939219354,285.676274578121 555.9161060780646,285.6762745781211 528.6707612778634,201.82372542187895" style="stroke: rgb(200,200,200); stroke-width:4; fill: none;"/>
	<polygon points="750.0,150.0 821.3292387221366,201.82372542187895 794.0838939219354,285.676274578121 705.9161060780646,285.6762745781211 678.6707612778634,201.82372542187895" style="stroke: rgb(200,200,200); stroke-width:4; fill: none;"/>
	<polygon points="900.0,150.0 971.3292387221366,201.82372542187895 944.0838939219354,285.676274578121 855.9161060780646,285.6762745781211 828.6707612778634,201.82372542187895" style="stroke: rgb(200,200,200); stroke-width:4; fill: none;"/>
	<polygon points="1050.0,150.0 1121.3292387221366,201.82372542187895 1094.0838939219354,285.676274578121 1005.9161060780646,285.6762745781211 978.6707612778634,201.82372542187895" style="stroke: rgb(200,200,200); stroke-width:4; fill: none;"/>
	<polygon points="1200.0,150.0 1271.3292387221366,201.82372542187895 1244.0838939219354,285.676274578121 1155.9161060780646,285.6762745781211 1128.6707612778634,201.82372542187895" style="stroke: rgb(200,200,200); stroke-width:4; fill: none;"/>
	<polygon points="1350.0,150.0 1421.3292387221366,201.82372542187895 1394.0838939219354,285.676274578121 1305.9161060780646,285.6762745781211 1278.6707612778634,201.82372542187895" style="stroke: rgb(200,200,200); stroke-width:4; fill: none;"/>
	<polygon points="1500.0,150.0 1571.3292387221366,201.82372542187895 1544.0838939219354,285.676274578121 1455.9161060780646,285.6762745781211 1428.6707612778634,201.82372542187895" style="stroke: rgb(200,200,200); stroke-width:4; fill: none;"/>
	<polygon points="1650.0,150.0 1721.3292387221366,201.82372542187895 1694.0838939219354,285.676274578121 1605.9161060780646,285.6762745781211 1578.6707612778634,201.82372542187895" style="stroke: rgb(200,200,200); stroke-width:4; fill: none;"/>
	<polygon points="1800.0,150.0 1871.3292387221366,201.82372542187895 1844.0838939219354,285.676274578121 1755.9161060780646,285.6762745781211 1728.6707612778634,201.82372542187895" style="stroke: rgb(200,200,200); stroke-width:4; fill: none;"/>
	<polygon points="1950.0,150.0 2021.3292387221366,201.82372542187895 1994.0838939219354,285.676274578121 1905.9161060780646,285.6762745781211 1878.6707612778634,201.82372542187895" style="stroke: rgb(200,200,200); stroke-width:4; fill: none;"/>
	<polygon points="2100.0,150.0 2171.3292387221363,201.82372542187895 2144.0838939219357,285.676274578121 2055.9161060780643,285.6762745781211 2028.6707612778634,201.82372542187895" style="stroke: rgb(200,200,200); stroke-width:4; fill: none;"/>
	<polygon points="2250.0,150.0 2321.3292387221363,201.82372542187895 2294.0838939219357,285.676274578121 2205.9161060780643,285.6762745781211 2178.6707612778637,201.82372542187895" style="stroke: rgb(200,200,200); stroke-width:4; fill: none;"/>
	<polygon points="2400.0,150.0 2471.3292387221363,201.82372542187895 2444.0838939219357,285.676274578121 2355.9161060780643,285.6762745781211 2328.6707612778637,201.82372542187895" style="stroke: rgb(200,200,200); stroke-width:4; fill: none;"/>
	<polygon points="2550.0,150.0 2621.3292387221363,201.82372542187895 2594.0838939219357,285.676274578121 2505.9161060780643,285.6762745781211 2478.6707612778637,201.82372542187895" style="stroke: rgb(200,200,200); stroke-width:4; fill: none;"/>
	<polygon points="75.0,300.0 146.3292387221365,351.8237254218789 119.0838939219355,435.676274578121 30.916106078064523,435.6762745781211 3.670761277863477,351.823725421879" style="stroke: rgb(200,200,200); stroke-width:4; fill: none;"/>
	<polygon points="225.0,300.0 296.3292387221365,351.8237254218789 269.0838939219355,435.676274578121 180.91610607806453,435.6762745781211 153.67076127786348,351.823725421879" style="stroke: rgb(200,200,200); stroke-width:4; fill: none;"/>
	<polygon points="375.0,300.0 446.3292387221365,351.8237254218789 419.0838939219355,435.676274578121 330.9161060780645,435.6762745781211 303.67076127786345,351.823725421879" style="stroke: rgb(200,200,200); stroke-width:4; fill: none;"/>
	<polygon points="525.0,300.0 596.3292387221366,351.8237254218789 569.0838939219354,435.676274578121 480.9161060780645,435.6762745781211 453.67076127786345,351.823725421879" style="stroke: rgb(200,200,200); stroke-width:4; fill: none;"/>
	<polygon points="675.0,300.0 746.3292387221366,351.8237254218789 719.0838939219354,435.676274578121 630.9161060780646,435.6762745781211 603.6707612778634,351.823725421879" style="stroke: rgb(200,200,200); stroke-width:4; fill: none;"/>
	<polygon points="825.0,300.0 896.3292387221366,351.8237254218789 869.0838939219354,435.676274578121 780.9161060780646,435.6762745781211 753.6707612778634,351.823725421879" style="stroke: rgb(200,200,200); stroke-width:4; fill: none;"/>
	<polygon points="975.0,300.0 1046.3292387221366,351.8237254218789 1019.0838939219354,435.676274578121 930.9161060780646,435.6762745781211 903.6707612778634,351.823725421879" style="stroke: rgb(200,200,200); stroke-width:4; fill: none;"/>
	<polygon points="1125.0,300.0 1196.3292387221366,351.8237254218789 1169.0838939219354,435.676274578121 1080.9161060780646,435.6762745781211 1053.6707612778634,351.823725421879" style="stroke: rgb(200,200,200); stroke-width:4; fill: none;"/>
	<polygon points="1275.0,300.0 1346.3292387221366,351.8237254218789 1319.0838939219354,435.676274578121 1230.9161060780646,435.6762745781211 1203.6707612778634,351.823725421879" style="stroke: rgb(200,200,200); stroke-width:4; fill: none;"/>
	<polygon points="1425.0,300.0 1496.3292387221366,351.8237254218789 1469.0838939219354,435.676274578121 1380.9161060780646,435.6762745781211 1353.6707612778634,351.823725421879" style="stroke: rgb(200,200,200); stroke-width:4; fill: none;"/>
	<polygon points="1575.0,300.0 1646.3292387221366,351.8237254218789 1619.0838939219354,435.676274578121 1530.9161060780646,435.6762745781211 1503.6707612778634,351.823725421879" style="stroke: rgb(200,200,200); stroke-width:4; fill: none;"/>
	<polygon points="1725.0,300.0 1796.3292387221366,351.8237254218789 1769.0838939219354,435.676274578121 1680.9161060780646,435.6762745781211 1653.6707612778634,351.823725421879" style="stroke: rgb(200,200,200); stroke-width:4; fill: none;"/>
	<polygon points="1875.0,300.0 1946.3292387221366,351.8237254218789 1919.0838939219354,435.676274578121 1830.9161060780646,435.6762745781211 1803.6707612778634,351.823725421879" style="stroke: rgb(200,200,200); stroke-width:4; fill: none;"/>
	<polygon points="2025.0,300.0 2096.3292387221363,351.8237254218789 2069.0838939219357,435.676274578121 1980.9161060780646,435.6762745781211 1953.6707612778634,351.823725421879" style="stroke: rgb(200,200,200); stroke-width:4; fill: none;"/>
	<polygon points="2175.0,300.0 2246.3292387221363,351.8237254218789 2219.0838939219357,435.676274578121 2130.9161060780643,435.6762745781211 2103.6707612778637,351.823725421879" style="stroke: rgb(200,200,200); stroke-width:4; fill: none;"/>
	<polygon points="2325.0,300.0 2396.3292387221363,351.8237254218789 2369.0838939219357,435.676274578121 2280.9161060780643,435.6762745781211 2253.6707612778637,351.823725421879" style="stroke: rgb(200,200,200); stroke-width:4; fill: none;"/>
	<polygon points="2475.0,300.0 2546.3292387221363,351.8237254218789 2519.0838939219357,435.676274578121 2430.9161060780643,435.6762745781211 2403.6707612778637,351.823725421879" style="stroke: rgb(200,200,200); stroke-width:4; fill: none;"/>
	<polygon points="150.0,450.0 221.3292387221365,501.8237254218789 194.0838939219355,585.676274578121 105.91610607806453,585.676274578121 78.67076127786348,501.823725421879" style="stroke: rgb(200,200,200); stroke-width:4; fill: none;"/>
	<polygon points="300.0,450.0 371.3292387221365,501.8237254218789 344.0838939219355,585.676274578121 255.91610607806453,585.676274578121 228.67076127786348,501.823725421879" style="stroke: rgb(200,200,200); stroke-width:4; fill: none;"/>
	<polygon points="450.0,450.0 521.3292387221366,501.8237254218789 494.0838939219355,585.676274578121 405.9161060780645,585.676274578121 378.67076127786345,501.823725421879" style="stroke: rgb(200,200,200); stroke-width:4; fill: none;"/>
	<polygon points="600.0,450.0 671.3292387221366,501.8237254218789 644.0838939219354,585.676274578121 555.9161060780646,585.676274578121 528.6707612778634,501.823725421879" style="stroke: rgb(200,200,200); stroke-width:4; fill: none;"/>
	<polygon points="750.0,450.0 821.3292387221366,501.8237254218789 794.0838939219354,585.676274578121 705.9161060780646,585.676274578121 678.6707612778634,501.823725421879" style="stroke: rgb(200,200,200); stroke-width:4; fill: none;"/>
	<polygon points="900.0,450.0 971.3292387221366,501.8237254218789 944.0838939219354,585.676274578121 855.9161060780646,585.676274578121 828.6707612778634,501.823725421879" style="stroke: rgb(200,200,200); stroke-width:4; fill: none;"/>
	<polygon points="1050.0,450.0 1121.3292387221366,501.8237254218789 1094.0838939219354,585.676274578121 1005.9161060780646,585.676274578121 978.6707612778634,501.823725421879" style="stroke: rgb(200,200,200); stroke-width:4; fill: none;"/>
	<polygon points="1200.0,450.0 1271.3292387221366,501.8237254218789 1244.0838939219354,585.676274578121 1155.9161060780646,585.676274578121 1128.6707612778634,501.823725421879" style="stroke: rgb(200,200,200); stroke-width:4; fill: none;"/>
	<polygon points="1350.0,450.0 1421.3292387221366,501.8237254218789 1394.0838939219354,585.676274578121 1305.9161060780646,585.676274578121 1278.6707612778634,501.823725421879" style="stroke: rgb(200,200,200); stroke-width:4; fill: none;"/>
	<polygon points="1500.0,450.0 1571.3292387221366,501.8237254218789 1544.0838939219354,585.676274578121 1455.9161060780646,585.676274578121 1428.6707612778634,501.823725421879" style="stroke: rgb(200,200,200); stroke-width:4; fill: none;"/>
	<polygon points="1650.0,450.0 1721.3292387221366,501.8237254218789 1694.0838939219354,585.676274578121 1605.9161060780646,585.676274578121 1578.6707612778634,501.823725421879" style="stroke: rgb(200,200,200); stroke-width:4; fill: none;"/>
	<polygon points="1800.0,450.0 1871.3292387221366,501.8237254218789 1844.0838939219354,585.676274578121 1755.9161060780646,585.676274578121 1728.6707612778634,501.823725421879" style="stroke: rgb(200,200,200); stroke-width:4; fill: none;"/>
	<polygon points="1950.0,450.0 2021.3292387221366,501.8237254218789 1994.0838939219354,585.676274578121 1905.9161060780646,585.676274578121 1878.6707612778634,501.823725421879" style="stroke: rgb(200,200,200); stroke-width:4; fill: none;"/>
	<polygon points="2100.0,450.0 2171.3292387221363,501.8237254218789 2144.0838939219357,585.676274578121 2055.9161060780643,585.676274578121 2028.6707612778634,501.823725421879" style="stroke: rgb(200,200,200); stroke-width:4; fill: none;"/>
	<polygon points="2250.0,450.0 2321.3292387221363,501.8237254218789 2294.0838939219357,585.676274578121 2205.9161060780643,585.676274578121 2178.6707612778637,501.823725421879" style="stroke: rgb(200,200,200); stroke-width:4; fill: none;"/>
	<polygon points="2400.0,450.0 2471.3292387221363,501.8237254218789 2444.0838939219357,585.676274578121 2355.9161060780643,585.676274578121 2328.6707612778637,501.823725421879" style="stroke: rgb(200,200,200); stroke-width:4; fill: none;"/>
	<polygon points="2550.0,450.0 2621.3292387221363,501.8237254218789 2594.0838939219357,585.676274578121 2505.9161060780643,585.676274578121 2478.6707612778637,501.823725421879" style="stroke: rgb(200,200,200); stroke-width:4; fill: none;"/>
	<polygon points="75.0,600.0 146.3292387221365,651.823725421879 119.0838939219355,735.676274578121 30.916106078064523,735.676274578121 3.670761277863477,651.823725421879" style="stroke: rgb(200,200,200); stroke-width:4; fill: none;"/>
	<polygon points="225.0,600.0 296.3292387221365,651.823725421879 269.0838939219355,735.676274578121 180.91610607806453,735.676274578121 153.67076127786348,651.823725421879" style="stroke: rgb(200,200,200); stroke-width:4; fill: none;"/>
	<polygon points="375.0,600.0 446.3292387221365,651.823725421879 419.0838939219355,735.676274578121 330.9161060780645,735.676274578121 303.67076127786345,651.823725421879" style="stroke: rgb(200,200,200); stroke-width:4; fill: none;"/>
	<polygon points="525.0,600.0 596.3292387221366,651.823725421879 569.0838939219354,735.676274578121 480.9161060780645,735.676274578121 453.67076127786345,651.823725421879" style="stroke: rgb(200,200,200); stroke-width:4; fill: none;"/>
	<polygon points="675.0,600.0 746.3292387221366,651.823725421879 719.0838939219354,735.676274578121 630.9161060780646,735.676274578121 603.6707612778634,651.823725421879" style="stroke: rgb(200,200,200); stroke-width:4; fill: none;"/>
	<polygon points="825.0,600.0 896.3292387221366,651.823725421879 869.0838939219354,735.676274578121 780.9161060780646,735.676274578121 753.6707612778634,651.823725421879" style="stroke: rgb(200,200,200); stroke-width:4; fill: none;"/>
	<polygon points="975.0,600.0 1046.3292387221366,651.823725421879 1019.0838939219354,735.676274578121 930.9161060780646,735.676274578121 903.6707612778634,651.823725421879" style="stroke: rgb(200,200,200); stroke-width:4; fill: none;"/>
	<polygon points="1125.0,600.0 1196.3292387221366,651.823725421879 1169.0838939219354,735.676274578121 1080.9161060780646,735.676274578121 1053.6707612778634,651.823725421879" style="stroke: rgb(200,200,200); stroke-width:4; fill: none;"/>
	<polygon points="1275.0,600.0 1346.3292387221366,651.823725421879 1319.0838939219354,735.676274578121 1230.9161060780646,735.676274578121 1203.6707612778634,651.823725421879" style="stroke: rgb(200,200,200); stroke-width:4; fill: none;"/>
	<polygon points="1425.0,600.0 1496.3292387221366,651.823725421879 1469.0838939219354,735.676274578121 1380.9161060780646,735.676274578121 1353.6707612778634,651.823725421879" style="stroke: rgb(200,200,200); stroke-width:4; fill: none;"/>
	<polygon points="1575.0,600.0 1646.3292387221366,651.823725421879 1619.0838939219354,735.676274578121 1530.9161060780646,735.676274578121 1503.6707612778634,651.823725421879" style="stroke: rgb(200,200,200); stroke-width:4; fill: none;"/>
	<polygon points="1725.0,600.0 1796.3292387221366,651.823725421879 1769.0838939219354,735.676274578121 1680.9161060780646,735.676274578121 1653.6707612778634,651.823725421879" style="stroke: rgb(200,200,200); stroke-width:4; fill: none;"/>
	<polygon points="1875.0,600.0 1946.3292387221366,651.823725421879 1919.0838939219354,735.676274578121 1830.9161060780646,735.676274578121 1803.6707612778634,651.823725421879" style="stroke: rgb(200,200,200); stroke-width:4; fill: none;"/>
	<polygon points="2025.0,600.0 2096.3292387221363,651.823725421879 2069.0838939219357,735.676274578121 1980.9161060780646,735.676274578121 1953.6707612778634,651.823725421879" style="stroke: rgb(200,200,200); stroke-width:4; fill: none;"/>
	<polygon points="2175.0,600.0 2246.3292387221363,651.823725421879 2219.0838939219357,735.676274578121 2130.9161060780643,735.676274578121 2103.6707612778637,651.823725421879" style="stroke: rgb(200,200,200); stroke-width:4; fill: none;"/>
	<polygon points="2325.0,600.0 2396.3292387221363,651.823725421879 2369.0838939219357,735.676274578121 2280.9161060780643,735.676274578121 2253.6707612778637,651.823725421879" style="stroke: rgb(200,200,200); stroke-width:4; fill: none;"/>
	<polygon points="2475.0,600.0 2546.3292387221363,651.823725421879 2519.0838939219357,735.676274578121 2430.9161060780643,735.676274578121 2403.6707612778637,651.823725421879" style="stroke: rgb(200,200,200); stroke-width:4; fill: none;"/>
	<polygon points="150.0,750.0 221.3292387221365,801.823725421879 194.0838939219355,885.676274578121 105.91610607806453,885.676274578121 78.67076127786348,801.823725421879" style="stroke: rgb(200,200,200); stroke-width:4; fill: none;"/>
	<polygon points="300.0,750.0 371.3292387221365,801.823725421879 344.0838939219355,885.676274578121 255.91610607806453,885.676274578121 228.67076127786348,801.823725421879" style="stroke: rgb(200,200,200); stroke-width:4; fill: none;"/>
	<polygon points="450.0,750.0 521.3292387221366,801.823725421879 494.0838939219355,885.676274578121 405.9161060780645,885.676274578121 378.67076127786345,801.823725421879" style="stroke: rgb(200,200,200); stroke-width:4; fill: none;"/>
	<polygon points="600.0,750.0 671.3292387221366,801.823725421879 644.0838939219354,885.676274578121 555.9161060780646,885.676274578121 528.6707612778634,801.823725421879" style="stroke: rgb(200,200,200); stroke-width:4; fill: none;"/>
	<polygon points="750.0,750.0 821.3292387221366,801.823725421879 794.0838939219354,885.676274578121 705.9161060780646,885.676274578121 678.6707612778634,801.823725421879" style="stroke: rgb(200,200,200); stroke-width:4; fill: none;"/>
	<polygon points="900.0,750.0 971.3292387221366,801.823725421879 944.0838939219354,885.676274578121 855.9161060780646,885.676274578121 828.6707612778634,801.823725421879" style="stroke: rgb(200,200,200); stroke-width:4; fill: none;"/>
	<polygon points="1050.0,750.0 1121.3292387221366,801.823725421879 1094.0838939219354,885.676274578121 1005.9161060780646,885.676274578121 978.6707612778634,801.823725421879" style="stroke: rgb(200,200,200); stroke-width:4; fill: none;"/>
	<polygon points="1200.0,750.0 1271.3292387221366,801.823725421879 1244.0838939219354,885.676274578121 1155.9161060780646,885.676274578121 1128.6707612778634,801.823725421879" style="stroke: rgb(200,200,200); stroke-width:4; fill: none;"/>
	<polygon points="1350.0,750.0 1421.3292387221366,801.823725421879 1394.0838939219354,885.676274578121 1305.9161060780646,885.676274578121 1278.6707612778634,801.823725421879" style="stroke: rgb(200,200,200); stroke-width:4; fill: none;"/>
	<polygon points="1500.0,750.0 1571.3292387221366,801.823725421879 1544.0838939219354,885.676274578121 1455.9161060780646,885.676274578121 1428.6707612778634,801.823725421879" style="stroke: rgb(200,200,200); stroke-width:4; fill: none;"/>
	<polygon points="1650.0,750.0 1721.3292387221366,801.823725421879 1694.0838939219354,885.676274578121 1605.9161060780646,885.676274578121 1578.6707612778634,801.823725421879" style="stroke: rgb(200,200,200); stroke-width:4; fill: none;"/>
	<polygon points="1800.0,750.0 1871.3292387221366,801.823725421879 1844.0838939219354,885.676274578121 1755.9161060780646,885.676274578121 1728.6707612778634,801.823725421879" style="stroke: rgb(200,200,200); stroke-width:4; fill: none;"/>
	<polygon points="1950.0,750.0 2021.3292387221366,801.823725421879 1994.0838939219354,885.676274578121 1905.9161060780646,885.676274578121 1878.6707612778634,801.823725421879" style="stroke: rgb(200,200,200); stroke-width:4; fill: none;"/>
	<polygon points="2100.0,750.0 2171.3292387221363,801.823725421879 2144.0838939219357,885.676274578121 2055.9161060780643,885.676274578121 2028.6707612778634,801.823725421879" style="stroke: rgb(200,200,200); stroke-width:4; fill: none;"/>
	<polygon points="2250.0,750.0 2321.3292387221363,801.823725421879 2294.0838939219357,885.676274578121 2205.9161060780643,885.676274578121 2178.6707612778637,801.823725421879" style="stroke: rgb(200,200,200); stroke-width:4; fill: none;"/>
	<polygon points="2400.0,750.0 2471.3292387221363,801.823725421879 2444.0838939219357,885.676274578121 2355.9161060780643,885.676274578121 2328.6707612778637,801.823725421879" style="stroke: rgb(200,200,200); stroke-width:4; fill: none;"/>
	<polygon points="2550.0,750.0 2621.3292387221363,801.823725421879 2594.0838939219357,885.676274578121 2505.9161060780643,885.676274578121 2478.6707612778637,801.823725421879" style="stroke: rgb(200,200,200); stroke-width:4; fill: none;"/>
	<polygon points="75.0,900.0 146.3292387221365,951.823725421879 119.0838939219355,1035.6762745781211 30.916106078064523,1035.6762745781211 3.670761277863477,951.823725421879" style="stroke: rgb(200,200,200); stroke-width:4; fill: none;"/>
	<polygon points="225.0,900.0 296.3292387221365,951.823725421879 269.0838939219355,1035.6762745781211 180.91610607806453,1035.6762745781211 153.67076127786348,951.823725421879" style="stroke: rgb(200,200,200); stroke-width:4; fill: none;"/>
	<polygon points="375.0,900.0 446.3292387221365,951.823725421879 419.0838939219355,1035.6762745781211 330.9161060780645,1035.6762745781211 303.67076127786345,951.823725421879" style="stroke: rgb(200,200,200); stroke-width:4; fill: none;"/>
	<polygon points="525.0,900.0 596.3292387221366,951.823725421879 569.0838939219354,1035.6762745781211 480.9161060780645,1035.6762745781211 453.67076127786345,951.823725421879" style="stroke: rgb(200,200,200); stroke-width:4; fill: none;"/>
	<polygon points="675.0,900.0 746.3292387221366,951.823725421879 719.0838939219354,1035.6762745781211 630.9161060780646,1035.6762745781211 603.6707612778634,951.823725421879" style="stroke: rgb(200,200,200); stroke-width:4; fill: none;"/>
	<polygon points="825.0,900.0 896.3292387221366,951.823725421879 869.0838939219354,1035.6762745781211 780.9161060780646,1035.6762745781211 753.6707612778634,951.823725421879" style="stroke: rgb(200,200,200); stroke-width:4; fill: none;"/>
	<polygon points="975.0,900.0 1046.3292387221366,951.823725421879 1019.0838939219354,1035.6762745781211 930.9161060780646,1035.6762745781211 903.6707612778634,951.823725421879" style="stroke: rgb(200,200,200); stroke-width:4; fill: none;"/>
	<polygon points="1125.0,900.0 1196.3292387221366,951.823725421879 1169.0838939219354,1035.6762745781211 1080.9161060780646,1035.6762745781211 1053.6707612778634,951.823725421879" style="stroke: rgb(200,200,200); stroke-width:4; fill: none;"/>
	<polygon points="1275.0,900.0 1346.3292387221366,951.823725421879 1319.0838939219354,1035.6762745781211 1230.9161060780646,1035.6762745781211 1203.6707612778634,951.823725421879" style="stroke: rgb(200,200,200); stroke-width:4; fill: none;"/>
	<polygon points="1425.0,900.0 1496.3292387221366,951.823725421879 1469.0838939219354,1035.6762745781211 1380.9161060780646,1035.6762745781211 1353.6707612778634,951.823725421879" style="stroke: rgb(200,200,200); stroke-width:4; fill: none;"/>
	<polygon points="1575.0,900.0 1646.3292387221366,951.823725421879 1619.0838939219354,1035.6762745781211 1530.9161060780646,1035.6762745781211 1503.6707612778634,951.823725421879" style="stroke: rgb(200,200,200); stroke-width:4; fill: none;"/>
	<polygon points="1725.0,900.0 1796.3292387221366,951.823725421879 1769.0838939219354,1035.6762745781211 1680.9161060780646,1035.6762745781211 1653.6707612778634,951.823725421879" style="stroke: rgb(200,200,200); stroke-width:4; fill: none;"/>
	<polygon points="1875.0,900.0 1946.3292387221366,951.823725421879 1919.0838939219354,1035.6762745781211 1830.9161060780646,1035.6762745781211 1803.6707612778634,951.823725421879" style="stroke: rgb(200,200,200); stroke-width:4; fill: none;"/>
	<polygon points="2025.0,900.0 2096.3292387221363,951.823725421879 2069.0838939219357,1035.6762745781211 1980.9161060780646,1035.6762745781211 1953.6707612778634,951.823725421879" style="stroke: rgb(200,200,200); stroke-width:4; fill: none;"/>
	<polygon points="2175.0,900.0 2246.3292387221363,951.823725421879 2219.0838939219357,1035.6762745781211 2130.9161060780643,1035.6762745781211 2103.6707612778637,951.823725421879" style="stroke: rgb(200,200,200); stroke-width:4; fill: none;"/>
	<polygon points="2325.0,900.0 2396.3292387221363,951.823725421879 2369.0838939219357,1035.6762745781211 2280.9161060780643,1035.6762745781211 2253.6707612778637,951.823725421879" style="stroke: rgb(200,200,200); stroke-width:4; fill: none;"/>
	<polygon points="2475.0,900.0 2546.3292387221363,951.823725421879 2519.0838939219357,1035.6762745781211 2430.9161060780643,1035.6762745781211 2403.6707612778637,951.823725421879" style="stroke: rgb(200,200,200); stroke-width:4; fill: none;"/>
	<polygon points="150.0,1050.0 221.3292387221365,1101.8237254218789 194.0838939219355,1185.6762745781211 105.91610607806453,1185.6762745781211 78.67076127786348,1101.8237254218789" style="stroke: rgb(200,200,200); stroke-width:4; fill: none;"/>
	<polygon points="300.0,1050.0 371.3292387221365,1101.8237254218789 344.0838939219355,1185.6762745781211 255.91610607806453,1185.6762745781211 228.67076127786348,1101.8237254218789" style="stroke: rgb(200,200,200); stroke-width:4; fill: none;"/>
	<polygon points="450.0,1050.0 521.3292387221366,1101.8237254218789 494.0838939219355,1185.6762745781211 405.9161060780645,1185.6762745781211 378.67076127786345,1101.8237254218789" style="stroke: rgb(200,200,200); stroke-width:4; fill: none;"/>
	<polygon points="600.0,1050.0 671.3292387221366,1101.8237254218789 644.0838939219354,1185.6762745781211 555.9161060780646,1185.6762745781211 528.6707612778634,1101.8237254218789" style="stroke: rgb(200,200,200); stroke-width:4; fill: none;"/>
	<polygon points="750.0,1050.0 821.3292387221366,1101.8237254218789 794.0838939219354,1185.6762745781211 705.9161060780646,1185.6762745781211 678.6707612778634,1101.8237254218789" style="stroke: rgb(200,200,200); stroke-width:4; fill: none;"/>
	<polygon points="900.0,1050.0 971.3292387221366,1101.8237254218789 944.0838939219354,1185.6762745781211 855.9161060780646,1185.6762745781211 828.6707612778634,1101.8237254218789" style="stroke: rgb(200,200,200); stroke-width:4; fill: none;"/>
	<polygon points="1050.0,1050.0 1121.3292387221366,1101.8237254218789 1094.0838939219354,1185.6762745781211 1005.9161060780646,1185.6762745781211 978.6707612778634,1101.8237254218789" style="stroke: rgb(200,200,200); stroke-width:4; fill: none;"/>
	<polygon points="1200.0,1050.0 1271.3292387221366,1101.8237254218789 1244.0838939219354,1185.6762745781211 1155.9161060780646,1185.6762745781211 1128.6707612778634,1101.8237254218789" style="stroke: rgb(200,200,200); stroke-width:4; fill: none;"/>
	<polygon points="1350.0,1050.0 1421.3292387221366,1101.8237254218789 1394.0838939219354,1185.6762745781211 1305.9161060780646,1185.6762745781211 1278.6707612778634,1101.8237254218789" style="stroke: rgb(200,200,200); stroke-width:4; fill: none;"/>
	<polygon points="1500.0,1050.0 1571.3292387221366,1101.8237254218789 1544.0838939219354,1185.6762745781211 1455.9161060780646,1185.6762745781211 1428.6707612778634,1101.8237254218789" style="stroke: rgb(200,200,200); stroke-width:4; fill: none;"/>
	<polygon points="1650.0,1050.0 1721.3292387221366,1101.8237254218789 1694.0838939219354,1185.6762745781211 1605.9161060780646,1185.6762745781211 1578.6707612778634,1101.8237254218789" style="stroke: rgb(200,200,200); stroke-width:4; fill: none;"/>
	<polygon points="1800.0,1050.0 1871.3292387221366,1101.8237254218789 1844.0838939219354,1185.6762745781211 1755.9161060780646,1185.6762745781211 1728.6707612778634,1101.8237254218789" style="stroke: rgb(200,200,200); stroke-width:4; fill: none;"/>
	<polygon points="1950.0,1050.0 2021.3292387221366,1101.8237254218789 1994.0838939219354,1185.6762745781211 1905.9161060780646,1185.6762745781211 1878.6707612778634,1101.8237254218789" style="stroke: rgb(200,200,200); stroke-width:4; fill: none;"/>
	<polygon points="2100.0,1050.0 2171.3292387221363,1101.8237254218789 2144.0838939219357,1185.6762745781211 2055.9161060780643,1185.6762745781211 2028.6707612778634,1101.8237254218789" style="stroke: rgb(200,200,200); stroke-width:4; fill: none;"/>
	<polygon points="2250.0,1050.0 2321.3292387221363,1101.8237254218789 2294.0838939219357,1185.6762745781211 2205.9161060780643,1185.6762745781211 2178.6707612778637,1101.8237254218789" style="stroke: rgb(200,200,200); stroke-width:4; fill: none;"/>
	<polygon points="2400.0,1050.0 2471.3292387221363,1101.8237254218789 2444.0838939219357,1185.6762745781211 2355.9161060780643,1185.6762745781211 2328.6707612778637,1101.8237254218789" style="stroke: rgb(200,200,200); stroke-width:4; fill: none;"/>
	<polygon points="2550.0,1050.0 2621.3292387221363,1101.8237254218789 2594.0838939219357,1185.6762745781211 2505.9161060780643,1185.6762745781211 2478.6707612778637,1101.8237254218789" style="stroke: rgb(200,200,200); stroke-width:4; fill: none;"/>
	<polygon points="75.0,1200.0 146.3292387221365,1251.8237254218789 119.0838939219355,1335.6762745781211 30.916106078064523,1335.6762745781211 3.670761277863477,1251.8237254218789" style="stroke: rgb(200,200,200); stroke-width:4; fill: none;"/>
	<polygon points="225.0,1200.0 296.3292387221365,1251.8237254218789 269.0838939219355,1335.6762745781211 180.91610607806453,1335.6762745781211 153.67076127786348,1251.8237254218789" style="stroke: rgb(200,200,200); stroke-width:4; fill: none;"/>
	<polygon points="375.0,1200.0 446.3292387221365,1251.8237254218789 419.0838939219355,1335.6762745781211 330.9161060780645,1335.6762745781211 303.67076127786345,1251.8237254218789" style="stroke: rgb(200,200,200); stroke-width:4; fill: none;"/>
	<polygon points="525.0,1200.0 596.3292387221366,1251.8237254218789 569.0838939219354,1335.6762745781211 480.9161060780645,1335.6762745781211 453.67076127786345,1251.8237254218789" style="stroke: rgb(200,200,200); stroke-width:4; fill: none;"/>
	<polygon points="675.0,1200.0 746.3292387221366,1251.8237254218789 719.0838939219354,1335.6762745781211 630.9161060780646,1335.6762745781211 603.6707612778634,1251.8237254218789" style="stroke: rgb(200,200,200); stroke-width:4; fill: none;"/>
	<polygon points="825.0,1200.0 896.3292387221366,1251.8237254218789 869.0838939219354,1335.6762745781211 780.9161060780646,1335.6762745781211 753.6707612778634,1251.8237254218789" style="stroke: rgb(200,200,200); stroke-width:4; fill: none;"/>
	<polygon points="975.0,1200.0 1046.3292387221366,1251.8237254218789 1019.0838939219354,1335.6762745781211 930.9161060780646,1335.6762745781211 903.6707612778634,1251.8237254218789" style="stroke: rgb(200,200,200); stroke-width:4; fill: none;"/>
	<polygon points="1125.0,1200.0 1196.3292387221366,1251.8237254218789 1169.0838939219354,1335.6762745781211 1080.9161060780646,1335.6762745781211 1053.6707612778634,1251.8237254218789" style="stroke: rgb(200,200,200); stroke-width:4; fill: none;"/>
	<polygon points="1275.0,1200.0 1346.3292387221366,1251.8237254218789 1319.0838939219354,1335.6762745781211 1230.9161060780646,1335.6762745781211 1203.6707612778634,1251.8237254218789" style="stroke: rgb(200,200,200); stroke-width:4; fill: none;"/>
	<polygon points="1425.0,1200.0 1496.3292387221366,1251.8237254218789 1469.0838939219354,1335.6762745781211 1380.9161060780646,1335.6762745781211 1353.6707612778634,1251.8237254218789" style="stroke: rgb(200,200,200); stroke-width:4; fill: none;"/>
	<polygon points="1575.0,1200.0 1646.3292387221366,1251.8237254218789 1619.0838939219354,1335.6762745781211 1530.9161060780646,1335.6762745781211 1503.6707612778634,1251.8237254218789" style="stroke: rgb(200,200,200); stroke-width:4; fill: none;"/>
	<polygon points="1725.0,1200.0 1796.3292387221366,1251.8237254218789 1769.0838939219354,1335.6762745781211 1680.9161060780646,1335.6762745781211 1653.6707612778634,1251.8237254218789" style="stroke: rgb(200,200,200); stroke-width:4; fill: none;"/>
	<polygon points="1875.0,1200.0 1946.3292387221366,1251.8237254218789 1919.0838939219354,1335.6762745781211 1830.9161060780646,1335.6762745781211 1803.6707612778634,1251.8237254218789" style="stroke: rgb(200,200,200); stroke-width:4; fill: none;"/>
	<polygon points="2025.0,1200.0 2096.3292387221363,1251.8237254218789 2069.0838939219357,1335.6762745781211 1980.9161060780646,1335.6762745781211 1953.6707612778634,1251.8237254218789" style="stroke: rgb(200,200,200); stroke-width:4; fill: none;"/>
	<polygon points="2175.0,1200.0 2246.3292387221363,1251.8237254218789 2219.0838939219357,1335.6762745781211 2130.9161060780643,1335.6762745781211 2103.6707612778637,1251.8237254218789" style="stroke: rgb(200,200,200); stroke-width:4; fill: none;"/>
	<polygon points="2325.0,1200.0 2396.3292387221363,1251.8237254218789 2369.0838939219357,1335.6762745781211 2280.9161060780643,1335.6762745781211 2253.6707612778637,1251.8237254218789" style="stroke: rgb(200,200,200); stroke-width:4; fill: none;"/>
	<polygon points="2475.0,1200.0 2546.3292387221363,1251.8237254218789 2519.0838939219357,1335.6762745781211 2430.9161060780643,1335.6762745781211 2403.6707612778637,1251.8237254218789" style="stroke: rgb(200,200,200); stroke-width:4; fill: none;"/>
	<polygon points="150.0,1350.0 221.3292387221365,1401.8237254218789 194.0838939219355,1485.6762745781211 105.91610607806453,1485.6762745781211 78.67076127786348,1401.8237254218789" style="stroke: rgb(200,200,200); stroke-width:4; fill: none;"/>
	<polygon points="300.0,1350.0 371.3292387221365,1401.8237254218789 344.0838939219355,1485.6762745781211 255.91610607806453,1485.6762745781211 228.67076127786348,1401.8237254218789" style="stroke: rgb(200,200,200); stroke-width:4; fill: none;"/>
	<polygon points="450.0,1350.0 521.3292387221366,1401.8237254218789 494.0838939219355,1485.6762745781211 405.9161060780645,1485.6762745781211 378.67076127786345,1401.8237254218789" style="stroke: rgb(200,200,200); stroke-width:4; fill: none;"/>
	<polygon points="600.0,1350.0 671.3292387221366,1401.8237254218789 644.0838939219354,1485.6762745781211 555.9161060780646,1485.6762745781211 528.6707612778634,1401.8237254218789" style="stroke: rgb(200,200,200); stroke-width:4; fill: none;"/>
	<polygon points="750.0,1350.0 821.3292387221366,1401.8237254218789 794.0838939219354,1485.6762745781211 705.9161060780646,1485.6762745781211 678.6707612778634,1401.8237254218789" style="stroke: rgb(200,200,200); stroke-width:4; fill: none;"/>
	<polygon points="900.0,1350.0 971.3292387221366,1401.8237254218789 944.0838939219354,1485.6762745781211 855.9161060780646,1485.6762745781211 828.6707612778634,1401.8237254218789" style="stroke: rgb(200,200,200); stroke-width:4; fill: none;"/>
	<polygon points="1050.0,1350.0 1121.3292387221366,1401.8237254218789 1094.0838939219354,1485.6762745781211 1005.9161060780646,1485.6762745781211 978.6707612778634,1401.8237254218789" style="stroke: rgb(200,200,200); stroke-width:4; fill: none;"/>
	<polygon points="1200.0,1350.0 1271.3292387221366,1401.8237254218789 1244.0838939219354,1485.6762745781211 1155.9161060780646,1485.6762745781211 1128.6707612778634,1401.8237254218789" style="stroke: rgb(200,200,200); stroke-width:4; fill: none;"/>
	<polygon points="1350.0,1350.0 1421.3292387221366,1401.8237254218789 1394.0838939219354,1485.6762745781211 1305.9161060780646,1485.6762745781211 1278.6707612778634,1401.8237254218789" style="stroke: rgb(200,200,200); stroke-width:4; fill: none;"/>
	<polygon points="1500.0,1350.0 1571.3292387221366,1401.8237254218789 1544.0838939219354,1485.6762745781211 1455.9161060780646,1485.6762745781211 1428.6707612778634,1401.8237254218789" style="stroke: rgb(200,200,200); stroke-width:4; fill: none;"/>
	<polygon points="1650.0,1350.0 1721.3292387221366,1401.8237254218789 1694.0838939219354,1485.6762745781211 1605.9161060780646,1485.6762745781211 1578.6707612778634,1401.8237254218789" style="stroke: rgb(200,200,200); stroke-width:4; fill: none;"/>
	<polygon points="1800.0,1350.0 1871.3292387221366,1401.8237254218789 1844.0838939219354,1485.6762745781211 1755.9161060780646,1485.6762745781211 1728.6707612778634,1401.8237254218789" style="stroke: rgb(200,200,200); stroke-width:4; fill: none;"/>
	<polygon points="1950.0,1350.0 2021.3292387221366,1401.8237254218789 1994.0838939219354,1485.6762745781211 1905.9161060780646,1485.6762745781211 1878.6707612778634,1401.8237254218789" style="stroke: rgb(200,200,200); stroke-width:4; fill: none;"/>
	<polygon points="2100.0,1350.0 2171.3292387221363,1401.8237254218789 2144.0838939219357,1485.6762745781211 2055.9161060780643,1485.6762745781211 2028.6707612778634,1401.8237254218789" style="stroke: rgb(200,200,200); stroke-width:4; fill: none;"/>
	<polygon points="2250.0,1350.0 2321.3292387221363,1401.8237254218789 2294.0838939219357,1485.6762745781211 2205.9161060780643,1485.6762745781211 2178.6707612778637,1401.8237254218789" style="stroke: rgb(200,200,200); stroke-width:4; fill: none;"/>
	<polygon points="2400.0,1350.0 2471.3292387221363,1401.8237254218789 2444.0838939219357,1485.6762745781211 2355.9161060780643,1485.6762745781211 2328.6707612778637,1401.8237254218789" style="stroke: rgb(200,200,200); stroke-width:4; fill: none;"/>
	<polygon points="2550.0,1350.0 2621.3292387221363,1401.8237254218789 2594.0838939219357,1485.6762745781211 2505.9161060780643,1485.6762745781211 2478.6707612778637,1401.8237254218789" style="stroke: rgb(200,200,200); stroke-width:4; fill: none;"/>
	<polygon points="75.0,1500.0 146.3292387221365,1551.8237254218789 119.0838939219355,1635.6762745781211 30.916106078064523,1635.6762745781211 3.670761277863477,1551.8237254218789" style="stroke: rgb(200,200,200); stroke-width:4; fill: none;"/>
	<polygon points="225.0,1500.0 296.3292387221365,1551.8237254218789 269.0838939219355,1635.6762745781211 180.91610607806453,1635.6762745781211 153.67076127786348,1551.8237254218789" style="stroke: rgb(200,200,200); stroke-width:4; fill: none;"/>
	<polygon points="375.0,1500.0 446.3292387221365,1551.8237254218789 419.0838939219355,1635.6762745781211 330.9161060780645,1635.6762745781211 303.67076127786345,1551.8237254218789" style="stroke: rgb(200,200,200); stroke-width:4; fill: none;"/>
	<polygon points="525.0,1500.0 596.3292387221366,1551.8237254218789 569.0838939219354,1635.6762745781211 480.9161060780645,1635.6762745781211 453.67076127786345,1551.8237254218789" style="stroke: rgb(200,200,200); stroke-width:4; fill: none;"/>
	<polygon points="675.0,1500.0 746.3292387221366,1551.8237254218789 719.0838939219354,1635.6762745781211 630.9161060780646,1635.6762745781211 603.6707612778634,1551.8237254218789" style="stroke: rgb(200,200,200); stroke-width:4; fill: none;"/>
	<polygon points="825.0,1500.0 896.3292387221366,1551.8237254218789 869.0838939219354,1635.6762745781211 780.9161060780646,1635.6762745781211 753.6707612778634,1551.8237254218789" style="stroke: rgb(200,200,200); stroke-width:4; fill: none;"/>
	<polygon points="975.0,1500.0 1046.3292387221366,1551.8237254218789 1019.0838939219354,1635.6762745781211 930.9161060780646,1635.6762745781211 903.6707612778634,1551.8237254218789" style="stroke: rgb(200,200,200); stroke-width:4; fill: none;"/>
	<polygon points="1125.0,1500.0 1196.3292387221366,1551.8237254218789 1169.0838939219354,1635.6762745781211 1080.9161060780646,1635.6762745781211 1053.6707612778634,1551.8237254218789" style="stroke: rgb(200,200,200); stroke-width:4; fill: none;"/>
	<polygon points="1275.0,1500.0 1346.3292387221366,1551.8237254218789 1319.0838939219354,1635.6762745781211 1230.9161060780646,1635.6762745781211 1203.6707612778634,1551.8237254218789" style="stroke: rgb(200,200,200); stroke-width:4; fill: none;"/>
	<polygon points="1425.0,1500.0 1496.3292387221366,1551.8237254218789 1469.0838939219354,1635.6762745781211 1380.9161060780646,1635.6762745781211 1353.6707612778634,1551.8237254218789" style="stroke: rgb(200,200,200); stroke-width:4; fill: none;"/>
	<polygon points="1575.0,1500.0 1646.3292387221366,1551.8237254218789 1619.0838939219354,1635.6762745781211 1530.9161060780646,1635.6762745781211 1503.6707612778634,1551.8237254218789" style="stroke: rgb(200,200,200); stroke-width:4; fill: none;"/>
	<polygon points="1725.0,1500.0 1796.3292387221366,1551.8237254218789 1769.0838939219354,1635.6762745781211 1680.9161060780646,1635.6762745781211 1653.6707612778634,1551.8237254218789" style="stroke: rgb(200,200,200); stroke-width:4; fill: none;"/>
	<polygon points="1875.0,1500.0 1946.3292387221366,1551.8237254218789 1919.0838939219354,1635.6762745781211 1830.9161060780646,1635.6762745781211 1803.6707612778634,1551.8237254218789" style="stroke: rgb(200,200,200); stroke-width:4; fill: none;"/>
	<polygon points="2025.0,1500.0 2096.3292387221363,1551.8237254218789 2069.0838939219357,1635.6762745781211 1980.9161060780646,1635.6762745781211 1953.6707612778634,1551.8237254218789" style="stroke: rgb(200,200,200); stroke-width:4; fill: none;"/>
	<polygon points="2175.0,1500.0 2246.3292387221363,1551.8237254218789 2219.0838939219357,1635.6762745781211 2130.9161060780643,1635.6762745781211 2103.6707612778637,1551.8237254218789" style="stroke: rgb(200,200,200); stroke-width:4; fill: none;"/>
	<polygon points="2325.0,1500.0 2396.3292387221363,1551.8237254218789 2369.0838939219357,1635.6762745781211 2280.9161060780643,1635.6762745781211 2253.6707612778637,1551.8237254218789" style="stroke: rgb(200,200,200); stroke-width:4; fill: none;"/>
	<polygon points="2475.0,1500.0 2546.3292387221363,1551.8237254218789 2519.0838939219357,1635.6762745781211 2430.9161060780643,1635.6762745781211 2403.6707612778637,1551.8237254218789" style="stroke: rgb(200,200,200); stroke-width:4; fill: none;"/>
	<polygon points="150.0,1650.0 221.3292387221365,1701.8237254218789 194.0838939219355,1785.6762745781211 105.91610607806453,1785.6762745781211 78.67076127786348,1701.8237254218789" style="stroke: rgb(200,200,200); stroke-width:4; fill: none;"/>
	<polygon points="300.0,1650.0 371.3292387221365,1701.8237254218789 344.0838939219355,1785.6762745781211 255.91610607806453,1785.6762745781211 228.67076127786348,1701.8237254218789" style="stroke: rgb(200,200,200); stroke-width:4; fill: none;"/>
	<polygon points="450.0,1650.0 521.3292387221366,1701.8237254218789 494.0838939219355,1785.6762745781211 405.9161060780645,1785.6762745781211 378.67076127786345,1701.8237254218789" style="stroke: rgb(200,200,200); stroke-width:4; fill: none;"/>
	<polygon points="600.0,1650.0 671.3292387221366,1701.8237254218789 644.0838939219354,1785.6762745781211 555.9161060780646,1785.6762745781211 528.6707612778634,1701.8237254218789" style="stroke: rgb(200,200,200); stroke-width:4; fill: none;"/>
	<polygon points="750.0,1650.0 821.3292387221366,1701.8237254218789 794.0838939219354,1785.6762745781211 705.9161060780646,1785.6762745781211 678.6707612778634,1701.8237254218789" style="stroke: rgb(200,200,200); stroke-width:4; fill: none;"/>
	<polygon points="900.0,1650.0 971.3292387221366,1701.8237254218789 944.0838939219354,1785.6762745781211 855.9161060780646,1785.6762745781211 828.6707612778634,1701.8237254218789" style="stroke: rgb(200,200,200); stroke-width:4; fill: none;"/>
	<polygon points="1050.0,1650.0 1121.3292387221366,1701.8237254218789 1094.0838939219354,1785.6762745781211 1005.9161060780646,1785.6762745781211 978.6707612778634,1701.8237254218789" style="stroke: rgb(200,200,200); stroke-width:4; fill: none;"/>
	<polygon points="1200.0,1650.0 1271.3292387221366,1701.8237254218789 1244.0838939219354,1785.6762745781211 1155.9161060780646,1785.6762745781211 1128.6707612778634,1701.8237254218789" style="stroke: rgb(200,200,200); stroke-width:4; fill: none;"/>
	<polygon points="1350.0,1650.0 1421.3292387221366,1701.8237254218789 1394.0838939219354,1785.6762745781211 1305.9161060780646,1785.6762745781211 1278.6707612778634,1701.8237254218789" style="stroke: rgb(200,200,200); stroke-width:4; fill: none;"/>
	<polygon points="1500.0,1650.0 1571.3292387221366,1701.8237254218789 1544.0838939219354,1785.6762745781211 1455.9161060780646,1785.6762745781211 1428.6707612778634,1701.8237254218789" style="stroke: rgb(200,200,200); stroke-width:4; fill: none;"/>
	<polygon points="1650.0,1650.0 1721.3292387221366,1701.8237254218789 1694.0838939219354,1785.6762745781211 1605.9161060780646,1785.6762745781211 1578.6707612778634,1701.8237254218789" style="stroke: rgb(200,200,200); stroke-width:4; fill: none;"/>
	<polygon points="1800.0,1650.0 1871.3292387221366,1701.8237254218789 1844.0838939219354,1785.6762745781211 1755.9161060780646,1785.6762745781211 1728.6707612778634,1701.8237254218789" style="stroke: rgb(200,200,200); stroke-width:4; fill: none;"/>
	<polygon points="1950.0,1650.0 2021.3292387221366,1701.8237254218789 1994.0838939219354,1785.6762745781211 1905.9161060780646,1785.6762745781211 1878.6707612778634,1701.8237254218789" style="stroke: rgb(200,200,200); stroke-width:4; fill: none;"/>
	<polygon points="2100.0,1650.0 2171.3292387221363,1701.8237254218789 2144.0838939219357,1785.6762745781211 2055.9161060780643,1785.6762745781211 2028.6707612778634,1701.8237254218789" style="stroke: rgb(200,200,200); stroke-width:4; fill: none;"/>
	<polygon points="2250.0,1650.0 2321.3292387221363,1701.8237254218789 2294.0838939219357,1785.6762745781211 2205.9161060780643,1785.6762745781211 2178.6707612778637,1701.8237254218789" style="stroke: rgb(200,200,200); stroke-width:4; fill: none;"/>
	<polygon points="2400.0,1650.0 2471.3292387221363,1701.8237254218789 2444.0838939219357,1785.6762745781211 2355.9161060780643,1785.6762745781211 2328.6707612778637,1701.8237254218789" style="stroke: rgb(200,200,200); stroke-width:4; fill: none;"/>
	<polygon points="2550.0,1650.0 2621.3292387221363,1701.8237254218789 2594.0838939219357,1785.6762745781211 2505.9161060780643,1785.6762745781211 2478.6707612778637,1701.8237254218789" style="stroke: rgb(200,200,200); stroke-width:4; fill: none;"/>
	<polygon points="75.0,1800.0 146.3292387221365,1851.8237254218789 119.0838939219355,1935.6762745781211 30.916106078064523,1935.6762745781211 3.670761277863477,1851.8237254218789" style="stroke: rgb(200,200,200); stroke-width:4; fill: none;"/>
	<polygon points="225.0,1800.0 296.3292387221365,1851.8237254218789 269.0838939219355,1935.6762745781211 180.91610607806453,1935.6762745781211 153.67076127786348,1851.8237254218789" style="stroke: rgb(200,200,200); stroke-width:4; fill: none;"/>
	<polygon points="375.0,1800.0 446.3292387221365,1851.8237254218789 419.0838939219355,1935.6762745781211 330.9161060780645,1935.6762745781211 303.67076127786345,1851.8237254218789" style="stroke: rgb(200,200,200); stroke-width:4; fill: none;"/>
	<polygon points="525.0,1800.0 596.3292387221366,1851.8237254218789 569.0838939219354,1935.6762745781211 480.9161060780645,1935.6762745781211 453.67076127786345,1851.8237254218789" style="stroke: rgb(200,200,200); stroke-width:4; fill: none;"/>
	<polygon points="675.0,1800.0 746.3292387221366,1851.8237254218789 719.0838939219354,1935.6762745781211 630.9161060780646,1935.6762745781211 603.6707612778634,1851.8237254218789" style="stroke: rgb(200,200,200); stroke-width:4; fill: none;"/>
	<polygon points="825.0,1800.0 896.3292387221366,1851.8237254218789 869.0838939219354,1935.6762745781211 780.9161060780646,1935.6762745781211 753.6707612778634,1851.8237254218789" style="stroke: rgb(200,200,200); stroke-width:4; fill: none;"/>
	<polygon points="975.0,1800.0 1046.3292387221366,1851.8237254218789 1019.0838939219354,1935.6762745781211 930.9161060780646,1935.6762745781211 903.6707612778634,1851.8237254218789" style="stroke: rgb(200,200,200); stroke-width:4; fill: none;"/>
	<polygon points="1125.0,1800.0 1196.3292387221366,1851.8237254218789 1169.0838939219354,1935.6762745781211 1080.9161060780646,1935.6762745781211 1053.6707612778634,1851.8237254218789" style="stroke: rgb(200,200,200); stroke-width:4; fill: none;"/>
	<polygon points="1275.0,1800.0 1346.3292387221366,1851.8237254218789 1319.0838939219354,1935.6762745781211 1230.9161060780646,1935.6762745781211 1203.6707612778634,1851.8237254218789" style="stroke: rgb(200,200,200); stroke-width:4; fill: none;"/>
	<polygon points="1425.0,1800.0 1496.3292387221366,1851.8237254218789 1469.0838939219354,1935.6762745781211 1380.9161060780646,1935.6762745781211 1353.6707612778634,1851.8237254218789" style="stroke: rgb(200,200,200); stroke-width:4; fill: none;"/>
	<polygon points="1575.0,1800.0 1646.3292387221366,1851.8237254218789 1619.0838939219354,1935.6762745781211 1530.9161060780646,1935.6762745781211 1503.6707612778634,1851.8237254218789" style="stroke: rgb(200,200,200); stroke-width:4; fill: none;"/>
	<polygon points="1725.0,1800.0 1796.3292387221366,1851.8237254218789 1769.0838939219354,1935.6762745781211 1680.9161060780646,1935.6762745781211 1653.6707612778634,1851.8237254218789" style="stroke: rgb(200,200,200); stroke-width:4; fill: none;"/>
	<polygon points="1875.0,1800.0 1946.3292387221366,1851.8237254218789 1919.0838939219354,1935.6762745781211 1830.9161060780646,1935.6762745781211 1803.6707612778634,1851.8237254218789" style="stroke: rgb(200,200,200); stroke-width:4; fill: none;"/>
	<polygon points="2025.0,1800.0 2096.3292387221363,1851.8237254218789 2069.0838939219357,1935.6762745781211 1980.9161060780646,1935.6762745781211 1953.6707612778634,1851.8237254218789" style="stroke: rgb(200,200,200); stroke-width:4; fill: none;"/>
	<polygon points="2175.0,1800.0 2246.3292387221363,1851.8237254218789 2219.0838939219357,1935.6762745781211 2130.9161060780643,1935.6762745781211 2103.6707612778637,1851.8237254218789" style="stroke: rgb(200,200,200); stroke-width:4; fill: none;"/>
	<polygon points="2325.0,1800.0 2396.3292387221363,1851.8237254218789 2369.0838939219357,1935.6762745781211 2280.9161060780643,1935.6762745781211 2253.6707612778637,1851.8237254218789" style="stroke: rgb(200,200,200); stroke-width:4; fill: none;"/>
	<polygon points="2475.0,1800.0 2546.3292387221363,1851.8237254218789 2519.0838939219357,1935.6762745781211 2430.9161060780643,1935.6762745781211 2403.6707612778637,1851.8237254218789" style="stroke: rgb(200,200,200); stroke-width:4; fill: none;"/>
	<polygon points="150.0,1950.0 221.3292387221365,2001.8237254218789 194.0838939219355,2085.676274578121 105.91610607806453,2085.676274578121 78.67076127786348,2001.8237254218789" style="stroke: rgb(200,200,200); stroke-width:4; fill: none;"/>
	<polygon points="300.0,1950.0 371.3292387221365,2001.8237254218789 344.0838939219355,2085.676274578121 255.91610607806453,2085.676274578121 228.67076127786348,2001.8237254218789" style="stroke: rgb(200,200,200); stroke-width:4; fill: none;"/>
	<polygon points="450.0,1950.0 521.3292387221366,2001.8237254218789 494.0838939219355,2085.676274578121 405.9161060780645,2085.676274578121 378.67076127786345,2001.8237254218789" style="stroke: rgb(200,200,200); stroke-width:4; fill: none;"/>
	<polygon points="600.0,1950.0 671.3292387221366,2001.8237254218789 644.0838939219354,2085.676274578121 555.9161060780646,2085.676274578121 528.6707612778634,2001.8237254218789" style="stroke: rgb(200,200,200); stroke-width:4; fill: none;"/>
	<polygon points="750.0,1950.0 821.3292387221366,2001.8237254218789 794.0838939219354,2085.676274578121 705.9161060780646,2085.676274578121 678.6707612778634,2001.8237254218789" style="stroke: rgb(200,200,200); stroke-width:4; fill: none;"/>
	<polygon points="900.0,1950.0 971.3292387221366,2001.8237254218789 944.0838939219354,2085.676274578121 855.9161060780646,2085.676274578121 828.6707612778634,2001.8237254218789" style="stroke: rgb(200,200,200); stroke-width:4; fill: none;"/>
	<polygon points="1050.0,1950.0 1121.3292387221366,2001.8237254218789 1094.0838939219354,2085.676274578121 1005.9161060780646,2085.676274578121 978.6707612778634,2001.8237254218789" style="stroke: rgb(200,200,200); stroke-width:4; fill: none;"/>
	<polygon points="1200.0,1950.0 1271.3292387221366,2001.8237254218789 1244.0838939219354,2085.676274578121 1155.9161060780646,2085.676274578121 1128.6707612778634,2001.8237254218789" style="stroke: rgb(200,200,200); stroke-width:4; fill: none;"/>
	<polygon points="1350.0,1950.0 1421.3292387221366,2001.8237254218789 1394.0838939219354,2085.676274578121 1305.9161060780646,2085.676274578121 1278.6707612778634,2001.8237254218789" style="stroke: rgb(200,200,200); stroke-width:4; fill: none;"/>
	<polygon points="1500.0,1950.0 1571.3292387221366,2001.8237254218789 1544.0838939219354,2085.676274578121 1455.9161060780646,2085.676274578121 1428.6707612778634,2001.8237254218789" style="stroke: rgb(200,200,200); stroke-width:4; fill: none;"/>
	<polygon points="1650.0,1950.0 1721.3292387221366,2001.8237254218789 1694.0838939219354,2085.676274578121 1605.9161060780646,2085.676274578121 1578.6707612778634,2001.8237254218789" style="stroke: rgb(200,200,200); stroke-width:4; fill: none;"/>
	<polygon points="1800.0,1950.0 1871.3292387221366,2001.8237254218789 1844.0838939219354,2085.676274578121 1755.9161060780646,2085.676274578121 1728.6707612778634,2001.8237254218789" style="stroke: rgb(200,200,200); stroke-width:4; fill: none;"/>
	<polygon points="1950.0,1950.0 2021.3292387221366,2001.8237254218789 1994.0838939219354,2085.676274578121 1905.9161060780646,2085.676274578121 1878.6707612778634,2001.8237254218789" style="stroke: rgb(200,200,200); stroke-width:4; fill: none;"/>
	<polygon points="2100.0,1950.0 2171.3292387221363,2001.8237254218789 2144.0838939219357,2085.676274578121 2055.9161060780643,2085.676274578121 2028.6707612778634,2001.8237254218789" style="stroke: rgb(200,200,200); stroke-width:4; fill: none;"/>
	<polygon points="2250.0,1950.0 2321.3292387221363,2001.8237254218789 2294.0838939219357,2085.676274578121 2205.9161060780643,2085.676274578121 2178.6707612778637,2001.8237254218789" style="stroke: rgb(200,200,200); stroke-width:4; fill: none;"/>
	<polygon points="2400.0,1950.0 2471.3292387221363,2001.8237254218789 2444.0838939219357,2085.676274578121 2355.9161060780643,2085.676274578121 2328.6707612778637,2001.8237254218789" style="stroke: rgb(200,200,200); stroke-width:4; fill: none;"/>
	<polygon points="2550.0,1950.0 2621.3292387221363,2001.8237254218789 2594.0838939219357,2085.676274578121 2505.9161060780643,2085.676274578121 2478.6707612778637,2001.8237254218789" style="stroke: rgb(200,200,200); stroke-width:4; fill: none;"/>
	<polygon points="75.0,2100.0 146.3292387221365,2151.823725421879 119.0838939219355,2235.676274578121 30.916106078064523,2235.676274578121 3.670761277863477,2151.823725421879" style="stroke: rgb(200,200,200); stroke-width:4; fill: none;"/>
	<polygon points="225.0,2100.0 296.3292387221365,2151.823725421879 269.0838939219355,2235.676274578121 180.91610607806453,2235.676274578121 153.67076127786348,2151.823725421879" style="stroke: rgb(200,200,200); stroke-width:4; fill: none;"/>
	<polygon points="375.0,2100.0 446.3292387221365,2151.823725421879 419.0838939219355,2235.676274578121 330.9161060780645,2235.676274578121 303.67076127786345,2151.823725421879" style="stroke: rgb(200,200,200); stroke-width:4; fill: none;"/>
	<polygon points="525.0,2100.0 596.3292387221366,2151.823725421879 569.0838939219354,2235.676274578121 480.9161060780645,2235.676274578121 453.67076127786345,2151.823725421879" style="stroke: rgb(200,200,200); stroke-width:4; fill: none;"/>
	<polygon points="675.0,2100.0 746.3292387221366,2151.823725421879 719.0838939219354,2235.676274578121 630.9161060780646,2235.676274578121 603.6707612778634,2151.823725421879" style="stroke: rgb(200,200,200); stroke-width:4; fill: none;"/>
	<polygon points="825.0,2100.0 896.3292387221366,2151.823725421879 869.0838939219354,2235.676274578121 780.9161060780646,2235.676274578121 753.6707612778634,2151.823725421879" style="stroke: rgb(200,200,200); stroke-width:4; fill: none;"/>
	<polygon points="975.0,2100.0 1046.3292387221366,2151.823725421879 1019.0838939219354,2235.676274578121 930.9161060780646,2235.676274578121 903.6707612778634,2151.823725421879" style="stroke: rgb(200,200,200); stroke-width:4; fill: none;"/>
	<polygon points="1125.0,2100.0 1196.3292387221366,2151.823725421879 1169.0838939219354,2235.676274578121 1080.9161060780646,2235.676274578121 1053.6707612778634,2151.823725421879" style="stroke: rgb(200,200,200); stroke-width:4; fill: none;"/>
	<polygon points="1275.0,2100.0 1346.3292387221366,2151.823725421879 1319.0838939219354,2235.676274578121 1230.9161060780646,2235.676274578121 1203.6707612778634,2151.823725421879" style="stroke: rgb(200,200,200); stroke-width:4; fill: none;"/>
	<polygon points="1425.0,2100.0 1496.3292387221366,2151.823725421879 1469.0838939219354,2235.676274578121 1380.9161060780646,2235.676274578121 1353.6707612778634,2151.823725421879" style="stroke: rgb(200,200,200); stroke-width:4; fill: none;"/>
	<polygon points="1575.0,2100.0 1646.3292387221366,2151.823725421879 1619.0838939219354,2235.676274578121 1530.9161060780646,2235.676274578121 1503.6707612778634,2151.823725421879" style="stroke: rgb(200,200,200); stroke-width:4; fill: none;"/>
	<polygon points="1725.0,2100.0 1796.3292387221366,2151.823725421879 1769.0838939219354,2235.676274578121 1680.9161060780646,2235.676274578121 1653.6707612778634,2151.823725421879" style="stroke: rgb(200,200,200); stroke-width:4; fill: none;"/>
	<polygon points="1875.0,2100.0 1946.3292387221366,2151.823725421879 1919.0838939219354,2235.676274578121 1830.9161060780646,2235.676274578121 1803.6707612778634,2151.823725421879" style="stroke: rgb(200,200,200); stroke-width:4; fill: none;"/>
	<polygon points="2025.0,2100.0 2096.3292387221363,2151.823725421879 2069.0838939219357,2235.676274578121 1980.9161060780646,2235.676274578121 1953.6707612778634,2151.823725421879" style="stroke: rgb(200,200,200); stroke-width:4; fill: none;"/>
	<polygon points="2175.0,2100.0 2246.3292387221363,2151.823725421879 2219.0838939219357,2235.676274578121 2130.9161060780643,2235.676274578121 2103.6707612778637,2151.823725421879" style="stroke: rgb(200,200,200); stroke-width:4; fill: none;"/>
	<polygon points="2325.0,2100.0 2396.3292387221363,2151.823725421879 2369.0838939219357,2235.676274578121 2280.9161060780643,2235.676274578121 2253.6707612778637,2151.823725421879" style="stroke: rgb(200,200,200); stroke-width:4; fill: none;"/>
	<polygon points="2475.0,2100.0 2546.3292387221363,2151.823725421879 2519.0838939219357,2235.676274578121 2430.9161060780643,2235.676274578121 2403.6707612778637,2151.823725421879" style="stroke: rgb(200,200,200); stroke-width:4; fill: none;"/>
	<polygon points="150.0,2250.0 221.3292387221365,2301.823725421879 194.0838939219355,2385.676274578121 105.91610607806453,2385.676274578121 78.67076127786348,2301.823725421879" style="stroke: rgb(200,200,200); stroke-width:4; fill: none;"/>
	<polygon points="300.0,2250.0 371.3292387221365,2301.823725421879 344.0838939219355,2385.676274578121 255.91610607806453,2385.676274578121 228.67076127786348,2301.823725421879" style="stroke: rgb(200,200,200); stroke-width:4; fill: none;"/>
	<polygon points="450.0,2250.0 521.3292387221366,2301.823725421879 494.0838939219355,2385.676274578121 405.9161060780645,2385.676274578121 378.67076127786345,2301.823725421879" style="stroke: rgb(200,200,200); stroke-width:4; fill: none;"/>
	<polygon points="600.0,2250.0 671.3292387221366,2301.823725421879 644.0838939219354,2385.676274578121 555.9161060780646,2385.676274578121 528.6707612778634,2301.823725421879" style="stroke: rgb(200,200,200); stroke-width:4; fill: none;"/>
	<polygon points="750.0,2250.0 821.3292387221366,2301.823725421879 794.0838939219354,2385.676274578121 705.9161060780646,2385.676274578121 678.6707612778634,2301.823725421879" style="stroke: rgb(200,200,200); stroke-width:4; fill: none;"/>
	<polygon points="900.0,2250.0 971.3292387221366,2301.823725421879 944.0838939219354,2385.676274578121 855.9161060780646,2385.676274578121 828.6707612778634,2301.823725421879" style="stroke: rgb(200,200,200); stroke-width:4; fill: none;"/>
	<polygon points="1050.0,2250.0 1121.3292387221366,2301.823725421879 1094.0838939219354,2385.676274578121 1005.9161060780646,2385.676274578121 978.6707612778634,2301.823725421879" style="stroke: rgb(200,200,200); stroke-width:4; fill: none;"/>
	<polygon points="1200.0,2250.0 1271.3292387221366,2301.823725421879 1244.0838939219354,2385.676274578121 1155.9161060780646,2385.676274578121 1128.6707612778634,2301.823725421879" style="stroke: rgb(200,200,200); stroke-width:4; fill: none;"/>
	<polygon points="1350.0,2250.0 1421.3292387221366,2301.823725421879 1394.0838939219354,2385.676274578121 1305.9161060780646,2385.676274578121 1278.6707612778634,2301.823725421879" style="stroke: rgb(200,200,200); stroke-width:4; fill: none;"/>
	<polygon points="1500.0,2250.0 1571.3292387221366,2301.823725421879 1544.0838939219354,2385.676274578121 1455.9161060780646,2385.676274578121 1428.6707612778634,2301.823725421879" style="stroke: rgb(200,200,200); stroke-width:4; fill: none;"/>
	<polygon points="1650.0,2250.0 1721.3292387221366,2301.823725421879 1694.0838939219354,2385.676274578121 1605.9161060780646,2385.676274578121 1578.6707612778634,2301.823725421879" style="stroke: rgb(200,200,200); stroke-width:4; fill: none;"/>
	<polygon points="1800.0,2250.0 1871.3292387221366,2301.823725421879 1844.0838939219354,2385.676274578121 1755.9161060780646,2385.676274578121 1728.6707612778634,2301.823725421879" style="stroke: rgb(200,200,200); stroke-width:4; fill: none;"/>
	<polygon points="1950.0,2250.0 2021.3292387221366,2301.823725421879 1994.0838939219354,2385.676274578121 1905.9161060780646,2385.676274578121 1878.6707612778634,2301.823725421879" style="stroke: rgb(200,200,200); stroke-width:4; fill: none;"/>
	<polygon points="2100.0,2250.0 2171.3292387221363,2301.823725421879 2144.0838939219357,2385.676274578121 2055.9161060780643,2385.676274578121 2028.6707612778634,2301.823725421879" style="stroke: rgb(200,200,200); stroke-width:4; fill: none;"/>
	<polygon points="2250.0,2250.0 2321.3292387221363,2301.823725421879 2294.0838939219357,2385.676274578121 2205.9161060780643,2385.676274578121 2178.6707612778637,2301.823725421879" style="stroke: rgb(200,200,200); stroke-width:4; fill: none;"/>
	<polygon points="2400.0,2250.0 2471.3292387221363,2301.823725421879 2444.0838939219357,2385.676274578121 2355.9161060780643,2385.676274578121 2328.6707612778637,2301.823725421879" style="stroke: rgb(200,200,200); stroke-width:4; fill: none;"/>
	<polygon points="2550.0,2250.0 2621.3292387221363,2301.823725421879 2594.0838939219357,2385.676274578121 2505.9161060780643,2385.676274578121 2478.6707612778637,2301.823725421879" style="stroke: rgb(200,200,200); stroke-width:4; fill: none;"/>
	<polygon points="75.0,2400.0 146.3292387221365,2451.823725421879 119.0838939219355,2535.676274578121 30.916106078064523,2535.676274578121 3.670761277863477,2451.823725421879" style="stroke: rgb(200,200,200); stroke-width:4; fill: none;"/>
	<polygon points="225.0,2400.0 296.3292387221365,2451.823725421879 269.0838939219355,2535.676274578121 180.91610607806453,2535.676274578121 153.67076127786348,2451.823725421879" style="stroke: rgb(200,200,200); stroke-width:4; fill: none;"/>
	<polygon points="375.0,2400.0 446.3292387221365,2451.823725421879 419.0838939219355,2535.676274578121 330.9161060780645,2535.676274578121 303.67076127786345,2451.823725421879" style="stroke: rgb(200,200,200); stroke-width:4; fill: none;"/>
	<polygon points="525.0,2400.0 596.3292387221366,2451.823725421879 569.0838939219354,2535.676274578121 480.9161060780645,2535.676274578121 453.67076127786345,2451.823725421879" style="stroke: rgb(200,200,200); stroke-width:4; fill: none;"/>
	<polygon points="675.0,2400.0 746.3292387221366,2451.823725421879 719.0838939219354,2535.676274578121 630.9161060780646,2535.676274578121 603.6707612778634,2451.823725421879" style="stroke: rgb(200,200,200); stroke-width:4; fill: none;"/>
	<polygon points="825.0,2400.0 896.3292387221366,2451.823725421879 869.0838939219354,2535.676274578121 780.9161060780646,2535.676274578121 753.6707612778634,2451.823725421879" style="stroke: rgb(200,200,200); stroke-width:4; fill: none;"/>
	<polygon points="975.0,2400.0 1046.3292387221366,2451.823725421879 1019.0838939219354,2535.676274578121 930.9161060780646,2535.676274578121 903.6707612778634,2451.823725421879" style="stroke: rgb(200,200,200); stroke-width:4; fill: none;"/>
	<polygon points="1125.0,2400.0 1196.3292387221366,2451.823725421879 1169.0838939219354,2535.676274578121 1080.9161060780646,2535.676274578121 1053.6707612778634,2451.823725421879" style="stroke: rgb(200,200,200); stroke-width:4; fill: none;"/>
	<polygon points="1275.0,2400.0 1346.3292387221366,2451.823725421879 1319.0838939219354,2535.676274578121 1230.9161060780646,2535.676274578121 1203.6707612778634,2451.823725421879" style="stroke: rgb(200,200,200); stroke-width:4; fill: none;"/>
	<polygon points="1425.0,2400.0 1496.3292387221366,2451.823725421879 1469.0838939219354,2535.676274578121 1380.9161060780646,2535.676274578121 1353.6707612778634,2451.823725421879" style="stroke: rgb(200,200,200); stroke-width:4; fill: none;"/>
	<polygon points="1575.0,2400.0 1646.3292387221366,2451.823725421879 1619.0838939219354,2535.676274578121 1530.9161060780646,2535.676274578121 1503.6707612778634,2451.823725421879" style="stroke: rgb(200,200,200); stroke-width:4; fill: none;"/>
	<polygon points="1725.0,2400.0 1796.3292387221366,2451.823725421879 1769.0838939219354,2535.676274578121 1680.9161060780646,2535.676274578121 1653.6707612778634,2451.823725421879" style="stroke: rgb(200,200,200); stroke-width:4; fill: none;"/>
	<polygon points="1875.0,2400.0 1946.3292387221366,2451.823725421879 1919.0838939219354,2535.676274578121 1830.9161060780646,2535.676274578121 1803.6707612778634,2451.823725421879" style="stroke: rgb(200,200,200); stroke-width:4; fill: none;"/>
	<polygon points="2025.0,2400.0 2096.3292387221363,2451.823725421879 2069.0838939219357,2535.676274578121 1980.9161060780646,2535.676274578121 1953.6707612778634,2451.823725421879" style="stroke: rgb(200,200,200); stroke-width:4; fill: none;"/>
	<polygon points="2175.0,2400.0 2246.3292387221363,2451.823725421879 2219.0838939219357,2535.676274578121 2130.9161060780643,2535.676274578121 2103.6707612778637,2451.823725421879" style="stroke: rgb(200,200,200); stroke-width:4; fill: none;"/>
	<polygon points="2325.0,2400.0 2396.3292387221363,2451.823725421879 2369.0838939219357,2535.676274578121 2280.9161060780643,2535.676274578121 2253.6707612778637,2451.823725421879" style="stroke: rgb(200,200,200); stroke-width:4; fill: none;"/>
	<polygon points="2475.0,2400.0 2546.3292387221363,2451.823725421879 2519.0838939219357,2535.676274578121 2430.9161060780643,2535.676274578121 2403.6707612778637,2451.823725421879" style="stroke: rgb(200,200,200); stroke-width:4; fill: none;"/>
	<polygon points="150.0,2550.0 221.3292387221365,2601.823725421879 194.0838939219355,2685.676274578121 105.91610607806453,2685.676274578121 78.67076127786348,2601.823725421879" style="stroke: rgb(200,200,200); stroke-width:4; fill: none;"/>
	<polygon points="300.0,2550.0 371.3292387221365,2601.823725421879 344.0838939219355,2685.676274578121 255.91610607806453,2685.676274578121 228.67076127786348,2601.823725421879" style="stroke: rgb(200,200,200); stroke-width:4; fill: none;"/>
	<polygon points="450.0,2550.0 521.3292387221366,2601.823725421879 494.0838939219355,2685.676274578121 405.9161060780645,2685.676274578121 378.67076127786345,2601.823725421879" style="stroke: rgb(200,200,200); stroke-width:4; fill: none;"/>
	<polygon points="600.0,2550.0 671.3292387221366,2601.823725421879 644.0838939219354,2685.676274578121 555.9161060780646,2685.676274578121 528.6707612778634,2601.823725421879" style="stroke: rgb(200,200,200); stroke-width:4; fill: none;"/>
	<polygon points="750.0,2550.0 821.3292387221366,2601.823725421879 794.0838939219354,2685.676274578121 705.9161060780646,2685.676274578121 678.6707612778634,2601.823725421879" style="stroke: rgb(200,200,200); stroke-width:4; fill: none;"/>
	<polygon points="900.0,2550.0 971.3292387221366,2601.823725421879 944.0838939219354,2685.676274578121 855.9161060780646,2685.676274578121 828.6707612778634,2601.823725421879" style="stroke: rgb(200,200,200); stroke-width:4; fill: none;"/>
	<polygon points="1050.0,2550.0 1121.3292387221366,2601.823725421879 1094.0838939219354,2685.676274578121 1005.9161060780646,2685.676274578121 978.6707612778634,2601.823725421879" style="stroke: rgb(200,200,200); stroke-width:4; fill: none;"/>
	<polygon points="1200.0,2550.0 1271.3292387221366,2601.823725421879 1244.0838939219354,2685.676274578121 1155.9161060780646,2685.676274578121 1128.6707612778634,2601.823725421879" style="stroke: rgb(200,200,200); stroke-width:4; fill: none;"/>
	<polygon points="1350.0,2550.0 1421.3292387221366,2601.823725421879 1394.0838939219354,2685.676274578121 1305.9161060780646,2685.676274578121 1278.6707612778634,2601.823725421879" style="stroke: rgb(200,200,200); stroke-width:4; fill: none;"/>
	<polygon points="1500.0,2550.0 1571.3292387221366,2601.823725421879 1544.0838939219354,2685.676274578121 1455.9161060780646,2685.676274578121 1428.6707612778634,2601.823725421879" style="stroke: rgb(200,200,200); stroke-width:4; fill: none;"/>
	<polygon points="1650.0,2550.0 1721.3292387221366,2601.823725421879 1694.0838939219354,2685.676274578121 1605.9161060780646,2685.676274578121 1578.6707612778634,2601.823725421879" style="stroke: rgb(200,200,200); stroke-width:4; fill: none;"/>
	<polygon points="1800.0,2550.0 1871.3292387221366,2601.823725421879 1844.0838939219354,2685.676274578121 1755.9161060780646,2685.676274578121 1728.6707612778634,2601.823725421879" style="stroke: rgb(200,200,200); stroke-width:4; fill: none;"/>
	<polygon points="1950.0,2550.0 2021.3292387221366,2601.823725421879 1994.0838939219354,2685.676274578121 1905.9161060780646,2685.676274578121 1878.6707612778634,2601.823725421879" style="stroke: rgb(200,200,200); stroke-width:4; fill: none;"/>
	<polygon points="2100.0,2550.0 2171.3292387221363,2601.823725421879 2144.0838939219357,2685.676274578121 2055.9161060780643,2685.676274578121 2028.6707612778634,2601.823725421879" style="stroke: rgb(200,200,200); stroke-width:4; fill: none;"/>
	<polygon points="2250.0,2550.0 2321.3292387221363,2601.823725421879 2294.0838939219357,2685.676274578121 2205.9161060780643,2685.676274578121 2178.6707612778637,2601.823725421879" style="stroke: rgb(200,200,200); stroke-width:4; fill: none;"/>
	<polygon points="2400.0,2550.0 2471.3292387221363,2601.823725421879 2444.0838939219357,2685.676274578121 2355.9161060780643,2685.676274578121 2328.6707612778637,2601.823725421879" style="stroke: rgb(200,200,200); stroke-width:4; fill: none;"/>
	<polygon points="2550.0,2550.0 2621.3292387221363,2601.823725421879 2594.0838939219357,2685.676274578121 2505.9161060780643,2685.676274578121 2478.6707612778637,2601.823725421879" style="stroke: rgb(200,200,200); stroke-width:4; fill: none;"/>
	<polygon points="75.0,2700.0 146.3292387221365,2751.823725421879 119.0838939219355,2835.676274578121 30.916106078064523,2835.676274578121 3.670761277863477,2751.823725421879" style="stroke: rgb(200,200,200); stroke-width:4; fill: none;"/>
	<polygon points="225.0,2700.0 296.3292387221365,2751.823725421879 269.0838939219355,2835.676274578121 180.91610607806453,2835.676274578121 153.67076127786348,2751.823725421879" style="stroke: rgb(200,200,200); stroke-width:4; fill: none;"/>
	<polygon points="375.0,2700.0 446.3292387221365,2751.823725421879 419.0838939219355,2835.676274578121 330.9161060780645,2835.676274578121 303.67076127786345,2751.823725421879" style="stroke: rgb(200,200,200); stroke-width:4; fill: none;"/>
	<polygon points="525.0,2700.0 596.3292387221366,2751.823725421879 569.0838939219354,2835.676274578121 480.9161060780645,2835.676274578121 453.67076127786345,2751.823725421879" style="stroke: rgb(200,200,200); stroke-width:4; fill: none;"/>
	<polygon points="675.0,2700.0 746.3292387221366,2751.823725421879 719.0838939219354,2835.676274578121 630.9161060780646,2835.676274578121 603.6707612778634,2751.823725421879" style="stroke: rgb(200,200,200); stroke-width:4; fill: none;"/>
	<polygon points="825.0,2700.0 896.3292387221366,2751.823725421879 869.0838939219354,2835.676274578121 780.9161060780646,2835.676274578121 753.6707612778634,2751.823725421879" style="stroke: rgb(200,200,200); stroke-width:4; fill: none;"/>
	<polygon points="975.0,2700.0 1046.3292387221366,2751.823725421879 1019.0838939219354,2835.676274578121 930.9161060780646,2835.676274578121 903.6707612778634,2751.823725421879" style="stroke: rgb(200,200,200); stroke-width:4; fill: none;"/>
	<polygon points="1125.0,2700.0 1196.3292387221366,2751.823725421879 1169.0838939219354,2835.676274578121 1080.9161060780646,2835.676274578121 1053.6707612778634,2751.823725421879" style="stroke: rgb(200,200,200); stroke-width:4; fill: none;"/>
	<polygon points="1275.0,2700.0 1346.3292387221366,2751.823725421879 1319.0838939219354,2835.676274578121 1230.9161060780646,2835.676274578121 1203.6707612778634,2751.823725421879" style="stroke: rgb(200,200,200); stroke-width:4; fill: none;"/>
	<polygon points="1425.0,2700.0 1496.3292387221366,2751.823725421879 1469.0838939219354,2835.676274578121 1380.9161060780646,2835.676274578121 1353.6707612778634,2751.823725421879" style="stroke: rgb(200,200,200); stroke-width:4; fill: none;"/>
	<polygon points="1575.0,2700.0 1646.3292387221366,2751.823725421879 1619.0838939219354,2835.676274578121 1530.9161060780646,2835.676274578121 1503.6707612778634,2751.823725421879" style="stroke: rgb(200,200,200); stroke-width:4; fill: none;"/>
	<polygon points="1725.0,2700.0 1796.3292387221366,2751.823725421879 1769.0838939219354,2835.676274578121 1680.9161060780646,2835.676274578121 1653.6707612778634,2751.823725421879" style="stroke: rgb(200,200,200); stroke-width:4; fill: none;"/>
	<polygon points="1875.0,2700.0 1946.3292387221366,2751.823725421879 1919.0838939219354,2835.676274578121 1830.9161060780646,2835.676274578121 1803.6707612778634,2751.823725421879" style="stroke: rgb(200,200,200); stroke-width:4; fill: none;"/>
	<polygon points="2025.0,2700.0 2096.3292387221363,2751.823725421879 2069.0838939219357,2835.676274578121 1980.9161060780646,2835.676274578121 1953.6707612778634,2751.823725421879" style="stroke: rgb(200,200,200); stroke-width:4; fill: none;"/>
	<polygon points="2175.0,2700.0 2246.3292387221363,2751.823725421879 2219.0838939219357,2835.676274578121 2130.9161060780643,2835.676274578121 2103.6707612778637,2751.823725421879" style="stroke: rgb(200,200,200); stroke-width:4; fill: none;"/>
	<polygon points="2325.0,2700.0 2396.3292387221363,2751.823725421879 2369.0838939219357,2835.676274578121 2280.9161060780643,2835.676274578121 2253.6707612778637,2751.823725421879" style="stroke: rgb(200,200,200); stroke-width:4; fill: none;"/>
	<polygon points="2475.0,2700.0 2546.3292387221363,2751.823725421879 2519.0838939219357,2835.676274578121 2430.9161060780643,2835.676274578121 2403.6707612778637,2751.823725421879" style="stroke: rgb(200,200,200); stroke-width:4; fill: none;"/>
	<polygon points="150.0,2850.0 221.3292387221365,2901.823725421879 194.0838939219355,2985.676274578121 105.91610607806453,2985.676274578121 78.67076127786348,2901.823725421879" style="stroke: rgb(200,200,200); stroke-width:4; fill: none;"/>
	<polygon points="300.0,2850.0 371.3292387221365,2901.823725421879 344.0838939219355,2985.676274578121 255.91610607806453,2985.676274578121 228.67076127786348,2901.823725421879" style="stroke: rgb(200,200,200); stroke-width:4; fill: none;"/>
	<polygon points="450.0,2850.0 521.3292387221366,2901.823725421879 494.0838939219355,2985.676274578121 405.9161060780645,2985.676274578121 378.67076127786345,2901.823725421879" style="stroke: rgb(200,200,200); stroke-width:4; fill: none;"/>
	<polygon points="600.0,2850.0 671.3292387221366,2901.823725421879 644.0838939219354,2985.676274578121 555.9161060780646,2985.676274578121 528.6707612778634,2901.823725421879" style="stroke: rgb(200,200,200); stroke-width:4; fill: none;"/>
	<polygon points="750.0,2850.0 821.3292387221366,2901.823725421879 794.0838939219354,2985.676274578121 705.9161060780646,2985.676274578121 678.6707612778634,2901.823725421879" style="stroke: rgb(200,200,200); stroke-width:4; fill: none;"/>
	<polygon points="900.0,2850.0 971.3292387221366,2901.823725421879 944.0838939219354,2985.676274578121 855.9161060780646,2985.676274578121 828.6707612778634,2901.823725421879" style="stroke: rgb(200,200,200); stroke-width:4; fill: none;"/>
	<polygon points="1050.0,2850.0 1121.3292387221366,2901.823725421879 1094.0838939219354,2985.676274578121 1005.9161060780646,2985.676274578121 978.6707612778634,2901.823725421879" style="stroke: rgb(200,200,200); stroke-width:4; fill: none;"/>
	<polygon points="1200.0,2850.0 1271.3292387221366,2901.823725421879 1244.0838939219354,2985.676274578121 1155.9161060780646,2985.676274578121 1128.6707612778634,2901.823725421879" style="stroke: rgb(200,200,200); stroke-width:4; fill: none;"/>
	<polygon points="1350.0,2850.0 1421.3292387221366,2901.823725421879 1394.0838939219354,2985.676274578121 1305.9161060780646,2985.676274578121 1278.6707612778634,2901.823725421879" style="stroke: rgb(200,200,200); stroke-width:4; fill: none;"/>
	<polygon points="1500.0,2850.0 1571.3292387221366,2901.823725421879 1544.0838939219354,2985.676274578121 1455.9161060780646,2985.676274578121 1428.6707612778634,2901.823725421879" style="stroke: rgb(200,200,200); stroke-width:4; fill: none;"/>
	<polygon points="1650.0,2850.0 1721.3292387221366,2901.823725421879 1694.0838939219354,2985.676274578121 1605.9161060780646,2985.676274578121 1578.6707612778634,2901.823725421879" style="stroke: rgb(200,200,200); stroke-width:4; fill: none;"/>
	<polygon points="1800.0,2850.0 1871.3292387221366,2901.823725421879 1844.0838939219354,2985.676274578121 1755.9161060780646,2985.676274578121 1728.6707612778634,2901.823725421879" style="stroke: rgb(200,200,200); stroke-width:4; fill: none;"/>
	<polygon points="1950.0,2850.0 2021.3292387221366,2901.823725421879 1994.0838939219354,2985.676274578121 1905.9161060780646,2985.676274578121 1878.6707612778634,2901.823725421879" style="stroke: rgb(200,200,200); stroke-width:4; fill: none;"/>
	<polygon points="2100.0,2850.0 2171.3292387221363,2901.823725421879 2144.0838939219357,2985.676274578121 2055.9161060780643,2985.676274578121 2028.6707612778634,2901.823725421879" style="stroke: rgb(200,200,200); stroke-width:4; fill: none;"/>
	<polygon points="2250.0,2850.0 2321.3292387221363,2901.823725421879 2294.0838939219357,2985.676274578121 2205.9161060780643,2985.676274578121 2178.6707612778637,2901.823725421879" style="stroke: rgb(200,200,200); stroke-width:4; fill: none;"/>
	<polygon points="2400.0,2850.0 2471.3292387221363,2901.823725421879 2444.0838939219357,2985.676274578121 2355.9161060780643,2985.676274578121 2328.6707612778637,2901.823725421879" style="stroke: rgb(200,200,200); stroke-width:4; fill: none;"/>
	<polygon points="2550.0,2850.0 2621.3292387221363,2901.823725421879 2594.0838939219357,2985.676274578121 2505.9161060780643,2985.676274578121 2478.6707612778637,2901.823725421879" style="stroke: rgb(200,200,200); stroke-width:4; fill: none;"/>
	<polygon points="75.0,3000.0 146.3292387221365,3051.823725421879 119.0838939219355,3135.676274578121 30.916106078064523,3135.676274578121 3.670761277863477,3051.823725421879" style="stroke: rgb(200,200,200); stroke-width:4; fill: none;"/>
	<polygon points="225.0,3000.0 296.3292387221365,3051.823725421879 269.0838939219355,3135.676274578121 180.91610607806453,3135.676274578121 153.67076127786348,3051.823725421879" style="stroke: rgb(200,200,200); stroke-width:4; fill: none;"/>
	<polygon points="375.0,3000.0 446.3292387221365,3051.823725421879 419.0838939219355,3135.676274578121 330.9161060780645,3135.676274578121 303.67076127786345,3051.823725421879" style="stroke: rgb(200,200,200); stroke-width:4; fill: none;"/>
	<polygon points="525.0,3000.0 596.3292387221366,3051.823725421879 569.0838939219354,3135.676274578121 480.9161060780645,3135.676274578121 453.67076127786345,3051.823725421879" style="stroke: rgb(200,200,200); stroke-width:4; fill: none;"/>
	<polygon points="675.0,3000.0 746.3292387221366,3051.823725421879 719.0838939219354,3135.676274578121 630.9161060780646,3135.676274578121 603.6707612778634,3051.823725421879" style="stroke: rgb(200,200,200); stroke-width:4; fill: none;"/>
	<polygon points="825.0,3000.0 896.3292387221366,3051.823725421879 869.0838939219354,3135.676274578121 780.9161060780646,3135.676274578121 753.6707612778634,3051.823725421879" style="stroke: rgb(200,200,200); stroke-width:4; fill: none;"/>
	<polygon points="975.0,3000.0 1046.3292387221366,3051.823725421879 1019.0838939219354,3135.676274578121 930.9161060780646,3135.676274578121 903.6707612778634,3051.823725421879" style="stroke: rgb(200,200,200); stroke-width:4; fill: none;"/>
	<polygon points="1125.0,3000.0 1196.3292387221366,3051.823725421879 1169.0838939219354,3135.676274578121 1080.9161060780646,3135.676274578121 1053.6707612778634,3051.823725421879" style="stroke: rgb(200,200,200); stroke-width:4; fill: none;"/>
	<polygon points="1275.0,3000.0 1346.3292387221366,3051.823725421879 1319.0838939219354,3135.676274578121 1230.9161060780646,3135.676274578121 1203.6707612778634,3051.823725421879" style="stroke: rgb(200,200,200); stroke-width:4; fill: none;"/>
	<polygon points="1425.0,3000.0 1496.3292387221366,3051.823725421879 1469.0838939219354,3135.676274578121 1380.9161060780646,3135.676274578121 1353.6707612778634,3051.823725421879" style="stroke: rgb(200,200,200); stroke-width:4; fill: none;"/>
	<polygon points="1575.0,3000.0 1646.3292387221366,3051.823725421879 1619.0838939219354,3135.676274578121 1530.9161060780646,3135.676274578121 1503.6707612778634,3051.823725421879" style="stroke: rgb(200,200,200); stroke-width:4; fill: none;"/>
	<polygon points="1725.0,3000.0 1796.3292387221366,3051.823725421879 1769.0838939219354,3135.676274578121 1680.9161060780646,3135.676274578121 1653.6707612778634,3051.823725421879" style="stroke: rgb(200,200,200); stroke-width:4; fill: none;"/>
	<polygon points="1875.0,3000.0 1946.3292387221366,3051.823725421879 1919.0838939219354,3135.676274578121 1830.9161060780646,3135.676274578121 1803.6707612778634,3051.823725421879" style="stroke: rgb(200,200,200); stroke-width:4; fill: none;"/>
	<polygon points="2025.0,3000.0 2096.3292387221363,3051.823725421879 2069.0838939219357,3135.676274578121 1980.9161060780646,3135.676274578121 1953.6707612778634,3051.823725421879" style="stroke: rgb(200,200,200); stroke-width:4; fill: none;"/>
	<polygon points="2175.0,3000.0 2246.3292387221363,3051.823725421879 2219.0838939219357,3135.676274578121 2130.9161060780643,3135.676274578121 2103.6707612778637,3051.823725421879" style="stroke: rgb(200,200,200); stroke-width:4; fill: none;"/>
	<polygon points="2325.0,3000.0 2396.3292387221363,3051.823725421879 2369.0838939219357,3135.676274578121 2280.9161060780643,3135.676274578121 2253.6707612778637,3051.823725421879" style="stroke: rgb(200,200,200); stroke-width:4; fill: none;"/>
	<polygon points="2475.0,3000.0 2546.3292387221363,3051.823725421879 2519.0838939219357,3135.676274578121 2430.9161060780643,3135.676274578121 2403.6707612778637,3051.823725421879" style="stroke: rgb(200,200,200); stroke-width:4; fill: none;"/>
	<polygon points="150.0,3150.0 221.3292387221365,3201.823725421879 194.0838939219355,3285.676274578121 105.91610607806453,3285.676274578121 78.67076127786348,3201.823725421879" style="stroke: rgb(200,200,200); stroke-width:4; fill: none;"/>
	<polygon points="300.0,3150.0 371.3292387221365,3201.823725421879 344.0838939219355,3285.676274578121 255.91610607806453,3285.676274578121 228.67076127786348,3201.823725421879" style="stroke: rgb(200,200,200); stroke-width:4; fill: none;"/>
	<polygon points="450.0,3150.0 521.3292387221366,3201.823725421879 494.0838939219355,3285.676274578121 405.9161060780645,3285.676274578121 378.67076127786345,3201.823725421879" style="stroke: rgb(200,200,200); stroke-width:4; fill: none;"/>
	<polygon points="600.0,3150.0 671.3292387221366,3201.823725421879 644.0838939219354,3285.676274578121 555.9161060780646,3285.676274578121 528.6707612778634,3201.823725421879" style="stroke: rgb(200,200,200); stroke-width:4; fill: none;"/>
	<polygon points="750.0,3150.0 821.3292387221366,3201.823725421879 794.0838939219354,3285.676274578121 705.9161060780646,3285.676274578121 678.6707612778634,3201.823725421879" style="stroke: rgb(200,200,200); stroke-width:4; fill: none;"/>
	<polygon points="900.0,3150.0 971.3292387221366,3201.823725421879 944.0838939219354,3285.676274578121 855.9161060780646,3285.676274578121 828.6707612778634,3201.823725421879" style="stroke: rgb(200,200,200); stroke-width:4; fill: none;"/>
	<polygon points="1050.0,3150.0 1121.3292387221366,3201.823725421879 1094.0838939219354,3285.676274578121 1005.9161060780646,3285.676274578121 978.6707612778634,3201.823725421879" style="stroke: rgb(200,200,200); stroke-width:4; fill: none;"/>
	<polygon points="1200.0,3150.0 1271.3292387221366,3201.823725421879 1244.0838939219354,3285.676274578121 1155.9161060780646,3285.676274578121 1128.6707612778634,3201.823725421879" style="stroke: rgb(200,200,200); stroke-width:4; fill: none;"/>
	<polygon points="1350.0,3150.0 1421.3292387221366,3201.823725421879 1394.0838939219354,3285.676274578121 1305.9161060780646,3285.676274578121 1278.6707612778634,3201.823725421879" style="stroke: rgb(200,200,200); stroke-width:4; fill: none;"/>
	<polygon points="1500.0,3150.0 1571.3292387221366,3201.823725421879 1544.0838939219354,3285.676274578121 1455.9161060780646,3285.676274578121 1428.6707612778634,3201.823725421879" style="stroke: rgb(200,200,200); stroke-width:4; fill: none;"/>
	<polygon points="1650.0,3150.0 1721.3292387221366,3201.823725421879 1694.0838939219354,3285.676274578121 1605.9161060780646,3285.676274578121 1578.6707612778634,3201.823725421879" style="stroke: rgb(200,200,200); stroke-width:4; fill: none;"/>
	<polygon points="1800.0,3150.0 1871.3292387221366,3201.823725421879 1844.0838939219354,3285.676274578121 1755.9161060780646,3285.676274578121 1728.6707612778634,3201.823725421879" style="stroke: rgb(200,200,200); stroke-width:4; fill: none;"/>
	<polygon points="1950.0,3150.0 2021.3292387221366,3201.823725421879 1994.0838939219354,3285.676274578121 1905.9161060780646,3285.676274578121 1878.6707612778634,3201.823725421879" style="stroke: rgb(200,200,200); stroke-width:4; fill: none;"/>
	<polygon points="2100.0,3150.0 2171.3292387221363,3201.823725421879 2144.0838939219357,3285.676274578121 2055.9161060780643,3285.676274578121 2028.6707612778634,3201.823725421879" style="stroke: rgb(200,200,200); stroke-width:4; fill: none;"/>
	<polygon points="2250.0,3150.0 2321.3292387221363,3201.823725421879 2294.0838939219357,3285.676274578121 2205.9161060780643,3285.676274578121 2178.6707612778637,3201.823725421879" style="stroke: rgb(200,200,200); stroke-width:4; fill: none;"/>
	<polygon points="2400.0,3150.0 2471.3292387221363,3201.823725421879 2444.0838939219357,3285.676274578121 2355.9161060780643,3285.676274578121 2328.6707612778637,3201.823725421879" style="stroke: rgb(200,200,200); stroke-width:4; fill: none;"/>
	<polygon points="2550.0,3150.0 2621.3292387221363,3201.823725421879 2594.0838939219357,3285.676274578121 2505.9161060780643,3285.676274578121 2478.6707612778637,3201.823725421879" style="stroke: rgb(200,200,200); stroke-width:4; fill: none;"/>
</svg>