<?xml version="1.0" encoding="UTF-8" standalone="no"?>
<!DOCTYPE svg PUBLIC "-//W3C//DTD SVG 1.1//EN" "http://www.w3.org/Graphics/SVG/1.1/DTD/svg11.dtd">
<svg width="8.5in" height="11in"  xmlns="http://www.w3.org/2000/svg">
	<line x1="5.25in" y1="5.5in" x2="6.3125in" y2="5.5in" style="stroke: rgb(200,200,200); fill: none;"/>
	<line x1="5.234807753012208in" y1="5.67364817766693in" x2="6.281165990587679in" y2="5.8581493664380435in" style="stroke: rgb(200,200,200); fill: none;"/>
	<line x1="5.189692620785909in" y1="5.842020143325668in" x2="6.188116030370937in" y2="6.205416545609191in" style="stroke: rgb(200,200,200); fill: none;"/>
	<line x1="5.116025403784438in" y1="6.0in" x2="6.036177395305405in" y2="6.53125in" style="stroke: rgb(200,200,200); fill: none;"/>
	<line x1="5.016044443118978in" y1="6.14278760968654in" x2="5.829966663932892in" y2="6.825749444978488in" style="stroke: rgb(200,200,200); fill: none;"/>
	<line x1="4.89278760968654in" y1="6.266044443118978in" x2="5.575749444978488in" y2="7.079966663932892in" style="stroke: rgb(200,200,200); fill: none;"/>
	<line x1="4.75in" y1="6.366025403784438in" x2="5.28125in" y2="7.286177395305405in" style="stroke: rgb(200,200,200); fill: none;"/>
	<line x1="4.592020143325668in" y1="6.439692620785908in" x2="4.955416545609191in" y2="7.438116030370936in" style="stroke: rgb(200,200,200); fill: none;"/>
	<line x1="4.42364817766693in" y1="6.484807753012208in" x2="4.6081493664380435in" y2="7.531165990587679in" style="stroke: rgb(200,200,200); fill: none;"/>
	<line x1="4.25in" y1="6.5in" x2="4.25in" y2="7.5625in" style="stroke: rgb(200,200,200); fill: none;"/>
	<line x1="4.07635182233307in" y1="6.484807753012208in" x2="3.8918506335619565in" y2="7.531165990587679in" style="stroke: rgb(200,200,200); fill: none;"/>
	<line x1="3.907979856674331in" y1="6.439692620785909in" x2="3.544583454390808in" y2="7.438116030370937in" style="stroke: rgb(200,200,200); fill: none;"/>
	<line x1="3.75in" y1="6.366025403784439in" x2="3.21875in" y2="7.286177395305406in" style="stroke: rgb(200,200,200); fill: none;"/>
	<line x1="3.6072123903134607in" y1="6.266044443118978in" x2="2.924250555021513in" y2="7.079966663932892in" style="stroke: rgb(200,200,200); fill: none;"/>
	<line x1="3.483955556881022in" y1="6.14278760968654in" x2="2.670033336067108in" y2="6.825749444978488in" style="stroke: rgb(200,200,200); fill: none;"/>
	<line x1="3.383974596215561in" y1="6.0in" x2="2.4638226046945952in" y2="6.53125in" style="stroke: rgb(200,200,200); fill: none;"/>
	<line x1="3.3103073792140916in" y1="5.842020143325669in" x2="2.311883969629064in" y2="6.205416545609193in" style="stroke: rgb(200,200,200); fill: none;"/>
	<line x1="3.265192246987792in" y1="5.67364817766693in" x2="2.218834009412321in" y2="5.8581493664380435in" style="stroke: rgb(200,200,200); fill: none;"/>
	<line x1="3.25in" y1="5.5in" x2="2.1875in" y2="5.5in" style="stroke: rgb(200,200,200); fill: none;"/>
	<line x1="3.265192246987792in" y1="5.32635182233307in" x2="2.218834009412321in" y2="5.1418506335619565in" style="stroke: rgb(200,200,200); fill: none;"/>
	<line x1="3.3103073792140916in" y1="5.157979856674332in" x2="2.311883969629064in" y2="4.794583454390809in" style="stroke: rgb(200,200,200); fill: none;"/>
	<line x1="3.3839745962155616in" y1="5.0in" x2="2.4638226046945957in" y2="4.46875in" style="stroke: rgb(200,200,200); fill: none;"/>
	<line x1="3.483955556881022in" y1="4.85721239031346in" x2="2.6700333360671076in" y2="4.174250555021512in" style="stroke: rgb(200,200,200); fill: none;"/>
	<line x1="3.6072123903134603in" y1="4.733955556881022in" x2="2.924250555021512in" y2="3.920033336067108in" style="stroke: rgb(200,200,200); fill: none;"/>
	<line x1="3.7499999999999996in" y1="4.633974596215562in" x2="3.218749999999999in" y2="3.713822604694596in" style="stroke: rgb(200,200,200); fill: none;"/>
	<line x1="3.9079798566743316in" y1="4.560307379214091in" x2="3.544583454390809in" y2="3.561883969629063in" style="stroke: rgb(200,200,200); fill: none;"/>
	<line x1="4.07635182233307in" y1="4.515192246987792in" x2="3.8918506335619565in" y2="3.468834009412321in" style="stroke: rgb(200,200,200); fill: none;"/>
	<line x1="4.25in" y1="4.5in" x2="4.25in" y2="3.4375in" style="stroke: rgb(200,200,200); fill: none;"/>
	<line x1="4.42364817766693in" y1="4.515192246987792in" x2="4.6081493664380435in" y2="3.468834009412321in" style="stroke: rgb(200,200,200); fill: none;"/>
	<line x1="4.592020143325669in" y1="4.560307379214092in" x2="4.955416545609193in" y2="3.5618839696290645in" style="stroke: rgb(200,200,200); fill: none;"/>
	<line x1="4.75in" y1="4.633974596215562in" x2="5.28125in" y2="3.7138226046945957in" style="stroke: rgb(200,200,200); fill: none;"/>
	<line x1="4.89278760968654in" y1="4.733955556881022in" x2="5.575749444978488in" y2="3.9200333360671076in" style="stroke: rgb(200,200,200); fill: none;"/>
	<line x1="5.016044443118978in" y1="4.85721239031346in" x2="5.8299666639328915in" y2="4.174250555021512in" style="stroke: rgb(200,200,200); fill: none;"/>
	<line x1="5.116025403784438in" y1="5.0in" x2="6.036177395305404in" y2="4.46875in" style="stroke: rgb(200,200,200); fill: none;"/>
	<line x1="5.189692620785909in" y1="5.157979856674332in" x2="6.188116030370937in" y2="4.794583454390809in" style="stroke: rgb(200,200,200); fill: none;"/>
	<line x1="5.234807753012208in" y1="5.32635182233307in" x2="6.281165990587679in" y2="5.1418506335619565in" style="stroke: rgb(200,200,200); fill: none;"/>
</svg>