<?xml version="1.0" encoding="UTF-8" standalone="no"?>
<!DOCTYPE svg PUBLIC "-//W3C//DTD SVG 1.1//EN" "http://www.w3.org/Graphics/SVG/1.1/DTD/svg11.dtd">
<svg width="8.5in" height="11in"  xmlns="http://www.w3.org/2000/svg">
	<circle cx="6.3125in" cy="5.5in" r="1.0625in" style="stroke: rgb(200,200,200); fill: none;"/>
	<circle cx="6.281165990587679in" cy="5.684501188771113in" r="1.0625in" style="stroke: rgb(200,200,200); fill: none;"/>
	<circle cx="6.188116030370937in" cy="5.863396402283523in" r="1.0625in" style="stroke: rgb(200,200,200); fill: none;"/>
	<circle cx="6.036177395305405in" cy="6.03125in" r="1.0625in" style="stroke: rgb(200,200,200); fill: none;"/>
	<circle cx="5.829966663932892in" cy="6.182961835291948in" r="1.0625in" style="stroke: rgb(200,200,200); fill: none;"/>
	<circle cx="5.575749444978488in" cy="6.3139222208139145in" r="1.0625in" style="stroke: rgb(200,200,200); fill: none;"/>
	<circle cx="5.28125in" cy="6.420151991520966in" r="1.0625in" style="stroke: rgb(200,200,200); fill: none;"/>
	<circle cx="4.955416545609191in" cy="6.498423409585028in" r="1.0625in" style="stroke: rgb(200,200,200); fill: none;"/>
	<circle cx="4.6081493664380435in" cy="6.546358237575471in" r="1.0625in" style="stroke: rgb(200,200,200); fill: none;"/>
	<circle cx="4.25in" cy="6.5625in" r="1.0625in" style="stroke: rgb(200,200,200); fill: none;"/>
	<circle cx="3.8918506335619565in" cy="6.546358237575471in" r="1.0625in" style="stroke: rgb(200,200,200); fill: none;"/>
	<circle cx="3.544583454390808in" cy="6.498423409585028in" r="1.0625in" style="stroke: rgb(200,200,200); fill: none;"/>
	<circle cx="3.21875in" cy="6.420151991520966in" r="1.0625in" style="stroke: rgb(200,200,200); fill: none;"/>
	<circle cx="2.924250555021513in" cy="6.3139222208139145in" r="1.0625in" style="stroke: rgb(200,200,200); fill: none;"/>
	<circle cx="2.670033336067108in" cy="6.182961835291948in" r="1.0625in" style="stroke: rgb(200,200,200); fill: none;"/>
	<circle cx="2.4638226046945952in" cy="6.03125in" r="1.0625in" style="stroke: rgb(200,200,200); fill: none;"/>
	<circle cx="2.311883969629064in" cy="5.863396402283524in" r="1.0625in" style="stroke: rgb(200,200,200); fill: none;"/>
	<circle cx="2.218834009412321in" cy="5.684501188771113in" r="1.0625in" style="stroke: rgb(200,200,200); fill: none;"/>
	<circle cx="2.1875in" cy="5.5in" r="1.0625in" style="stroke: rgb(200,200,200); fill: none;"/>
	<circle cx="2.218834009412321in" cy="5.315498811228887in" r="1.0625in" style="stroke: rgb(200,200,200); fill: none;"/>
	<circle cx="2.311883969629064in" cy="5.136603597716477in" r="1.0625in" style="stroke: rgb(200,200,200); fill: none;"/>
	<circle cx="2.4638226046945957in" cy="4.96875in" r="1.0625in" style="stroke: rgb(200,200,200); fill: none;"/>
	<circle cx="2.6700333360671076in" cy="4.817038164708052in" r="1.0625in" style="stroke: rgb(200,200,200); fill: none;"/>
	<circle cx="2.924250555021512in" cy="4.6860777791860855in" r="1.0625in" style="stroke: rgb(200,200,200); fill: none;"/>
	<circle cx="3.218749999999999in" cy="4.5798480084790345in" r="1.0625in" style="stroke: rgb(200,200,200); fill: none;"/>
	<circle cx="3.544583454390809in" cy="4.501576590414972in" r="1.0625in" style="stroke: rgb(200,200,200); fill: none;"/>
	<circle cx="3.8918506335619565in" cy="4.453641762424529in" r="1.0625in" style="stroke: rgb(200,200,200); fill: none;"/>
	<circle cx="4.25in" cy="4.4375in" r="1.0625in" style="stroke: rgb(200,200,200); fill: none;"/>
	<circle cx="4.6081493664380435in" cy="4.453641762424529in" r="1.0625in" style="stroke: rgb(200,200,200); fill: none;"/>
	<circle cx="4.955416545609193in" cy="4.501576590414972in" r="1.0625in" style="stroke: rgb(200,200,200); fill: none;"/>
	<circle cx="5.28125in" cy="4.579848008479034in" r="1.0625in" style="stroke: rgb(200,200,200); fill: none;"/>
	<circle cx="5.575749444978488in" cy="4.6860777791860855in" r="1.0625in" style="stroke: rgb(200,200,200); fill: none;"/>
	<circle cx="5.8299666639328915in" cy="4.817038164708052in" r="1.0625in" style="stroke: rgb(200,200,200); fill: none;"/>
	<circle cx="6.036177395305404in" cy="4.96875in" r="1.0625in" style="stroke: rgb(200,200,200); fill: none;"/>
	<circle cx="6.188116030370937in" cy="5.136603597716477in" r="1.0625in" style="stroke: rgb(200,200,200); fill: none;"/>
	<circle cx="6.281165990587679in" cy="5.315498811228887in" r="1.0625in" style="stroke: rgb(200,200,200); fill: none;"/>
</svg>